{
.appVersion = "3208";
.formatVersion = 3;
customParameters = (
{
name = "Use Typo Metrics";
value = 1;
},
{
name = fsType;
value = (
);
}
);
date = "2023-08-02 13:42:59 +0000";
familyName = Norican;
featurePrefixes = (
{
automatic = 1;
code = "languagesystem DFLT dflt;

languagesystem latn dflt;
languagesystem latn AZE;
languagesystem latn CRT;
languagesystem latn KAZ;
languagesystem latn TAT;
languagesystem latn TRK;
languagesystem latn ROM;
languagesystem latn MOL;
languagesystem latn CAT;
";
name = Languagesystems;
}
);
features = (
{
automatic = 1;
code = "feature locl;
feature sups;
feature frac;
feature ordn;
feature init;
feature fina;
";
tag = aalt;
},
{
automatic = 1;
code = "lookup ccmp_Other_1 {
	@CombiningTopAccents = [acutecomb brevecomb breveinvertedcomb caroncomb circumflexcomb commaturnedabovecomb dblgravecomb dieresiscomb dotaccentcomb gravecomb hungarumlautcomb macroncomb ringcomb tildecomb];
	lookupflag UseMarkFilteringSet @CombiningTopAccents;
	sub i' @CombiningTopAccents by idotless;
	sub j' @CombiningTopAccents by jdotless;
} ccmp_Other_1;

lookup ccmp_latn_1 {
	sub fi by f i;
	sub fl by f l;
} ccmp_latn_1;

script latn;
lookup ccmp_latn_1;
";
tag = ccmp;
},
{
automatic = 1;
code = "script latn;
language AZE;
lookup locl_latn_0 {
	sub i by idotaccent;
} locl_latn_0;
language CRT;
lookup locl_latn_0;
language KAZ;
lookup locl_latn_0;
language TAT;
lookup locl_latn_0;
language TRK;
lookup locl_latn_0;

script latn;
language ROM;
lookup locl_latn_1 {
	sub Scedilla by Scommaaccent;
	sub scedilla by scommaaccent;
} locl_latn_1;
language MOL;
lookup locl_latn_1;

script latn;
language CAT;
lookup locl_latn_2 {
	sub  l' periodcentered' l by ldot;
} locl_latn_2;
";
tag = locl;
},
{
automatic = 1;
code = "sub one by onesuperior;
sub two by twosuperior;
sub three by threesuperior;
sub four by foursuperior;
";
tag = sups;
},
{
automatic = 1;
code = "sub one slash four by onequarter;
sub one slash two by onehalf;
sub three slash four by threequarters;

glyphs = (
{
glyphname = A;
lastChange = "2023-08-03 09:40:13 +0000";
layers = (
{
anchors = (
{
name = bottom;
pos = (696,0);
},
{
name = ogonek;
pos = (1192,10);
},
{
name = top;
pos = (1306,1518);
}
);
background = {
shapes = (
{
closed = 0;
nodes = (
(1313,1518,ls)
);
},
{
closed = 1;
nodes = (
(563,-57,o),
(752,45,o),
(895,193,c),
(885,61,o),
(899,-57,o),
(1022,-57,cs),
(1176,-57,o),
(1319,127,o),
(1513,330,c),
(1513,442,l),
(1233,170,o),
(1231,166,o),
(1157,166,cs),
(1098,166,o),
(1118,272,o),
(1141,385,c),
(1161,489,o),
(1260,999,o),
(1343,1223,c),
(1346,1227,o),
(1346,1233,o),
(1346,1239,cs),
(1346,1264,o),
(1339,1272,o),
(1319,1272,cs),
(1262,1272,o),
(1130,1270,o),
(1112,1210,c),
(1077,1106,o),
(942,516,o),
(915,377,c),
(891,246,o),
(739,135,o),
(625,135,cs),
(449,135,o),
(338,248,o),
(338,463,cs),
(338,893,o),
(891,1421,o),
(1253,1421,cs),
(1393,1421,o),
(1503,1343,o),
(1544,1151,c),
(1597,1165,o),
(1716,1260,o),
(1716,1321,cs),
(1716,1470,o),
(1417,1518,o),
(1313,1518,cs),
(735,1518,o),
(80,895,o),
(80,328,cs),
(80,78,o),
(180,-57,o),
(422,-57,cs)
);
}
);
};
layerId = m001;
shapes = (
{
closed = 1;
nodes = (
(563,-57,o),
(752,45,o),
(895,193,c),
(885,61,o),
(899,-57,o),
(1022,-57,cs),
(1176,-57,o),
(1319,127,o),
(1513,330,c),
(1513,442,l),
(1233,170,o),
(1231,166,o),
(1157,166,cs),
(1098,166,o),
(1118,272,o),
(1141,385,c),
(1161,489,o),
(1260,999,o),
(1343,1223,c),
(1346,1227,o),
(1346,1233,o),
(1346,1239,cs),
(1346,1264,o),
(1339,1272,o),
(1319,1272,cs),
(1262,1272,o),
(1130,1270,o),
(1112,1210,c),
(1077,1106,o),
(942,516,o),
(915,377,c),
(891,246,o),
(739,135,o),
(625,135,cs),
(449,135,o),
(338,248,o),
(338,463,cs),
(338,893,o),
(891,1421,o),
(1253,1421,cs),
(1393,1421,o),
(1503,1343,o),
(1544,1151,c),
(1597,1165,o),
(1716,1260,o),
(1716,1321,cs),
(1716,1470,o),
(1417,1518,o),
(1313,1518,cs),
(735,1518,o),
(80,895,o),
(80,328,cs),
(80,78,o),
(180,-57,o),
(422,-57,cs)
);
}
);
width = 1391;
}
);
unicode = 65;
},
{
glyphname = Aacute;
lastChange = "2023-08-03 09:40:13 +0000";
layers = (
{
background = {
shapes = (
{
closed = 0;
nodes = (
(1313,1518,ls)
);
},
{
closed = 1;
nodes = (
(563,-57,o),
(752,45,o),
(895,193,c),
(885,61,o),
(899,-57,o),
(1022,-57,cs),
(1176,-57,o),
(1319,127,o),
(1513,330,c),
(1513,442,l),
(1233,170,o),
(1231,166,o),
(1157,166,cs),
(1098,166,o),
(1118,272,o),
(1141,385,c),
(1161,489,o),
(1260,999,o),
(1343,1223,c),
(1346,1227,o),
(1346,1233,o),
(1346,1239,cs),
(1346,1264,o),
(1339,1272,o),
(1319,1272,cs),
(1262,1272,o),
(1130,1270,o),
(1112,1210,c),
(1077,1106,o),
(942,516,o),
(915,377,c),
(891,246,o),
(739,135,o),
(625,135,cs),
(449,135,o),
(338,248,o),
(338,463,cs),
(338,893,o),
(891,1421,o),
(1253,1421,cs),
(1393,1421,o),
(1503,1343,o),
(1544,1151,c),
(1597,1165,o),
(1716,1260,o),
(1716,1321,cs),
(1716,1470,o),
(1417,1518,o),
(1313,1518,cs),
(735,1518,o),
(80,895,o),
(80,328,cs),
(80,78,o),
(180,-57,o),
(422,-57,cs)
);
},
{
closed = 0;
nodes = (
(1313,1518,ls)
);
},
{
closed = 1;
nodes = (
(1655,1835,o),
(1659,1848,o),
(1659,1860,cs),
(1659,1899,o),
(1599,1962,o),
(1552,1962,c),
(1442,1956,o),
(1223,1792,o),
(1132,1708,c),
(1155,1653,l),
(1227,1678,o),
(1397,1735,o),
(1552,1796,cs),
(1640,1831,l)
);
}
);
};
layerId = m001;
shapes = (
{
ref = A;
},
{
pos = (942,678);
ref = acutecomb;
}
);
width = 1391;
}
);
unicode = 193;
},
{
glyphname = Abreve;
lastChange = "2023-08-03 09:40:13 +0000";
layers = (
{
background = {
shapes = (
{
closed = 0;
nodes = (
(1313,1518,ls)
);
},
{
closed = 1;
nodes = (
(563,-57,o),
(752,45,o),
(895,193,c),
(885,61,o),
(899,-57,o),
(1022,-57,cs),
(1176,-57,o),
(1319,127,o),
(1513,330,c),
(1513,442,l),
(1233,170,o),
(1231,166,o),
(1157,166,cs),
(1098,166,o),
(1118,272,o),
(1141,385,c),
(1161,489,o),
(1260,999,o),
(1343,1223,c),
(1346,1227,o),
(1346,1233,o),
(1346,1239,cs),
(1346,1264,o),
(1339,1272,o),
(1319,1272,cs),
(1262,1272,o),
(1130,1270,o),
(1112,1210,c),
(1077,1106,o),
(942,516,o),
(915,377,c),
(891,246,o),
(739,135,o),
(625,135,cs),
(449,135,o),
(338,248,o),
(338,463,cs),
(338,893,o),
(891,1421,o),
(1253,1421,cs),
(1393,1421,o),
(1503,1343,o),
(1544,1151,c),
(1597,1165,o),
(1716,1260,o),
(1716,1321,cs),
(1716,1470,o),
(1417,1518,o),
(1313,1518,cs),
(735,1518,o),
(80,895,o),
(80,328,cs),
(80,78,o),
(180,-57,o),
(422,-57,cs)
);
},
{
closed = 0;
nodes = (
(2444,805,ls)
);
},
{
closed = 1;
nodes = (
(2741,1282,l),
(2741,1282,o),
(2657,1100,o),
(2517,1100,cs),
(2380,1100,o),
(2380,1280,o),
(2380,1282,c),
(2259,1257,l),
(2265,1243,o),
(2255,948,o),
(2511,948,cs),
(2720,948,o),
(2821,1135,o),
(2843,1257,c)
);
}
);
};
layerId = m001;
shapes = (
{
ref = A;
},
{
pos = (914,678);
ref = brevecomb;
}
);
width = 1391;
}
);
unicode = 258;
},
{
glyphname = Acircumflex;
lastChange = "2023-08-03 09:40:13 +0000";
layers = (
{
background = {
shapes = (
{
closed = 0;
nodes = (
(1313,1518,ls)
);
},
{
closed = 1;
nodes = (
(563,-57,o),
(752,45,o),
(895,193,c),
(885,61,o),
(899,-57,o),
(1022,-57,cs),
(1176,-57,o),
(1319,127,o),
(1513,330,c),
(1513,442,l),
(1233,170,o),
(1231,166,o),
(1157,166,cs),
(1098,166,o),
(1118,272,o),
(1141,385,c),
(1161,489,o),
(1260,999,o),
(1343,1223,c),
(1346,1227,o),
(1346,1233,o),
(1346,1239,cs),
(1346,1264,o),
(1339,1272,o),
(1319,1272,cs),
(1262,1272,o),
(1130,1270,o),
(1112,1210,c),
(1077,1106,o),
(942,516,o),
(915,377,c),
(891,246,o),
(739,135,o),
(625,135,cs),
(449,135,o),
(338,248,o),
(338,463,cs),
(338,893,o),
(891,1421,o),
(1253,1421,cs),
(1393,1421,o),
(1503,1343,o),
(1544,1151,c),
(1597,1165,o),
(1716,1260,o),
(1716,1321,cs),
(1716,1470,o),
(1417,1518,o),
(1313,1518,cs),
(735,1518,o),
(80,895,o),
(80,328,cs),
(80,78,o),
(180,-57,o),
(422,-57,cs)
);
},
{
closed = 0;
nodes = (
(1313,1518,ls)
);
},
{
closed = 1;
nodes = (
(1165,1700,o),
(1276,1821,o),
(1380,1927,c),
(1442,1821,o),
(1505,1700,o),
(1536,1657,c),
(1608,1698,l),
(1606,1706,o),
(1474,2095,o),
(1409,2095,cs),
(1325,2095,o),
(1147,1854,o),
(1059,1700,c),
(1118,1657,l)
);
}
);
};
layerId = m001;
shapes = (
{
ref = A;
},
{
pos = (901,708);
ref = circumflexcomb;
}
);
width = 1391;
}
);
unicode = 194;
},
{
glyphname = Adieresis;
lastChange = "2023-08-03 09:40:13 +0000";
layers = (
{
background = {
shapes = (
{
closed = 0;
nodes = (
(1313,1518,ls)
);
},
{
closed = 1;
nodes = (
(563,-57,o),
(752,45,o),
(895,193,c),
(885,61,o),
(899,-57,o),
(1022,-57,cs),
(1176,-57,o),
(1319,127,o),
(1513,330,c),
(1513,442,l),
(1233,170,o),
(1231,166,o),
(1157,166,cs),
(1098,166,o),
(1118,272,o),
(1141,385,c),
(1161,489,o),
(1260,999,o),
(1343,1223,c),
(1346,1227,o),
(1346,1233,o),
(1346,1239,cs),
(1346,1264,o),
(1339,1272,o),
(1319,1272,cs),
(1262,1272,o),
(1130,1270,o),
(1112,1210,c),
(1077,1106,o),
(942,516,o),
(915,377,c),
(891,246,o),
(739,135,o),
(625,135,cs),
(449,135,o),
(338,248,o),
(338,463,cs),
(338,893,o),
(891,1421,o),
(1253,1421,cs),
(1393,1421,o),
(1503,1343,o),
(1544,1151,c),
(1597,1165,o),
(1716,1260,o),
(1716,1321,cs),
(1716,1470,o),
(1417,1518,o),
(1313,1518,cs),
(735,1518,o),
(80,895,o),
(80,328,cs),
(80,78,o),
(180,-57,o),
(422,-57,cs)
);
},
{
closed = 0;
nodes = (
(1313,1518,ls)
);
},
{
closed = 1;
nodes = (
(1167,1662,o),
(1247,1751,o),
(1247,1820,cs),
(1247,1861,o),
(1214,1898,o),
(1136,1898,cs),
(1054,1898,o),
(997,1808,o),
(997,1740,cs),
(997,1699,o),
(1019,1662,o),
(1075,1662,cs)
);
},
{
closed = 1;
nodes = (
(1651,1662,o),
(1729,1751,o),
(1729,1820,cs),
(1729,1861,o),
(1698,1898,o),
(1618,1898,cs),
(1538,1898,o),
(1479,1808,o),
(1479,1740,cs),
(1479,1699,o),
(1501,1662,o),
(1559,1662,cs)
);
}
);
};
layerId = m001;
shapes = (
{
ref = A;
},
{
pos = (840,708);
ref = dieresiscomb;
}
);
width = 1391;
}
);
unicode = 196;
},
{
glyphname = Agrave;
lastChange = "2023-08-03 09:40:13 +0000";
layers = (
{
background = {
shapes = (
{
closed = 0;
nodes = (
(1313,1518,ls)
);
},
{
closed = 1;
nodes = (
(563,-57,o),
(752,45,o),
(895,193,c),
(885,61,o),
(899,-57,o),
(1022,-57,cs),
(1176,-57,o),
(1319,127,o),
(1513,330,c),
(1513,442,l),
(1233,170,o),
(1231,166,o),
(1157,166,cs),
(1098,166,o),
(1118,272,o),
(1141,385,c),
(1161,489,o),
(1260,999,o),
(1343,1223,c),
(1346,1227,o),
(1346,1233,o),
(1346,1239,cs),
(1346,1264,o),
(1339,1272,o),
(1319,1272,cs),
(1262,1272,o),
(1130,1270,o),
(1112,1210,c),
(1077,1106,o),
(942,516,o),
(915,377,c),
(891,246,o),
(739,135,o),
(625,135,cs),
(449,135,o),
(338,248,o),
(338,463,cs),
(338,893,o),
(891,1421,o),
(1253,1421,cs),
(1393,1421,o),
(1503,1343,o),
(1544,1151,c),
(1597,1165,o),
(1716,1260,o),
(1716,1321,cs),
(1716,1470,o),
(1417,1518,o),
(1313,1518,cs),
(735,1518,o),
(80,895,o),
(80,328,cs),
(80,78,o),
(180,-57,o),
(422,-57,cs)
);
},
{
closed = 0;
nodes = (
(1313,1518,ls)
);
},
{
closed = 1;
nodes = (
(1204,1735,o),
(1374,1678,o),
(1446,1653,c),
(1468,1708,l),
(1378,1792,o),
(1159,1956,o),
(1048,1962,c),
(1001,1962,o),
(942,1899,o),
(942,1860,cs),
(942,1848,o),
(946,1835,o),
(960,1831,c),
(1048,1796,ls)
);
}
);
};
layerId = m001;
shapes = (
{
ref = A;
},
{
pos = (943,708);
ref = gravecomb;
}
);
width = 1391;
}
);
unicode = 192;
},
{
glyphname = Amacron;
lastChange = "2023-08-03 09:40:13 +0000";
layers = (
{
background = {
shapes = (
{
closed = 0;
nodes = (
(1313,1518,ls)
);
},
{
closed = 1;
nodes = (
(563,-57,o),
(752,45,o),
(895,193,c),
(885,61,o),
(899,-57,o),
(1022,-57,cs),
(1176,-57,o),
(1319,127,o),
(1513,330,c),
(1513,442,l),
(1233,170,o),
(1231,166,o),
(1157,166,cs),
(1098,166,o),
(1118,272,o),
(1141,385,c),
(1161,489,o),
(1260,999,o),
(1343,1223,c),
(1346,1227,o),
(1346,1233,o),
(1346,1239,cs),
(1346,1264,o),
(1339,1272,o),
(1319,1272,cs),
(1262,1272,o),
(1130,1270,o),
(1112,1210,c),
(1077,1106,o),
(942,516,o),
(915,377,c),
(891,246,o),
(739,135,o),
(625,135,cs),
(449,135,o),
(338,248,o),
(338,463,cs),
(338,893,o),
(891,1421,o),
(1253,1421,cs),
(1393,1421,o),
(1503,1343,o),
(1544,1151,c),
(1597,1165,o),
(1716,1260,o),
(1716,1321,cs),
(1716,1470,o),
(1417,1518,o),
(1313,1518,cs),
(735,1518,o),
(80,895,o),
(80,328,cs),
(80,78,o),
(180,-57,o),
(422,-57,cs)
);
},
{
closed = 0;
nodes = (
(1897,821,ls)
);
},
{
closed = 1;
nodes = (
(1631,1083,o),
(1604,1067,o),
(1604,1004,cs),
(1604,961,o),
(1651,963,o),
(1661,963,cs),
(1917,981,o),
(1962,981,o),
(2007,981,cs),
(2050,981,o),
(2098,979,o),
(2145,979,cs),
(2198,979,o),
(2245,1038,o),
(2245,1075,cs),
(2245,1108,o),
(2149,1116,o),
(2036,1116,cs),
(1866,1116,o),
(1682,1098,o),
(1653,1090,cs)
);
}
);
};
layerId = m001;
shapes = (
{
ref = A;
},
{
pos = (885,678);
ref = macroncomb;
}
);
width = 1391;
}
);
unicode = 256;
},
{
glyphname = Aogonek;
lastChange = "2023-08-03 09:40:13 +0000";
layers = (
{
background = {
shapes = (
{
closed = 0;
nodes = (
(1313,1518,ls)
);
},
{
closed = 1;
nodes = (
(563,-57,o),
(752,45,o),
(895,193,c),
(885,61,o),
(899,-57,o),
(1022,-57,cs),
(1176,-57,o),
(1319,127,o),
(1513,330,c),
(1513,442,l),
(1233,170,o),
(1231,166,o),
(1157,166,cs),
(1098,166,o),
(1118,272,o),
(1141,385,c),
(1161,489,o),
(1260,999,o),
(1343,1223,c),
(1346,1227,o),
(1346,1233,o),
(1346,1239,cs),
(1346,1264,o),
(1339,1272,o),
(1319,1272,cs),
(1262,1272,o),
(1130,1270,o),
(1112,1210,c),
(1077,1106,o),
(942,516,o),
(915,377,c),
(891,246,o),
(739,135,o),
(625,135,cs),
(449,135,o),
(338,248,o),
(338,463,cs),
(338,893,o),
(891,1421,o),
(1253,1421,cs),
(1393,1421,o),
(1503,1343,o),
(1544,1151,c),
(1597,1165,o),
(1716,1260,o),
(1716,1321,cs),
(1716,1470,o),
(1417,1518,o),
(1313,1518,cs),
(735,1518,o),
(80,895,o),
(80,328,cs),
(80,78,o),
(180,-57,o),
(422,-57,cs)
);
},
{
closed = 0;
nodes = (
(2139,0,ls)
);
},
{
closed = 1;
nodes = (
(2270,-442,l),
(2259,-442,o),
(2028,-422,o),
(2028,-254,cs),
(2028,-84,o),
(2274,0,o),
(2276,0,cs),
(2128,0,l),
(2114,-14,o),
(1878,-88,o),
(1878,-295,cs),
(1878,-494,o),
(2077,-553,o),
(2194,-553,cs),
(2220,-553,o),
(2247,-551,o),
(2270,-547,c)
);
}
);
};
layerId = m001;
shapes = (
{
ref = A;
},
{
pos = (694,10);
ref = ogonekcomb;
}
);
width = 1391;
}
);
unicode = 260;
},
{
glyphname = Aring;
lastChange = "2023-08-03 09:40:13 +0000";
layers = (
{
background = {
shapes = (
{
closed = 0;
nodes = (
(1313,1518,ls)
);
},
{
closed = 1;
nodes = (
(563,-57,o),
(752,45,o),
(895,193,c),
(885,61,o),
(899,-57,o),
(1022,-57,cs),
(1176,-57,o),
(1319,127,o),
(1513,330,c),
(1513,442,l),
(1233,170,o),
(1231,166,o),
(1157,166,cs),
(1098,166,o),
(1118,272,o),
(1141,385,c),
(1161,489,o),
(1260,999,o),
(1343,1223,c),
(1346,1227,o),
(1346,1233,o),
(1346,1239,cs),
(1346,1264,o),
(1339,1272,o),
(1319,1272,cs),
(1262,1272,o),
(1130,1270,o),
(1112,1210,c),
(1077,1106,o),
(942,516,o),
(915,377,c),
(891,246,o),
(739,135,o),
(625,135,cs),
(449,135,o),
(338,248,o),
(338,463,cs),
(338,893,o),
(891,1421,o),
(1253,1421,cs),
(1393,1421,o),
(1503,1343,o),
(1544,1151,c),
(1597,1165,o),
(1716,1260,o),
(1716,1321,cs),
(1716,1470,o),
(1417,1518,o),
(1313,1518,cs),
(735,1518,o),
(80,895,o),
(80,328,cs),
(80,78,o),
(180,-57,o),
(422,-57,cs)
);
},
{
closed = 0;
nodes = (
(1313,1518,ls)
);
},
{
closed = 1;
nodes = (
(1446,1932,o),
(1471,1887,o),
(1471,1835,cs),
(1471,1776,o),
(1428,1710,o),
(1354,1710,cs),
(1291,1710,o),
(1268,1757,o),
(1268,1805,cs),
(1268,1866,o),
(1307,1932,o),
(1381,1932,cs)
);
},
{
closed = 1;
nodes = (
(1545,1921,o),
(1491,1999,o),
(1385,1999,cs),
(1256,1999,o),
(1190,1899,o),
(1190,1803,cs),
(1190,1692,o),
(1272,1643,o),
(1350,1643,cs),
(1448,1643,o),
(1545,1717,o),
(1545,1839,cs)
);
}
);
};
layerId = m001;
shapes = (
{
ref = A;
},
{
pos = (1028,678);
ref = ringcomb;
}
);
width = 1391;
}
);
unicode = 197;
},
{
glyphname = Atilde;
lastChange = "2023-08-03 09:40:13 +0000";
layers = (
{
background = {
shapes = (
{
closed = 0;
nodes = (
(1313,1518,ls)
);
},
{
closed = 1;
nodes = (
(563,-57,o),
(752,45,o),
(895,193,c),
(885,61,o),
(899,-57,o),
(1022,-57,cs),
(1176,-57,o),
(1319,127,o),
(1513,330,c),
(1513,442,l),
(1233,170,o),
(1231,166,o),
(1157,166,cs),
(1098,166,o),
(1118,272,o),
(1141,385,c),
(1161,489,o),
(1260,999,o),
(1343,1223,c),
(1346,1227,o),
(1346,1233,o),
(1346,1239,cs),
(1346,1264,o),
(1339,1272,o),
(1319,1272,cs),
(1262,1272,o),
(1130,1270,o),
(1112,1210,c),
(1077,1106,o),
(942,516,o),
(915,377,c),
(891,246,o),
(739,135,o),
(625,135,cs),
(449,135,o),
(338,248,o),
(338,463,cs),
(338,893,o),
(891,1421,o),
(1253,1421,cs),
(1393,1421,o),
(1503,1343,o),
(1544,1151,c),
(1597,1165,o),
(1716,1260,o),
(1716,1321,cs),
(1716,1470,o),
(1417,1518,o),
(1313,1518,cs),
(735,1518,o),
(80,895,o),
(80,328,cs),
(80,78,o),
(180,-57,o),
(422,-57,cs)
);
},
{
closed = 0;
nodes = (
(1312,1518,ls)
);
},
{
closed = 1;
nodes = (
(1691,1674,l),
(1687,1686,o),
(1695,1895,o),
(1515,1895,cs),
(1417,1895,o),
(1294,1819,o),
(1212,1819,cs),
(1169,1819,o),
(1138,1837,o),
(1130,1901,c),
(1022,1880,l),
(1026,1868,o),
(1018,1659,o),
(1198,1659,cs),
(1306,1659,o),
(1417,1743,o),
(1491,1743,cs),
(1527,1743,o),
(1554,1721,o),
(1566,1655,c)
);
}
);
};
layerId = m001;
shapes = (
{
ref = A;
},
{
pos = (871,678);
ref = tildecomb;
}
);
width = 1391;
}
);
unicode = 195;
},
{
glyphname = AE;
lastChange = "2023-08-03 09:40:13 +0000";
layers = (
{
anchors = (
{
name = bottom;
pos = (939,0);
},
{
name = top;
pos = (939,1518);
}
);
background = {
shapes = (
{
closed = 1;
nodes = (
(1669,803,o),
(1599,805,o),
(1528,805,cs),
(1442,805,o),
(1362,801,o),
(1284,795,c),
(1348,995,o),
(1393,1196,o),
(1438,1356,c),
(1569,1350,o),
(1712,1311,o),
(1831,1311,cs),
(1866,1311,o),
(1894,1325,o),
(1925,1346,c),
(2025,1460,l),
(2038,1473,o),
(2044,1479,o),
(2044,1491,cs),
(2044,1516,o),
(1712,1518,o),
(1423,1518,cs),
(692,1518,o),
(80,895,o),
(80,328,cs),
(80,78,o),
(180,-57,o),
(422,-57,cs),
(561,-57,o),
(750,49,o),
(897,195,c),
(918,109,l),
(1352,-23,o),
(1348,-57,o),
(1368,-57,cs),
(1602,-57,o),
(1749,106,o),
(1999,328,c),
(1999,438,l),
(1704,129,o),
(1577,119,o),
(1554,119,cs),
(1491,119,o),
(1227,227,o),
(1186,240,c),
(1174,238,o),
(1159,238,o),
(1149,238,cs),
(1128,238,o),
(1110,240,o),
(1092,240,cs),
(1081,240,o),
(1069,238,o),
(1059,238,c),
(1133,360,o),
(1206,500,o),
(1249,657,c),
(1249,659,l),
(1389,670,o),
(1526,670,o),
(1683,670,cs),
(1737,670,o),
(1784,729,o),
(1784,766,cs),
(1784,784,o),
(1774,799,o),
(1747,799,c)
);
},
{
closed = 1;
nodes = (
(1151,1178,o),
(1085,967,o),
(1026,760,c),
(850,725,o),
(750,715,o),
(750,637,cs),
(750,600,o),
(782,594,o),
(799,594,cs),
(803,594,o),
(805,596,o),
(807,596,cs),
(870,610,o),
(932,623,o),
(989,631,c),
(942,461,o),
(901,315,o),
(877,279,c),
(877,276,l),
(809,197,o),
(705,135,o),
(625,135,cs),
(449,135,o),
(338,248,o),
(338,463,cs),
(338,891,o),
(889,1417,o),
(1358,1421,c),
(1317,1360,l),
(1280,1335,o),
(1241,1303,o),
(1212,1262,cs)
);
}
);
};
layerId = m001;
shapes = (
{
closed = 1;
nodes = (
(561,-57,o),
(750,49,o),
(897,195,c),
(918,109,l),
(1352,-23,o),
(1348,-57,o),
(1368,-57,cs),
(1602,-57,o),
(1749,106,o),
(1999,328,c),
(1999,438,l),
(1704,129,o),
(1577,119,o),
(1554,119,cs),
(1404,119,o),
(1250,273,o),
(1059,238,c),
(1133,360,o),
(1206,500,o),
(1249,657,c),
(1249,659,l),
(1389,670,o),
(1526,670,o),
(1683,670,cs),
(1737,670,o),
(1784,729,o),
(1784,766,cs),
(1784,784,o),
(1774,799,o),
(1747,799,c),
(1669,803,o),
(1599,805,o),
(1528,805,cs),
(1442,805,o),
(1362,801,o),
(1284,795,c),
(1348,995,o),
(1393,1196,o),
(1438,1356,c),
(1569,1350,o),
(1712,1311,o),
(1831,1311,cs),
(1866,1311,o),
(1894,1325,o),
(1925,1346,c),
(2025,1460,l),
(2038,1473,o),
(2044,1479,o),
(2044,1491,cs),
(2044,1516,o),
(1712,1518,o),
(1423,1518,cs),
(692,1518,o),
(80,895,o),
(80,328,cs),
(80,78,o),
(180,-57,o),
(422,-57,cs)
);
},
{
closed = 1;
nodes = (
(449,135,o),
(338,248,o),
(338,463,cs),
(338,891,o),
(889,1417,o),
(1358,1421,c),
(1317,1360,l),
(1280,1335,o),
(1241,1303,o),
(1212,1262,cs),
(1151,1178,o),
(1085,967,o),
(1026,760,c),
(850,725,o),
(750,715,o),
(750,637,cs),
(750,600,o),
(782,594,o),
(799,594,cs),
(803,594,o),
(805,596,o),
(807,596,cs),
(870,610,o),
(932,623,o),
(989,631,c),
(942,461,o),
(901,315,o),
(877,279,c),
(877,276,l),
(809,197,o),
(705,135,o),
(625,135,cs)
);
}
);
width = 1878;
}
);
unicode = 198;
},
{
glyphname = B;
lastChange = "2023-08-03 09:40:13 +0000";
layers = (
{
anchors = (
{
name = bottom;
pos = (834,0);
},
{
name = center;
pos = (834,759);
},
{
name = top;
pos = (834,1518);
}
);
background = {
shapes = (
{
closed = 1;
nodes = (
(440,688,o),
(457,764,o),
(457,834,c),
(344,874,o),
(295,936,o),
(295,1004,cs),
(295,1241,o),
(659,1391,o),
(893,1391,cs),
(1110,1391,o),
(1368,1346,o),
(1368,1106,cs),
(1368,973,o),
(1239,881,o),
(1059,872,c),
(1059,756,l),
(1200,678,o),
(1292,500,o),
(1292,346,cs),
(1292,211,o),
(1217,78,o),
(1030,78,cs),
(901,78,o),
(774,160,o),
(735,266,c),
(793,420,o),
(877,874,o),
(881,889,cs),
(918,1020,o),
(948,1249,o),
(948,1249,c),
(903,1249,o),
(729,1253,o),
(719,1192,c),
(612,625,ls),
(580,455,o),
(514,41,o),
(319,41,cs),
(215,41,o),
(209,135,o),
(209,213,cs),
(209,248,o),
(211,281,o),
(211,303,c),
(115,303,o),
(14,279,o),
(14,172,cs),
(14,14,o),
(180,-57,o),
(301,-57,cs),
(428,-57,o),
(541,-16,o),
(674,156,c),
(758,14,o),
(887,-57,o),
(1094,-57,cs),
(1352,-57,o),
(1577,68,o),
(1577,328,cs),
(1577,489,o),
(1468,684,o),
(1196,823,c),
(1475,827,o),
(1546,1022,o),
(1546,1126,cs),
(1546,1401,o),
(1278,1518,o),
(977,1518,cs),
(543,1518,o),
(133,1307,o),
(133,987,cs),
(133,821,o),
(297,711,o),
(434,668,c)
);
}
);
};
layerId = m001;
shapes = (
{
closed = 1;
nodes = (
(428,-57,o),
(541,-16,o),
(674,156,c),
(758,14,o),
(887,-57,o),
(1094,-57,cs),
(1352,-57,o),
(1577,68,o),
(1577,328,cs),
(1577,489,o),
(1468,684,o),
(1196,823,c),
(1475,827,o),
(1546,1022,o),
(1546,1126,cs),
(1546,1401,o),
(1278,1518,o),
(977,1518,cs),
(543,1518,o),
(133,1307,o),
(133,987,cs),
(133,821,o),
(297,711,o),
(434,668,c),
(440,688,o),
(457,764,o),
(457,834,c),
(344,874,o),
(295,936,o),
(295,1004,cs),
(295,1241,o),
(659,1391,o),
(893,1391,cs),
(1110,1391,o),
(1368,1346,o),
(1368,1106,cs),
(1368,973,o),
(1239,881,o),
(1059,872,c),
(1059,756,l),
(1200,678,o),
(1292,500,o),
(1292,346,cs),
(1292,211,o),
(1217,78,o),
(1030,78,cs),
(901,78,o),
(774,160,o),
(735,266,c),
(793,420,o),
(877,874,o),
(881,889,cs),
(918,1020,o),
(948,1249,o),
(948,1249,c),
(903,1249,o),
(729,1253,o),
(719,1192,c),
(612,625,ls),
(580,455,o),
(514,41,o),
(319,41,cs),
(215,41,o),
(209,135,o),
(209,213,cs),
(209,248,o),
(211,281,o),
(211,303,c),
(115,303,o),
(14,279,o),
(14,172,cs),
(14,14,o),
(180,-57,o),
(301,-57,cs)
);
}
);
width = 1667;
}
);
unicode = 66;
},
{
glyphname = C;
lastChange = "2023-08-03 09:40:13 +0000";
layers = (
{
anchors = (
{
name = bottom;
pos = (634,0);
},
{
name = top;
pos = (1024,1518);
}
);
background = {
shapes = (
{
closed = 0;
nodes = (
(954,1518,ls)
);
},
{
closed = 1;
nodes = (
(1059,1417,o),
(1094,1149,o),
(1096,1149,c),
(1096,1044,o),
(741,965,o),
(741,881,cs),
(741,860,o),
(754,840,o),
(776,840,cs),
(782,840,o),
(791,842,o),
(799,846,cs),
(930,907,o),
(1147,1036,o),
(1278,1102,cs),
(1307,1116,o),
(1315,1143,o),
(1315,1178,cs),
(1315,1352,o),
(1159,1518,o),
(956,1518,cs),
(358,1518,o),
(82,958,o),
(82,561,cs),
(82,252,o),
(248,-57,o),
(616,-57,cs),
(874,-57,o),
(1145,96,o),
(1403,340,c),
(1403,451,l),
(1180,236,o),
(938,125,o),
(735,125,cs),
(483,125,o),
(297,299,o),
(297,659,cs),
(297,1004,o),
(547,1403,o),
(926,1417,c)
);
}
);
};
layerId = m001;
shapes = (
{
closed = 1;
nodes = (
(874,-57,o),
(1145,96,o),
(1403,340,c),
(1403,451,l),
(1180,236,o),
(938,125,o),
(735,125,cs),
(483,125,o),
(297,299,o),
(297,659,cs),
(297,1004,o),
(547,1403,o),
(926,1417,c),
(1059,1417,o),
(1094,1149,o),
(1096,1149,c),
(1096,1044,o),
(741,965,o),
(741,881,cs),
(741,860,o),
(754,840,o),
(776,840,cs),
(782,840,o),
(791,842,o),
(799,846,cs),
(930,907,o),
(1147,1036,o),
(1278,1102,cs),
(1307,1116,o),
(1315,1143,o),
(1315,1178,cs),
(1315,1352,o),
(1159,1518,o),
(956,1518,cs),
(358,1518,o),
(82,958,o),
(82,561,cs),
(82,252,o),
(248,-57,o),
(616,-57,cs)
);
}
);
userData = {
com.fontlab.hintData = {
hhints = (
{
position = -57;
width = 182;
},
{
position = 340;
width = 111;
},
{
position = 1417;
width = 101;
}
);
vhints = (
{
position = 82;
width = 215;
}
);
};
};
width = 1268;
}
);
unicode = 67;
},
{
glyphname = Cacute;
lastChange = "2023-08-03 09:40:13 +0000";
layers = (
{
background = {
shapes = (
{
closed = 0;
nodes = (
(954,1518,ls)
);
},
{
closed = 1;
nodes = (
(1059,1417,o),
(1094,1149,o),
(1096,1149,c),
(1096,1044,o),
(741,965,o),
(741,881,cs),
(741,860,o),
(754,840,o),
(776,840,cs),
(782,840,o),
(791,842,o),
(799,846,cs),
(930,907,o),
(1147,1036,o),
(1278,1102,cs),
(1307,1116,o),
(1315,1143,o),
(1315,1178,cs),
(1315,1352,o),
(1159,1518,o),
(956,1518,cs),
(358,1518,o),
(82,958,o),
(82,561,cs),
(82,252,o),
(248,-57,o),
(616,-57,cs),
(874,-57,o),
(1145,96,o),
(1403,340,c),
(1403,451,l),
(1180,236,o),
(938,125,o),
(735,125,cs),
(483,125,o),
(297,299,o),
(297,659,cs),
(297,1004,o),
(547,1403,o),
(926,1417,c)
);
},
{
closed = 0;
nodes = (
(2321,805,ls)
);
},
{
closed = 1;
nodes = (
(2663,1122,o),
(2667,1135,o),
(2667,1147,cs),
(2667,1186,o),
(2607,1249,o),
(2560,1249,c),
(2450,1243,o),
(2231,1079,o),
(2140,995,c),
(2163,940,l),
(2235,965,o),
(2405,1022,o),
(2560,1083,cs),
(2648,1118,l)
);
}
);
};
layerId = m001;
shapes = (
{
ref = C;
},
{
pos = (660,678);
ref = acutecomb;
}
);
width = 1268;
}
);
unicode = 262;
},
{
glyphname = Ccaron;
lastChange = "2023-08-03 09:40:13 +0000";
layers = (
{
background = {
shapes = (
{
closed = 0;
nodes = (
(954,1518,ls)
);
},
{
closed = 1;
nodes = (
(1059,1417,o),
(1094,1149,o),
(1096,1149,c),
(1096,1044,o),
(741,965,o),
(741,881,cs),
(741,860,o),
(754,840,o),
(776,840,cs),
(782,840,o),
(791,842,o),
(799,846,cs),
(930,907,o),
(1147,1036,o),
(1278,1102,cs),
(1307,1116,o),
(1315,1143,o),
(1315,1178,cs),
(1315,1352,o),
(1159,1518,o),
(956,1518,cs),
(358,1518,o),
(82,958,o),
(82,561,cs),
(82,252,o),
(248,-57,o),
(616,-57,cs),
(874,-57,o),
(1145,96,o),
(1403,340,c),
(1403,451,l),
(1180,236,o),
(938,125,o),
(735,125,cs),
(483,125,o),
(297,299,o),
(297,659,cs),
(297,1004,o),
(547,1403,o),
(926,1417,c)
);
},
{
closed = 0;
nodes = (
(2321,805,ls)
);
},
{
closed = 1;
nodes = (
(2583,1362,l),
(2583,1362,o),
(2450,1198,o),
(2362,1092,c),
(2317,1198,o),
(2247,1362,o),
(2247,1362,c),
(2134,1339,l),
(2136,1331,o),
(2261,944,o),
(2333,944,cs),
(2417,944,o),
(2591,1186,o),
(2679,1339,c)
);
}
);
};
layerId = m001;
shapes = (
{
ref = C;
},
{
pos = (651,678);
ref = caroncomb;
}
);
width = 1268;
}
);
unicode = 268;
},
{
glyphname = Ccedilla;
lastChange = "2023-08-03 09:40:13 +0000";
layers = (
{
background = {
shapes = (
{
closed = 0;
nodes = (
(954,1518,ls)
);
},
{
closed = 1;
nodes = (
(1059,1417,o),
(1094,1149,o),
(1096,1149,c),
(1096,1044,o),
(741,965,o),
(741,881,cs),
(741,860,o),
(754,840,o),
(776,840,cs),
(782,840,o),
(791,842,o),
(799,846,cs),
(930,907,o),
(1147,1036,o),
(1278,1102,cs),
(1307,1116,o),
(1315,1143,o),
(1315,1178,cs),
(1315,1352,o),
(1159,1518,o),
(956,1518,cs),
(358,1518,o),
(82,958,o),
(82,561,cs),
(82,252,o),
(248,-57,o),
(616,-57,cs),
(874,-57,o),
(1145,96,o),
(1403,340,c),
(1403,451,l),
(1180,236,o),
(938,125,o),
(735,125,cs),
(483,125,o),
(297,299,o),
(297,659,cs),
(297,1004,o),
(547,1403,o),
(926,1417,c)
);
},
{
closed = 0;
nodes = (
(616,0,ls)
);
},
{
closed = 1;
nodes = (
(524,0,o),
(477,-45,o),
(477,-90,cs),
(477,-123,o),
(502,-158,o),
(555,-174,c),
(555,-348,o),
(471,-430,o),
(471,-430,c),
(487,-492,l),
(653,-459,o),
(721,-201,o),
(721,-117,cs),
(721,-45,o),
(694,0,o),
(616,0,cs)
);
}
);
};
layerId = m001;
shapes = (
{
ref = C;
},
{
pos = (409,0);
ref = cedillacomb;
}
);
width = 1268;
}
);
unicode = 199;
},
{
glyphname = Cdotaccent;
lastChange = "2023-08-03 09:40:13 +0000";
layers = (
{
background = {
shapes = (
{
closed = 0;
nodes = (
(954,1518,ls)
);
},
{
closed = 1;
nodes = (
(1059,1417,o),
(1094,1149,o),
(1096,1149,c),
(1096,1044,o),
(741,965,o),
(741,881,cs),
(741,860,o),
(754,840,o),
(776,840,cs),
(782,840,o),
(791,842,o),
(799,846,cs),
(930,907,o),
(1147,1036,o),
(1278,1102,cs),
(1307,1116,o),
(1315,1143,o),
(1315,1178,cs),
(1315,1352,o),
(1159,1518,o),
(956,1518,cs),
(358,1518,o),
(82,958,o),
(82,561,cs),
(82,252,o),
(248,-57,o),
(616,-57,cs),
(874,-57,o),
(1145,96,o),
(1403,340,c),
(1403,451,l),
(1180,236,o),
(938,125,o),
(735,125,cs),
(483,125,o),
(297,299,o),
(297,659,cs),
(297,1004,o),
(547,1403,o),
(926,1417,c)
);
},
{
closed = 0;
nodes = (
(1620,817,ls)
);
},
{
closed = 1;
nodes = (
(1770,1044,o),
(1850,1133,o),
(1850,1202,cs),
(1850,1243,o),
(1817,1280,o),
(1739,1280,cs),
(1657,1280,o),
(1600,1190,o),
(1600,1122,cs),
(1600,1081,o),
(1622,1044,o),
(1678,1044,cs)
);
}
);
};
layerId = m001;
shapes = (
{
ref = C;
},
{
pos = (799,678);
ref = dotaccentcomb;
}
);
width = 1268;
}
);
unicode = 266;
},
{
glyphname = D;
lastChange = "2023-08-03 09:40:13 +0000";
layers = (
{
anchors = (
{
name = bottom;
pos = (863,0);
},
{
name = center;
pos = (863,759);
},
{
name = top;
pos = (1063,1518);
}
);
background = {
shapes = (
{
closed = 1;
nodes = (
(1425,334,o),
(1180,59,o),
(942,59,cs),
(825,59,o),
(694,145,o),
(655,264,c),
(829,623,o),
(831,934,o),
(885,1247,c),
(791,1247,ls),
(762,1247,o),
(674,1243,o),
(662,1208,c),
(543,594,l),
(475,311,o),
(416,182,o),
(397,143,c),
(367,76,o),
(315,41,o),
(264,41,cs),
(164,41,o),
(145,129,o),
(145,221,cs),
(145,260,o),
(152,293,o),
(152,326,c),
(51,326,o),
(-53,299,o),
(-53,184,cs),
(-53,74,o),
(53,-55,o),
(203,-55,cs),
(346,-55,o),
(471,-29,o),
(584,133,c),
(682,-2,o),
(813,-57,o),
(950,-57,cs),
(1368,-57,o),
(1683,342,o),
(1683,829,cs),
(1683,1139,o),
(1468,1518,o),
(971,1518,cs),
(346,1518,o),
(68,1243,o),
(68,1001,cs),
(68,866,o),
(160,737,o),
(367,672,c),
(377,690,o),
(393,768,o),
(393,834,c),
(276,879,o),
(229,944,o),
(229,1014,cs),
(229,1188,o),
(541,1393,o),
(840,1393,cs),
(1257,1393,o),
(1425,1094,o),
(1425,752,cs)
);
}
);
};
layerId = m001;
shapes = (
{
closed = 1;
nodes = (
(1368,-57,o),
(1683,342,o),
(1683,829,cs),
(1683,1139,o),
(1468,1518,o),
(971,1518,cs),
(346,1518,o),
(68,1243,o),
(68,1001,cs),
(68,866,o),
(160,737,o),
(367,672,c),
(377,690,o),
(393,768,o),
(393,834,c),
(276,879,o),
(229,944,o),
(229,1014,cs),
(229,1188,o),
(541,1393,o),
(840,1393,cs),
(1257,1393,o),
(1425,1094,o),
(1425,752,cs),
(1425,334,o),
(1180,59,o),
(942,59,cs),
(825,59,o),
(694,145,o),
(655,264,c),
(829,623,o),
(831,934,o),
(885,1247,c),
(791,1247,ls),
(762,1247,o),
(674,1243,o),
(662,1208,c),
(543,594,l),
(475,311,o),
(416,182,o),
(397,143,c),
(367,76,o),
(315,41,o),
(264,41,cs),
(164,41,o),
(145,129,o),
(145,221,cs),
(145,260,o),
(152,293,o),
(152,326,c),
(51,326,o),
(-53,299,o),
(-53,184,cs),
(-53,74,o),
(53,-55,o),
(203,-55,cs),
(346,-55,o),
(471,-29,o),
(584,133,c),
(682,-2,o),
(813,-57,o),
(950,-57,cs)
);
}
);
width = 1726;
}
);
unicode = 68;
},
{
glyphname = Dcaron;
lastChange = "2023-08-03 09:40:13 +0000";
layers = (
{
background = {
shapes = (
{
closed = 1;
nodes = (
(1425,334,o),
(1180,59,o),
(942,59,cs),
(825,59,o),
(694,145,o),
(655,264,c),
(829,623,o),
(831,934,o),
(885,1247,c),
(791,1247,ls),
(762,1247,o),
(674,1243,o),
(662,1208,c),
(543,594,l),
(475,311,o),
(416,182,o),
(397,143,c),
(367,76,o),
(315,41,o),
(264,41,cs),
(164,41,o),
(145,129,o),
(145,221,cs),
(145,260,o),
(152,293,o),
(152,326,c),
(51,326,o),
(-53,299,o),
(-53,184,cs),
(-53,74,o),
(53,-55,o),
(203,-55,cs),
(346,-55,o),
(471,-29,o),
(584,133,c),
(682,-2,o),
(813,-57,o),
(950,-57,cs),
(1368,-57,o),
(1683,342,o),
(1683,829,cs),
(1683,1139,o),
(1468,1518,o),
(971,1518,cs),
(346,1518,o),
(68,1243,o),
(68,1001,cs),
(68,866,o),
(160,737,o),
(367,672,c),
(377,690,o),
(393,768,o),
(393,834,c),
(276,879,o),
(229,944,o),
(229,1014,cs),
(229,1188,o),
(541,1393,o),
(840,1393,cs),
(1257,1393,o),
(1425,1094,o),
(1425,752,cs)
);
},
{
closed = 0;
nodes = (
(2779,805,ls)
);
},
{
closed = 1;
nodes = (
(3041,1362,l),
(3041,1362,o),
(2908,1198,o),
(2820,1092,c),
(2775,1198,o),
(2705,1362,o),
(2705,1362,c),
(2592,1339,l),
(2594,1331,o),
(2719,944,o),
(2791,944,cs),
(2875,944,o),
(3049,1186,o),
(3137,1339,c)
);
}
);
};
layerId = m001;
shapes = (
{
ref = D;
},
{
pos = (690,678);
ref = caroncomb;
}
);
width = 1726;
}
);
unicode = 270;
},
{
glyphname = Dcroat;
lastChange = "2023-08-03 09:40:13 +0000";
layers = (
{
background = {
shapes = (
{
closed = 1;
nodes = (
(408,625,o),
(381,608,o),
(381,545,cs),
(381,502,o),
(428,504,o),
(438,504,cs),
(522,510,l),
(463,285,o),
(414,178,o),
(397,143,c),
(367,76,o),
(315,41,o),
(264,41,cs),
(164,41,o),
(145,129,o),
(145,221,cs),
(145,260,o),
(152,293,o),
(152,326,c),
(51,326,o),
(-53,299,o),
(-53,184,cs),
(-53,74,o),
(53,-55,o),
(203,-55,cs),
(346,-55,o),
(471,-29,o),
(584,133,c),
(682,-2,o),
(813,-57,o),
(950,-57,cs),
(1368,-57,o),
(1683,342,o),
(1683,829,cs),
(1683,1139,o),
(1468,1518,o),
(971,1518,cs),
(346,1518,o),
(68,1243,o),
(68,1001,cs),
(68,866,o),
(160,737,o),
(367,672,c),
(377,690,o),
(393,768,o),
(393,834,c),
(276,879,o),
(229,944,o),
(229,1014,cs),
(229,1188,o),
(541,1393,o),
(840,1393,cs),
(1257,1393,o),
(1425,1094,o),
(1425,752,cs),
(1425,334,o),
(1180,59,o),
(942,59,cs),
(825,59,o),
(694,145,o),
(655,264,c),
(698,352,o),
(731,438,o),
(756,522,c),
(784,522,ls),
(827,522,o),
(874,520,o),
(922,520,cs),
(975,520,o),
(1022,580,o),
(1022,616,cs),
(1022,649,o),
(926,657,o),
(813,657,cs),
(791,657,l),
(838,860,o),
(852,1053,o),
(885,1247,c),
(791,1247,ls),
(762,1247,o),
(674,1243,o),
(662,1208,c),
(553,645,l),
(489,641,o),
(442,635,o),
(430,631,cs)
);
}
);
};
layerId = m001;
shapes = (
{
ref = Eth;
}
);
width = 1780;
}
);
unicode = 272;
},
{
glyphname = Eth;
lastChange = "2023-08-03 09:40:13 +0000";
layers = (
{
background = {
shapes = (
{
closed = 1;
nodes = (
(408,625,o),
(381,608,o),
(381,545,cs),
(381,502,o),
(428,504,o),
(438,504,cs),
(522,510,l),
(463,285,o),
(414,178,o),
(397,143,c),
(367,76,o),
(315,41,o),
(264,41,cs),
(164,41,o),
(145,129,o),
(145,221,cs),
(145,260,o),
(152,293,o),
(152,326,c),
(51,326,o),
(-53,299,o),
(-53,184,cs),
(-53,74,o),
(53,-55,o),
(203,-55,cs),
(346,-55,o),
(471,-29,o),
(584,133,c),
(682,-2,o),
(813,-57,o),
(950,-57,cs),
(1368,-57,o),
(1683,342,o),
(1683,829,cs),
(1683,1139,o),
(1468,1518,o),
(971,1518,cs),
(346,1518,o),
(68,1243,o),
(68,1001,cs),
(68,866,o),
(160,737,o),
(367,672,c),
(377,690,o),
(393,768,o),
(393,834,c),
(276,879,o),
(229,944,o),
(229,1014,cs),
(229,1188,o),
(541,1393,o),
(840,1393,cs),
(1257,1393,o),
(1425,1094,o),
(1425,752,cs),
(1425,334,o),
(1180,59,o),
(942,59,cs),
(825,59,o),
(694,145,o),
(655,264,c),
(698,352,o),
(731,438,o),
(756,522,c),
(784,522,ls),
(827,522,o),
(874,520,o),
(922,520,cs),
(975,520,o),
(1022,580,o),
(1022,616,cs),
(1022,649,o),
(926,657,o),
(813,657,cs),
(791,657,l),
(838,860,o),
(852,1053,o),
(885,1247,c),
(791,1247,ls),
(762,1247,o),
(674,1243,o),
(662,1208,c),
(553,645,l),
(489,641,o),
(442,635,o),
(430,631,cs)
);
}
);
};
layerId = m001;
shapes = (
{
closed = 1;
nodes = (
(1368,-57,o),
(1683,342,o),
(1683,829,cs),
(1683,1139,o),
(1468,1518,o),
(971,1518,cs),
(346,1518,o),
(68,1243,o),
(68,1001,cs),
(68,866,o),
(160,737,o),
(367,672,c),
(377,690,o),
(393,768,o),
(393,834,c),
(276,879,o),
(229,944,o),
(229,1014,cs),
(229,1188,o),
(541,1393,o),
(840,1393,cs),
(1257,1393,o),
(1425,1094,o),
(1425,752,cs),
(1425,334,o),
(1180,59,o),
(942,59,cs),
(825,59,o),
(694,145,o),
(655,264,c),
(698,352,o),
(731,438,o),
(756,522,c),
(784,522,ls),
(827,522,o),
(874,520,o),
(922,520,cs),
(975,520,o),
(1022,580,o),
(1022,616,cs),
(1022,649,o),
(926,657,o),
(813,657,cs),
(791,657,l),
(838,860,o),
(852,1053,o),
(885,1247,c),
(791,1247,ls),
(762,1247,o),
(674,1243,o),
(662,1208,c),
(553,645,l),
(489,641,o),
(442,635,o),
(430,631,cs),
(408,625,o),
(381,608,o),
(381,545,cs),
(381,502,o),
(428,504,o),
(438,504,cs),
(522,510,l),
(463,285,o),
(414,178,o),
(397,143,c),
(367,76,o),
(315,41,o),
(264,41,cs),
(164,41,o),
(145,129,o),
(145,221,cs),
(145,260,o),
(152,293,o),
(152,326,c),
(51,326,o),
(-53,299,o),
(-53,184,cs),
(-53,74,o),
(53,-55,o),
(203,-55,cs),
(346,-55,o),
(471,-29,o),
(584,133,c),
(682,-2,o),
(813,-57,o),
(950,-57,cs)
);
}
);
width = 1780;
}
);
unicode = 208;
},
{
glyphname = E;
lastChange = "2023-08-03 09:40:13 +0000";
layers = (
{
anchors = (
{
name = bottom;
pos = (702,0);
},
{
name = ogonek;
pos = (1133,10);
},
{
name = top;
pos = (1002,1518);
},
{
name = topleft;
pos = (20,1518);
}
);
background = {
shapes = (
{
closed = 0;
nodes = (
(948,1518,ls)
);
},
{
closed = 1;
nodes = (
(1193.9,799,o),
(1124,805,o),
(1053,805,cs),
(967,805,o),
(887,801,o),
(809,795,c),
(872,995,o),
(918,1196,o),
(963,1356,c),
(1094,1350,o),
(1237,1311,o),
(1356,1311,cs),
(1391,1311,o),
(1419,1325,o),
(1450,1346,c),
(1550,1460,l),
(1563,1473,o),
(1569,1479,o),
(1569,1491,cs),
(1569,1516,o),
(1237,1518,o),
(948,1518,cs),
(657,1518,ls),
(248,1518,o),
(2,1356,o),
(2,1120,cs),
(2,1012,o),
(106,899,o),
(317,825,c),
(332,838,o),
(346,907,o),
(346,952,c),
(219,999,o),
(150,1069,o),
(150,1143,cs),
(150,1276,o),
(287,1368,o),
(635,1368,cs),
(696,1368,o),
(766,1366,o),
(842,1360,c),
(675.837,1247.73,o),
(634.477,1052.88,o),
(551,760,c),
(446,739,o),
(369.701,716.781,o),
(326,702,cs),
(301.701,693.781,o),
(274,686,o),
(274,637,cs),
(274,555.044,o),
(468.703,624.643,o),
(514,631,c),
(467,461,o),
(426,315,o),
(401,279,c),
(145,162,l),
(102,141,o),
(-8,106,o),
(-8,43,cs),
(-8,-45,o),
(86,-57,o),
(100,-57,cs),
(193,-57,o),
(330,20,o),
(442,109,c),
(877,-23,o),
(872,-57,o),
(893,-57,cs),
(1126,-57,o),
(1274,106,o),
(1524,328,c),
(1524,438,l),
(1389,297,o),
(1194,150,o),
(1163,145,c),
(1128,127,o),
(1106,119,o),
(1079,119,cs),
(1016,119,o),
(752,227,o),
(711,240,c),
(698,238,o),
(684,238,o),
(674,238,cs),
(653,238,o),
(635,240,o),
(616,240,cs),
(606,240,o),
(594,238,o),
(584,238,c),
(657,360,o),
(731,500,o),
(774,657,c),
(774,659,l),
(913,670,o),
(1051,670,o),
(1208,670,cs),
(1262,670,o),
(1309,729,o),
(1309,766,cs),
(1309,784,o),
(1298,799,o),
(1272,799,cs)
);
}
);
};
layerId = m001;
shapes = (
{
closed = 1;
nodes = (
(193,-57,o),
(330,20,o),
(442,109,c),
(877,-23,o),
(872,-57,o),
(893,-57,cs),
(1126,-57,o),
(1274,106,o),
(1524,328,c),
(1524,438,l),
(1389,297,o),
(1194,150,o),
(1163,145,c),
(1128,127,o),
(1106,119,o),
(1079,119,cs),
(1016,119,o),
(752,227,o),
(711,240,c),
(698,238,o),
(684,238,o),
(674,238,cs),
(653,238,o),
(635,240,o),
(616,240,cs),
(606,240,o),
(594,238,o),
(584,238,c),
(657,360,o),
(731,500,o),
(774,657,c),
(774,659,l),
(913,670,o),
(1051,670,o),
(1208,670,cs),
(1262,670,o),
(1309,729,o),
(1309,766,cs),
(1309,784,o),
(1298,799,o),
(1272,799,cs),
(1194,799,o),
(1124,805,o),
(1053,805,cs),
(967,805,o),
(887,801,o),
(809,795,c),
(872,995,o),
(918,1196,o),
(963,1356,c),
(1094,1350,o),
(1237,1311,o),
(1356,1311,cs),
(1391,1311,o),
(1419,1325,o),
(1450,1346,c),
(1550,1460,l),
(1563,1473,o),
(1569,1479,o),
(1569,1491,cs),
(1569,1516,o),
(1237,1518,o),
(948,1518,cs),
(657,1518,ls),
(248,1518,o),
(2,1356,o),
(2,1120,cs),
(2,1012,o),
(106,899,o),
(317,825,c),
(332,838,o),
(346,907,o),
(346,952,c),
(219,999,o),
(150,1069,o),
(150,1143,cs),
(150,1276,o),
(287,1368,o),
(635,1368,cs),
(696,1368,o),
(766,1366,o),
(842,1360,c),
(676,1248,o),
(634,1053,o),
(551,760,c),
(446,739,o),
(370,717,o),
(326,702,cs),
(302,694,o),
(274,686,o),
(274,637,cs),
(274,555,o),
(469,625,o),
(514,631,c),
(467,461,o),
(426,315,o),
(401,279,c),
(145,162,l),
(102,141,o),
(-8,106,o),
(-8,43,cs),
(-8,-45,o),
(86,-57,o),
(100,-57,cs)
);
}
);
userData = {
com.fontlab.hintData = {
hhints = (
{
position = -57;
width = 219;
},
{
position = -57;
width = 176;
},
{
position = 670;
width = 135;
},
{
position = 1368;
width = 150;
}
);
vhints = (
{
position = 2;
width = 148;
}
);
};
};
width = 1403;
}
);
unicode = 69;
},
{
glyphname = Eacute;
lastChange = "2023-08-03 09:40:13 +0000";
layers = (
{
background = {
shapes = (
{
closed = 0;
nodes = (
(948,1518,ls)
);
},
{
closed = 1;
nodes = (
(1193.9,799,o),
(1124,805,o),
(1053,805,cs),
(967,805,o),
(887,801,o),
(809,795,c),
(872,995,o),
(918,1196,o),
(963,1356,c),
(1094,1350,o),
(1237,1311,o),
(1356,1311,cs),
(1391,1311,o),
(1419,1325,o),
(1450,1346,c),
(1550,1460,l),
(1563,1473,o),
(1569,1479,o),
(1569,1491,cs),
(1569,1516,o),
(1237,1518,o),
(948,1518,cs),
(657,1518,ls),
(248,1518,o),
(2,1356,o),
(2,1120,cs),
(2,1012,o),
(106,899,o),
(317,825,c),
(332,838,o),
(346,907,o),
(346,952,c),
(219,999,o),
(150,1069,o),
(150,1143,cs),
(150,1276,o),
(287,1368,o),
(635,1368,cs),
(696,1368,o),
(766,1366,o),
(842,1360,c),
(675.837,1247.73,o),
(634.477,1052.88,o),
(551,760,c),
(446,739,o),
(369.701,716.781,o),
(326,702,cs),
(301.701,693.781,o),
(274,686,o),
(274,637,cs),
(274,555.044,o),
(468.703,624.643,o),
(514,631,c),
(467,461,o),
(426,315,o),
(401,279,c),
(145,162,l),
(102,141,o),
(-8,106,o),
(-8,43,cs),
(-8,-45,o),
(86,-57,o),
(100,-57,cs),
(193,-57,o),
(330,20,o),
(442,109,c),
(877,-23,o),
(872,-57,o),
(893,-57,cs),
(1126,-57,o),
(1274,106,o),
(1524,328,c),
(1524,438,l),
(1389,297,o),
(1194,150,o),
(1163,145,c),
(1128,127,o),
(1106,119,o),
(1079,119,cs),
(1016,119,o),
(752,227,o),
(711,240,c),
(698,238,o),
(684,238,o),
(674,238,cs),
(653,238,o),
(635,240,o),
(616,240,cs),
(606,240,o),
(594,238,o),
(584,238,c),
(657,360,o),
(731,500,o),
(774,657,c),
(774,659,l),
(913,670,o),
(1051,670,o),
(1208,670,cs),
(1262,670,o),
(1309,729,o),
(1309,766,cs),
(1309,784,o),
(1298,799,o),
(1272,799,cs)
);
},
{
closed = 0;
nodes = (
(949,1518,ls)
);
},
{
closed = 1;
nodes = (
(1291,1835,o),
(1295,1848,o),
(1295,1860,cs),
(1295,1899,o),
(1235,1962,o),
(1188,1962,c),
(1078,1956,o),
(859,1792,o),
(768,1708,c),
(791,1653,l),
(863,1678,o),
(1033,1735,o),
(1188,1796,cs),
(1276,1831,l)
);
}
);
};
layerId = m001;
shapes = (
{
ref = E;
},
{
pos = (638,678);
ref = acutecomb;
}
);
width = 1403;
}
);
unicode = 201;
},
{
glyphname = Ecaron;
lastChange = "2023-08-03 09:40:13 +0000";
layers = (
{
background = {
shapes = (
{
closed = 0;
nodes = (
(948,1518,ls)
);
},
{
closed = 1;
nodes = (
(1193.9,799,o),
(1124,805,o),
(1053,805,cs),
(967,805,o),
(887,801,o),
(809,795,c),
(872,995,o),
(918,1196,o),
(963,1356,c),
(1094,1350,o),
(1237,1311,o),
(1356,1311,cs),
(1391,1311,o),
(1419,1325,o),
(1450,1346,c),
(1550,1460,l),
(1563,1473,o),
(1569,1479,o),
(1569,1491,cs),
(1569,1516,o),
(1237,1518,o),
(948,1518,cs),
(657,1518,ls),
(248,1518,o),
(2,1356,o),
(2,1120,cs),
(2,1012,o),
(106,899,o),
(317,825,c),
(332,838,o),
(346,907,o),
(346,952,c),
(219,999,o),
(150,1069,o),
(150,1143,cs),
(150,1276,o),
(287,1368,o),
(635,1368,cs),
(696,1368,o),
(766,1366,o),
(842,1360,c),
(675.837,1247.73,o),
(634.477,1052.88,o),
(551,760,c),
(446,739,o),
(369.701,716.781,o),
(326,702,cs),
(301.701,693.781,o),
(274,686,o),
(274,637,cs),
(274,555.044,o),
(468.703,624.643,o),
(514,631,c),
(467,461,o),
(426,315,o),
(401,279,c),
(145,162,l),
(102,141,o),
(-8,106,o),
(-8,43,cs),
(-8,-45,o),
(86,-57,o),
(100,-57,cs),
(193,-57,o),
(330,20,o),
(442,109,c),
(877,-23,o),
(872,-57,o),
(893,-57,cs),
(1126,-57,o),
(1274,106,o),
(1524,328,c),
(1524,438,l),
(1389,297,o),
(1194,150,o),
(1163,145,c),
(1128,127,o),
(1106,119,o),
(1079,119,cs),
(1016,119,o),
(752,227,o),
(711,240,c),
(698,238,o),
(684,238,o),
(674,238,cs),
(653,238,o),
(635,240,o),
(616,240,cs),
(606,240,o),
(594,238,o),
(584,238,c),
(657,360,o),
(731,500,o),
(774,657,c),
(774,659,l),
(913,670,o),
(1051,670,o),
(1208,670,cs),
(1262,670,o),
(1309,729,o),
(1309,766,cs),
(1309,784,o),
(1298,799,o),
(1272,799,cs)
);
},
{
closed = 0;
nodes = (
(2456,805,ls)
);
},
{
closed = 1;
nodes = (
(2718,1362,l),
(2718,1362,o),
(2585,1198,o),
(2497,1092,c),
(2452,1198,o),
(2382,1362,o),
(2382,1362,c),
(2269,1339,l),
(2271,1331,o),
(2396,944,o),
(2468,944,cs),
(2552,944,o),
(2726,1186,o),
(2814,1339,c)
);
}
);
};
layerId = m001;
shapes = (
{
ref = E;
},
{
pos = (629,678);
ref = caroncomb;
}
);
width = 1403;
}
);
unicode = 282;
},
{
glyphname = Ecircumflex;
lastChange = "2023-08-03 09:40:13 +0000";
layers = (
{
background = {
shapes = (
{
closed = 0;
nodes = (
(948,1518,ls)
);
},
{
closed = 1;
nodes = (
(1193.9,799,o),
(1124,805,o),
(1053,805,cs),
(967,805,o),
(887,801,o),
(809,795,c),
(872,995,o),
(918,1196,o),
(963,1356,c),
(1094,1350,o),
(1237,1311,o),
(1356,1311,cs),
(1391,1311,o),
(1419,1325,o),
(1450,1346,c),
(1550,1460,l),
(1563,1473,o),
(1569,1479,o),
(1569,1491,cs),
(1569,1516,o),
(1237,1518,o),
(948,1518,cs),
(657,1518,ls),
(248,1518,o),
(2,1356,o),
(2,1120,cs),
(2,1012,o),
(106,899,o),
(317,825,c),
(332,838,o),
(346,907,o),
(346,952,c),
(219,999,o),
(150,1069,o),
(150,1143,cs),
(150,1276,o),
(287,1368,o),
(635,1368,cs),
(696,1368,o),
(766,1366,o),
(842,1360,c),
(675.837,1247.73,o),
(634.477,1052.88,o),
(551,760,c),
(446,739,o),
(369.701,716.781,o),
(326,702,cs),
(301.701,693.781,o),
(274,686,o),
(274,637,cs),
(274,555.044,o),
(468.703,624.643,o),
(514,631,c),
(467,461,o),
(426,315,o),
(401,279,c),
(145,162,l),
(102,141,o),
(-8,106,o),
(-8,43,cs),
(-8,-45,o),
(86,-57,o),
(100,-57,cs),
(193,-57,o),
(330,20,o),
(442,109,c),
(877,-23,o),
(872,-57,o),
(893,-57,cs),
(1126,-57,o),
(1274,106,o),
(1524,328,c),
(1524,438,l),
(1389,297,o),
(1194,150,o),
(1163,145,c),
(1128,127,o),
(1106,119,o),
(1079,119,cs),
(1016,119,o),
(752,227,o),
(711,240,c),
(698,238,o),
(684,238,o),
(674,238,cs),
(653,238,o),
(635,240,o),
(616,240,cs),
(606,240,o),
(594,238,o),
(584,238,c),
(657,360,o),
(731,500,o),
(774,657,c),
(774,659,l),
(913,670,o),
(1051,670,o),
(1208,670,cs),
(1262,670,o),
(1309,729,o),
(1309,766,cs),
(1309,784,o),
(1298,799,o),
(1272,799,cs)
);
},
{
closed = 0;
nodes = (
(949,1518,ls)
);
},
{
closed = 1;
nodes = (
(801,1700,o),
(912,1821,o),
(1016,1927,c),
(1078,1821,o),
(1141,1700,o),
(1172,1657,c),
(1244,1698,l),
(1242,1706,o),
(1110,2095,o),
(1045,2095,cs),
(961,2095,o),
(783,1854,o),
(695,1700,c),
(754,1657,l)
);
}
);
};
layerId = m001;
shapes = (
{
ref = E;
},
{
pos = (597,708);
ref = circumflexcomb;
}
);
width = 1403;
}
);
unicode = 202;
},
{
glyphname = Edieresis;
lastChange = "2023-08-03 09:40:13 +0000";
layers = (
{
background = {
shapes = (
{
closed = 0;
nodes = (
(948,1518,ls)
);
},
{
closed = 1;
nodes = (
(1193.9,799,o),
(1124,805,o),
(1053,805,cs),
(967,805,o),
(887,801,o),
(809,795,c),
(872,995,o),
(918,1196,o),
(963,1356,c),
(1094,1350,o),
(1237,1311,o),
(1356,1311,cs),
(1391,1311,o),
(1419,1325,o),
(1450,1346,c),
(1550,1460,l),
(1563,1473,o),
(1569,1479,o),
(1569,1491,cs),
(1569,1516,o),
(1237,1518,o),
(948,1518,cs),
(657,1518,ls),
(248,1518,o),
(2,1356,o),
(2,1120,cs),
(2,1012,o),
(106,899,o),
(317,825,c),
(332,838,o),
(346,907,o),
(346,952,c),
(219,999,o),
(150,1069,o),
(150,1143,cs),
(150,1276,o),
(287,1368,o),
(635,1368,cs),
(696,1368,o),
(766,1366,o),
(842,1360,c),
(675.837,1247.73,o),
(634.477,1052.88,o),
(551,760,c),
(446,739,o),
(369.701,716.781,o),
(326,702,cs),
(301.701,693.781,o),
(274,686,o),
(274,637,cs),
(274,555.044,o),
(468.703,624.643,o),
(514,631,c),
(467,461,o),
(426,315,o),
(401,279,c),
(145,162,l),
(102,141,o),
(-8,106,o),
(-8,43,cs),
(-8,-45,o),
(86,-57,o),
(100,-57,cs),
(193,-57,o),
(330,20,o),
(442,109,c),
(877,-23,o),
(872,-57,o),
(893,-57,cs),
(1126,-57,o),
(1274,106,o),
(1524,328,c),
(1524,438,l),
(1389,297,o),
(1194,150,o),
(1163,145,c),
(1128,127,o),
(1106,119,o),
(1079,119,cs),
(1016,119,o),
(752,227,o),
(711,240,c),
(698,238,o),
(684,238,o),
(674,238,cs),
(653,238,o),
(635,240,o),
(616,240,cs),
(606,240,o),
(594,238,o),
(584,238,c),
(657,360,o),
(731,500,o),
(774,657,c),
(774,659,l),
(913,670,o),
(1051,670,o),
(1208,670,cs),
(1262,670,o),
(1309,729,o),
(1309,766,cs),
(1309,784,o),
(1298,799,o),
(1272,799,cs)
);
},
{
closed = 0;
nodes = (
(948,1518,ls)
);
},
{
closed = 1;
nodes = (
(802,1662,o),
(882,1751,o),
(882,1820,cs),
(882,1861,o),
(849,1898,o),
(771,1898,cs),
(689,1898,o),
(632,1808,o),
(632,1740,cs),
(632,1699,o),
(654,1662,o),
(710,1662,cs)
);
},
{
closed = 1;
nodes = (
(1286,1662,o),
(1364,1751,o),
(1364,1820,cs),
(1364,1861,o),
(1333,1898,o),
(1253,1898,cs),
(1173,1898,o),
(1114,1808,o),
(1114,1740,cs),
(1114,1699,o),
(1136,1662,o),
(1194,1662,cs)
);
}
);
};
layerId = m001;
shapes = (
{
ref = E;
},
{
pos = (536,708);
ref = dieresiscomb;
}
);
width = 1403;
}
);
unicode = 203;
},
{
glyphname = Edotaccent;
lastChange = "2023-08-03 09:40:13 +0000";
layers = (
{
background = {
shapes = (
{
closed = 0;
nodes = (
(948,1518,ls)
);
},
{
closed = 1;
nodes = (
(1193.9,799,o),
(1124,805,o),
(1053,805,cs),
(967,805,o),
(887,801,o),
(809,795,c),
(872,995,o),
(918,1196,o),
(963,1356,c),
(1094,1350,o),
(1237,1311,o),
(1356,1311,cs),
(1391,1311,o),
(1419,1325,o),
(1450,1346,c),
(1550,1460,l),
(1563,1473,o),
(1569,1479,o),
(1569,1491,cs),
(1569,1516,o),
(1237,1518,o),
(948,1518,cs),
(657,1518,ls),
(248,1518,o),
(2,1356,o),
(2,1120,cs),
(2,1012,o),
(106,899,o),
(317,825,c),
(332,838,o),
(346,907,o),
(346,952,c),
(219,999,o),
(150,1069,o),
(150,1143,cs),
(150,1276,o),
(287,1368,o),
(635,1368,cs),
(696,1368,o),
(766,1366,o),
(842,1360,c),
(675.837,1247.73,o),
(634.477,1052.88,o),
(551,760,c),
(446,739,o),
(369.701,716.781,o),
(326,702,cs),
(301.701,693.781,o),
(274,686,o),
(274,637,cs),
(274,555.044,o),
(468.703,624.643,o),
(514,631,c),
(467,461,o),
(426,315,o),
(401,279,c),
(145,162,l),
(102,141,o),
(-8,106,o),
(-8,43,cs),
(-8,-45,o),
(86,-57,o),
(100,-57,cs),
(193,-57,o),
(330,20,o),
(442,109,c),
(877,-23,o),
(872,-57,o),
(893,-57,cs),
(1126,-57,o),
(1274,106,o),
(1524,328,c),
(1524,438,l),
(1389,297,o),
(1194,150,o),
(1163,145,c),
(1128,127,o),
(1106,119,o),
(1079,119,cs),
(1016,119,o),
(752,227,o),
(711,240,c),
(698,238,o),
(684,238,o),
(674,238,cs),
(653,238,o),
(635,240,o),
(616,240,cs),
(606,240,o),
(594,238,o),
(584,238,c),
(657,360,o),
(731,500,o),
(774,657,c),
(774,659,l),
(913,670,o),
(1051,670,o),
(1208,670,cs),
(1262,670,o),
(1309,729,o),
(1309,766,cs),
(1309,784,o),
(1298,799,o),
(1272,799,cs)
);
},
{
closed = 0;
nodes = (
(1755,817,ls)
);
},
{
closed = 1;
nodes = (
(1905,1044,o),
(1985,1133,o),
(1985,1202,cs),
(1985,1243,o),
(1952,1280,o),
(1874,1280,cs),
(1792,1280,o),
(1735,1190,o),
(1735,1122,cs),
(1735,1081,o),
(1757,1044,o),
(1813,1044,cs)
);
}
);
};
layerId = m001;
shapes = (
{
ref = E;
},
{
pos = (777,678);
ref = dotaccentcomb;
}
);
width = 1403;
}
);
unicode = 278;
},
{
glyphname = Egrave;
lastChange = "2023-08-03 09:40:13 +0000";
layers = (
{
background = {
shapes = (
{
closed = 0;
nodes = (
(948,1518,ls)
);
},
{
closed = 1;
nodes = (
(1193.9,799,o),
(1124,805,o),
(1053,805,cs),
(967,805,o),
(887,801,o),
(809,795,c),
(872,995,o),
(918,1196,o),
(963,1356,c),
(1094,1350,o),
(1237,1311,o),
(1356,1311,cs),
(1391,1311,o),
(1419,1325,o),
(1450,1346,c),
(1550,1460,l),
(1563,1473,o),
(1569,1479,o),
(1569,1491,cs),
(1569,1516,o),
(1237,1518,o),
(948,1518,cs),
(657,1518,ls),
(248,1518,o),
(2,1356,o),
(2,1120,cs),
(2,1012,o),
(106,899,o),
(317,825,c),
(332,838,o),
(346,907,o),
(346,952,c),
(219,999,o),
(150,1069,o),
(150,1143,cs),
(150,1276,o),
(287,1368,o),
(635,1368,cs),
(696,1368,o),
(766,1366,o),
(842,1360,c),
(675.837,1247.73,o),
(634.477,1052.88,o),
(551,760,c),
(446,739,o),
(369.701,716.781,o),
(326,702,cs),
(301.701,693.781,o),
(274,686,o),
(274,637,cs),
(274,555.044,o),
(468.703,624.643,o),
(514,631,c),
(467,461,o),
(426,315,o),
(401,279,c),
(145,162,l),
(102,141,o),
(-8,106,o),
(-8,43,cs),
(-8,-45,o),
(86,-57,o),
(100,-57,cs),
(193,-57,o),
(330,20,o),
(442,109,c),
(877,-23,o),
(872,-57,o),
(893,-57,cs),
(1126,-57,o),
(1274,106,o),
(1524,328,c),
(1524,438,l),
(1389,297,o),
(1194,150,o),
(1163,145,c),
(1128,127,o),
(1106,119,o),
(1079,119,cs),
(1016,119,o),
(752,227,o),
(711,240,c),
(698,238,o),
(684,238,o),
(674,238,cs),
(653,238,o),
(635,240,o),
(616,240,cs),
(606,240,o),
(594,238,o),
(584,238,c),
(657,360,o),
(731,500,o),
(774,657,c),
(774,659,l),
(913,670,o),
(1051,670,o),
(1208,670,cs),
(1262,670,o),
(1309,729,o),
(1309,766,cs),
(1309,784,o),
(1298,799,o),
(1272,799,cs)
);
},
{
closed = 0;
nodes = (
(949,1518,ls)
);
},
{
closed = 1;
nodes = (
(840,1735,o),
(1010,1678,o),
(1082,1653,c),
(1104,1708,l),
(1014,1792,o),
(795,1956,o),
(684,1962,c),
(637,1962,o),
(578,1899,o),
(578,1860,cs),
(578,1848,o),
(582,1835,o),
(596,1831,c),
(684,1796,ls)
);
}
);
};
layerId = m001;
shapes = (
{
ref = E;
},
{
pos = (639,708);
ref = gravecomb;
}
);
width = 1403;
}
);
unicode = 200;
},
{
glyphname = Emacron;
lastChange = "2023-08-03 09:40:13 +0000";
layers = (
{
background = {
shapes = (
{
closed = 0;
nodes = (
(948,1518,ls)
);
},
{
closed = 1;
nodes = (
(1193.9,799,o),
(1124,805,o),
(1053,805,cs),
(967,805,o),
(887,801,o),
(809,795,c),
(872,995,o),
(918,1196,o),
(963,1356,c),
(1094,1350,o),
(1237,1311,o),
(1356,1311,cs),
(1391,1311,o),
(1419,1325,o),
(1450,1346,c),
(1550,1460,l),
(1563,1473,o),
(1569,1479,o),
(1569,1491,cs),
(1569,1516,o),
(1237,1518,o),
(948,1518,cs),
(657,1518,ls),
(248,1518,o),
(2,1356,o),
(2,1120,cs),
(2,1012,o),
(106,899,o),
(317,825,c),
(332,838,o),
(346,907,o),
(346,952,c),
(219,999,o),
(150,1069,o),
(150,1143,cs),
(150,1276,o),
(287,1368,o),
(635,1368,cs),
(696,1368,o),
(766,1366,o),
(842,1360,c),
(675.837,1247.73,o),
(634.477,1052.88,o),
(551,760,c),
(446,739,o),
(369.701,716.781,o),
(326,702,cs),
(301.701,693.781,o),
(274,686,o),
(274,637,cs),
(274,555.044,o),
(468.703,624.643,o),
(514,631,c),
(467,461,o),
(426,315,o),
(401,279,c),
(145,162,l),
(102,141,o),
(-8,106,o),
(-8,43,cs),
(-8,-45,o),
(86,-57,o),
(100,-57,cs),
(193,-57,o),
(330,20,o),
(442,109,c),
(877,-23,o),
(872,-57,o),
(893,-57,cs),
(1126,-57,o),
(1274,106,o),
(1524,328,c),
(1524,438,l),
(1389,297,o),
(1194,150,o),
(1163,145,c),
(1128,127,o),
(1106,119,o),
(1079,119,cs),
(1016,119,o),
(752,227,o),
(711,240,c),
(698,238,o),
(684,238,o),
(674,238,cs),
(653,238,o),
(635,240,o),
(616,240,cs),
(606,240,o),
(594,238,o),
(584,238,c),
(657,360,o),
(731,500,o),
(774,657,c),
(774,659,l),
(913,670,o),
(1051,670,o),
(1208,670,cs),
(1262,670,o),
(1309,729,o),
(1309,766,cs),
(1309,784,o),
(1298,799,o),
(1272,799,cs)
);
},
{
closed = 0;
nodes = (
(1909,821,ls)
);
},
{
closed = 1;
nodes = (
(1643,1083,o),
(1616,1067,o),
(1616,1004,cs),
(1616,961,o),
(1663,963,o),
(1673,963,cs),
(1929,981,o),
(1974,981,o),
(2019,981,cs),
(2062,981,o),
(2110,979,o),
(2157,979,cs),
(2210,979,o),
(2257,1038,o),
(2257,1075,cs),
(2257,1108,o),
(2161,1116,o),
(2048,1116,cs),
(1878,1116,o),
(1694,1098,o),
(1665,1090,cs)
);
}
);
};
layerId = m001;
shapes = (
{
ref = E;
},
{
pos = (581,678);
ref = macroncomb;
}
);
width = 1403;
}
);
unicode = 274;
},
{
glyphname = Eogonek;
lastChange = "2023-08-03 09:40:13 +0000";
layers = (
{
background = {
shapes = (
{
closed = 0;
nodes = (
(948,1518,ls)
);
},
{
closed = 1;
nodes = (
(1193.9,799,o),
(1124,805,o),
(1053,805,cs),
(967,805,o),
(887,801,o),
(809,795,c),
(872,995,o),
(918,1196,o),
(963,1356,c),
(1094,1350,o),
(1237,1311,o),
(1356,1311,cs),
(1391,1311,o),
(1419,1325,o),
(1450,1346,c),
(1550,1460,l),
(1563,1473,o),
(1569,1479,o),
(1569,1491,cs),
(1569,1516,o),
(1237,1518,o),
(948,1518,cs),
(657,1518,ls),
(248,1518,o),
(2,1356,o),
(2,1120,cs),
(2,1012,o),
(106,899,o),
(317,825,c),
(332,838,o),
(346,907,o),
(346,952,c),
(219,999,o),
(150,1069,o),
(150,1143,cs),
(150,1276,o),
(287,1368,o),
(635,1368,cs),
(696,1368,o),
(766,1366,o),
(842,1360,c),
(675.837,1247.73,o),
(634.477,1052.88,o),
(551,760,c),
(446,739,o),
(369.701,716.781,o),
(326,702,cs),
(301.701,693.781,o),
(274,686,o),
(274,637,cs),
(274,555.044,o),
(468.703,624.643,o),
(514,631,c),
(467,461,o),
(426,315,o),
(401,279,c),
(145,162,l),
(102,141,o),
(-8,106,o),
(-8,43,cs),
(-8,-45,o),
(86,-57,o),
(100,-57,cs),
(193,-57,o),
(330,20,o),
(442,109,c),
(877,-23,o),
(872,-57,o),
(893,-57,cs),
(1126,-57,o),
(1274,106,o),
(1524,328,c),
(1524,438,l),
(1389,297,o),
(1194,150,o),
(1163,145,c),
(1128,127,o),
(1106,119,o),
(1079,119,cs),
(1016,119,o),
(752,227,o),
(711,240,c),
(698,238,o),
(684,238,o),
(674,238,cs),
(653,238,o),
(635,240,o),
(616,240,cs),
(606,240,o),
(594,238,o),
(584,238,c),
(657,360,o),
(731,500,o),
(774,657,c),
(774,659,l),
(913,670,o),
(1051,670,o),
(1208,670,cs),
(1262,670,o),
(1309,729,o),
(1309,766,cs),
(1309,784,o),
(1298,799,o),
(1272,799,cs)
);
},
{
closed = 0;
nodes = (
(2151,0,ls)
);
},
{
closed = 1;
nodes = (
(2282,-442,l),
(2271,-442,o),
(2040,-422,o),
(2040,-254,cs),
(2040,-84,o),
(2286,0,o),
(2288,0,cs),
(2140,0,l),
(2126,-14,o),
(1890,-88,o),
(1890,-295,cs),
(1890,-494,o),
(2089,-553,o),
(2206,-553,cs),
(2232,-553,o),
(2259,-551,o),
(2282,-547,c)
);
}
);
};
layerId = m001;
shapes = (
{
ref = E;
},
{
pos = (635,10);
ref = ogonekcomb;
}
);
width = 1403;
}
);
unicode = 280;
},
{
glyphname = F;
lastChange = "2023-08-03 09:40:13 +0000";
layers = (
{
anchors = (
{
name = bottom;
pos = (657,0);
},
{
name = top;
pos = (657,1518);
}
);
background = {
shapes = (
{
closed = 1;
nodes = (
(1194,803,o),
(1124,805,o),
(1053,805,cs),
(995,805,o),
(942,801,o),
(891,795,c),
(922,963,o),
(952,1145,o),
(989,1335,c),
(1120,1325,o),
(1237,1305,o),
(1368,1305,c),
(1509,1516,l),
(1419,1516,o),
(1331,1518,o),
(1233,1518,cs),
(1085,1518,o),
(942,1516,o),
(813,1507,c),
(344,1468,o),
(63,1260,o),
(63,1016,cs),
(63,885,o),
(158,752,o),
(379,662,c),
(391,678,o),
(408,772,o),
(408,829,c),
(295,879,o),
(248,948,o),
(248,1022,cs),
(248,1171,o),
(535,1341,o),
(854,1341,cs),
(868,1341,o),
(885,1339,o),
(899,1339,c),
(858,1313,o),
(817,1270,o),
(784,1221,c),
(748,1159,o),
(707,967,o),
(657,750,c),
(602,733,o),
(557,715,o),
(530,702,c),
(508,694,o),
(479,680,o),
(479,616,cs),
(479,571,o),
(530,573,o),
(537,575,cs),
(623,600,l),
(541,262,o),
(436,-82,o),
(293,-82,c),
(207,-76,o),
(184,-16,o),
(184,70,cs),
(184,109,o),
(186,156,o),
(195,205,c),
(23,205,o),
(-18,131,o),
(-18,49,cs),
(-18,-47,o),
(68,-180,o),
(252,-180,cs),
(627,-180,o),
(758,152,o),
(860,639,c),
(973,649,o),
(1085,649,o),
(1208,649,cs),
(1262,649,o),
(1309,721,o),
(1309,766,cs),
(1309,784,o),
(1298,799,o),
(1272,799,c)
);
}
);
};
layerId = m001;
shapes = (
{
closed = 1;
nodes = (
(627,-180,o),
(758,152,o),
(860,639,c),
(973,649,o),
(1085,649,o),
(1208,649,cs),
(1262,649,o),
(1309,721,o),
(1309,766,cs),
(1309,784,o),
(1298,799,o),
(1272,799,c),
(1194,803,o),
(1124,805,o),
(1053,805,cs),
(995,805,o),
(942,801,o),
(891,795,c),
(922,963,o),
(952,1145,o),
(989,1335,c),
(1120,1325,o),
(1237,1305,o),
(1368,1305,c),
(1509,1516,l),
(1419,1516,o),
(1331,1518,o),
(1233,1518,cs),
(1085,1518,o),
(942,1516,o),
(813,1507,c),
(344,1468,o),
(63,1260,o),
(63,1016,cs),
(63,885,o),
(158,752,o),
(379,662,c),
(391,678,o),
(408,772,o),
(408,829,c),
(295,879,o),
(248,948,o),
(248,1022,cs),
(248,1171,o),
(535,1341,o),
(854,1341,cs),
(868,1341,o),
(885,1339,o),
(899,1339,c),
(858,1313,o),
(817,1270,o),
(784,1221,c),
(748,1159,o),
(707,967,o),
(657,750,c),
(602,733,o),
(557,715,o),
(530,702,c),
(508,694,o),
(479,680,o),
(479,616,cs),
(479,571,o),
(530,573,o),
(537,575,cs),
(623,600,l),
(541,262,o),
(436,-82,o),
(293,-82,c),
(207,-76,o),
(184,-16,o),
(184,70,cs),
(184,109,o),
(186,156,o),
(195,205,c),
(23,205,o),
(-18,131,o),
(-18,49,cs),
(-18,-47,o),
(68,-180,o),
(252,-180,cs)
);
}
);
width = 1313;
}
);
unicode = 70;
},
{
glyphname = G;
lastChange = "2023-08-03 09:40:13 +0000";
layers = (
{
anchors = (
{
name = bottom;
pos = (299,0);
},
{
name = top;
pos = (1039,1518);
}
);
background = {
shapes = (
{
closed = 1;
nodes = (
(936,-467,o),
(1094,-315,o),
(1157,-10,c),
(1239,23,o),
(1475,215,o),
(1583,330,c),
(1583,440,l),
(1454,313,o),
(1284,164,o),
(1188,119,c),
(1307,621,l),
(1108,621,l),
(1102,586,o),
(1067,446,o),
(1061,434,c),
(961,354,o),
(854,293,o),
(729,293,cs),
(584,293,o),
(477,444,o),
(444,586,c),
(1274,1020,l),
(1337,1049,l),
(1403,1077,o),
(1444,1087,o),
(1444,1188,cs),
(1444,1343,o),
(1284,1518,o),
(1073,1518,cs),
(561,1518,o),
(172,1067,o),
(172,559,c),
(168,541,o),
(-35,440,o),
(-96,403,c),
(-111,397,o),
(-117,377,o),
(-117,356,cs),
(-117,332,o),
(-106,299,o),
(-88,299,cs),
(-70,299,o),
(2,344,o),
(70,383,cs),
(190,453,l),
(258,272,o),
(369,117,o),
(551,117,cs),
(696,117,o),
(924,244,o),
(1055,371,c),
(1038,285,l),
(1026,199,o),
(985,45,o),
(985,45,c),
(528,-88,l),
(471,-102,o),
(446,-164,o),
(446,-221,cs),
(446,-369,o),
(614,-467,o),
(743,-467,cs)
);
},
{
closed = 1;
nodes = (
(942,-141,o),
(877,-408,o),
(766,-408,cs),
(670,-408,o),
(621,-319,o),
(621,-242,cs),
(621,-131,o),
(821,-129,o),
(954,-74,c)
);
},
{
closed = 1;
nodes = (
(1108,1024,o),
(979,954,o),
(844,887,cs),
(426,678,l),
(426,1028,o),
(694,1430,o),
(1042,1430,cs),
(1130,1430,o),
(1231,1274,o),
(1231,1130,cs),
(1231,1092,o),
(1217,1071,o),
(1139,1036,c)
);
}
);
};
layerId = m001;
shapes = (
{
closed = 1;
nodes = (
(936,-467,o),
(1094,-315,o),
(1157,-10,c),
(1239,23,o),
(1475,215,o),
(1583,330,c),
(1583,440,l),
(1454,313,o),
(1284,164,o),
(1188,119,c),
(1307,621,l),
(1108,621,l),
(1102,586,o),
(1067,446,o),
(1061,434,c),
(961,354,o),
(854,293,o),
(729,293,cs),
(584,293,o),
(477,444,o),
(444,586,c),
(1274,1020,l),
(1337,1049,l),
(1403,1077,o),
(1444,1087,o),
(1444,1188,cs),
(1444,1343,o),
(1284,1518,o),
(1073,1518,cs),
(561,1518,o),
(172,1067,o),
(172,559,c),
(168,541,o),
(-35,440,o),
(-96,403,c),
(-111,397,o),
(-117,377,o),
(-117,356,cs),
(-117,332,o),
(-106,299,o),
(-88,299,cs),
(-70,299,o),
(2,344,o),
(70,383,cs),
(190,453,l),
(258,272,o),
(369,117,o),
(551,117,cs),
(696,117,o),
(924,244,o),
(1055,371,c),
(1038,285,l),
(1026,199,o),
(985,45,o),
(985,45,c),
(528,-88,l),
(471,-102,o),
(446,-164,o),
(446,-221,cs),
(446,-369,o),
(614,-467,o),
(743,-467,cs)
);
},
{
closed = 1;
nodes = (
(670,-408,o),
(621,-319,o),
(621,-242,cs),
(621,-131,o),
(821,-129,o),
(954,-74,c),
(942,-141,o),
(877,-408,o),
(766,-408,cs)
);
},
{
closed = 1;
nodes = (
(426,1028,o),
(694,1430,o),
(1042,1430,cs),
(1130,1430,o),
(1231,1274,o),
(1231,1130,cs),
(1231,1092,o),
(1217,1071,o),
(1139,1036,c),
(1108,1024,o),
(979,954,o),
(844,887,cs),
(426,678,l)
);
}
);
width = 1458;
}
);
unicode = 71;
},
{
glyphname = Gbreve;
lastChange = "2023-08-03 09:40:13 +0000";
layers = (
{
background = {
shapes = (
{
closed = 1;
nodes = (
(936,-467,o),
(1094,-315,o),
(1157,-10,c),
(1239,23,o),
(1475,215,o),
(1583,330,c),
(1583,440,l),
(1454,313,o),
(1284,164,o),
(1188,119,c),
(1307,621,l),
(1108,621,l),
(1102,586,o),
(1067,446,o),
(1061,434,c),
(961,354,o),
(854,293,o),
(729,293,cs),
(584,293,o),
(477,444,o),
(444,586,c),
(1274,1020,l),
(1337,1049,l),
(1403,1077,o),
(1444,1087,o),
(1444,1188,cs),
(1444,1343,o),
(1284,1518,o),
(1073,1518,cs),
(561,1518,o),
(172,1067,o),
(172,559,c),
(168,541,o),
(-35,440,o),
(-96,403,c),
(-111,397,o),
(-117,377,o),
(-117,356,cs),
(-117,332,o),
(-106,299,o),
(-88,299,cs),
(-70,299,o),
(2,344,o),
(70,383,cs),
(190,453,l),
(258,272,o),
(369,117,o),
(551,117,cs),
(696,117,o),
(924,244,o),
(1055,371,c),
(1038,285,l),
(1026,199,o),
(985,45,o),
(985,45,c),
(528,-88,l),
(471,-102,o),
(446,-164,o),
(446,-221,cs),
(446,-369,o),
(614,-467,o),
(743,-467,cs)
);
},
{
closed = 1;
nodes = (
(942,-141,o),
(877,-408,o),
(766,-408,cs),
(670,-408,o),
(621,-319,o),
(621,-242,cs),
(621,-131,o),
(821,-129,o),
(954,-74,c)
);
},
{
closed = 1;
nodes = (
(1108,1024,o),
(979,954,o),
(844,887,cs),
(426,678,l),
(426,1028,o),
(694,1430,o),
(1042,1430,cs),
(1130,1430,o),
(1231,1274,o),
(1231,1130,cs),
(1231,1092,o),
(1217,1071,o),
(1139,1036,c)
);
},
{
closed = 0;
nodes = (
(2511,805,ls)
);
},
{
closed = 1;
nodes = (
(2808,1282,l),
(2808,1282,o),
(2724,1100,o),
(2584,1100,cs),
(2447,1100,o),
(2447,1280,o),
(2447,1282,c),
(2326,1257,l),
(2332,1243,o),
(2322,948,o),
(2578,948,cs),
(2787,948,o),
(2888,1135,o),
(2910,1257,c)
);
}
);
};
layerId = m001;
shapes = (
{
ref = G;
},
{
pos = (647,678);
ref = brevecomb;
}
);
width = 1458;
}
);
unicode = 286;
},
{
glyphname = Gcommaaccent;
lastChange = "2023-08-03 09:40:13 +0000";
layers = (
{
background = {
shapes = (
{
closed = 1;
nodes = (
(936,-467,o),
(1094,-315,o),
(1157,-10,c),
(1239,23,o),
(1475,215,o),
(1583,330,c),
(1583,440,l),
(1454,313,o),
(1284,164,o),
(1188,119,c),
(1307,621,l),
(1108,621,l),
(1102,586,o),
(1067,446,o),
(1061,434,c),
(961,354,o),
(854,293,o),
(729,293,cs),
(584,293,o),
(477,444,o),
(444,586,c),
(1274,1020,l),
(1337,1049,l),
(1403,1077,o),
(1444,1087,o),
(1444,1188,cs),
(1444,1343,o),
(1284,1518,o),
(1073,1518,cs),
(561,1518,o),
(172,1067,o),
(172,559,c),
(168,541,o),
(-35,440,o),
(-96,403,c),
(-111,397,o),
(-117,377,o),
(-117,356,cs),
(-117,332,o),
(-106,299,o),
(-88,299,cs),
(-70,299,o),
(2,344,o),
(70,383,cs),
(190,453,l),
(258,272,o),
(369,117,o),
(551,117,cs),
(696,117,o),
(924,244,o),
(1055,371,c),
(1038,285,l),
(1026,199,o),
(985,45,o),
(985,45,c),
(528,-88,l),
(471,-102,o),
(446,-164,o),
(446,-221,cs),
(446,-369,o),
(614,-467,o),
(743,-467,cs)
);
},
{
closed = 1;
nodes = (
(942,-141,o),
(877,-408,o),
(766,-408,cs),
(670,-408,o),
(621,-319,o),
(621,-242,cs),
(621,-131,o),
(821,-129,o),
(954,-74,c)
);
},
{
closed = 1;
nodes = (
(1108,1024,o),
(979,954,o),
(844,887,cs),
(426,678,l),
(426,1028,o),
(694,1430,o),
(1042,1430,cs),
(1130,1430,o),
(1231,1274,o),
(1231,1130,cs),
(1231,1092,o),
(1217,1071,o),
(1139,1036,c)
);
},
{
closed = 0;
nodes = (
(365,0,ls)
);
},
{
closed = 1;
nodes = (
(281,-90,o),
(221,-180,o),
(221,-248,cs),
(221,-289,o),
(244,-326,o),
(299,-326,c),
(291,-424,o),
(276,-520,o),
(276,-520,c),
(334,-541,l),
(356,-483,o),
(465,-250,o),
(465,-166,cs),
(465,-119,o),
(438,-90,o),
(360,-90,cs)
);
}
);
};
layerId = m001;
shapes = (
{
ref = G;
},
{
pos = (77,0);
ref = commaaccentcomb;
}
);
width = 1458;
}
);
unicode = 290;
},
{
glyphname = Gdotaccent;
lastChange = "2023-08-03 09:40:13 +0000";
layers = (
{
background = {
shapes = (
{
closed = 1;
nodes = (
(936,-467,o),
(1094,-315,o),
(1157,-10,c),
(1239,23,o),
(1475,215,o),
(1583,330,c),
(1583,440,l),
(1454,313,o),
(1284,164,o),
(1188,119,c),
(1307,621,l),
(1108,621,l),
(1102,586,o),
(1067,446,o),
(1061,434,c),
(961,354,o),
(854,293,o),
(729,293,cs),
(584,293,o),
(477,444,o),
(444,586,c),
(1274,1020,l),
(1337,1049,l),
(1403,1077,o),
(1444,1087,o),
(1444,1188,cs),
(1444,1343,o),
(1284,1518,o),
(1073,1518,cs),
(561,1518,o),
(172,1067,o),
(172,559,c),
(168,541,o),
(-35,440,o),
(-96,403,c),
(-111,397,o),
(-117,377,o),
(-117,356,cs),
(-117,332,o),
(-106,299,o),
(-88,299,cs),
(-70,299,o),
(2,344,o),
(70,383,cs),
(190,453,l),
(258,272,o),
(369,117,o),
(551,117,cs),
(696,117,o),
(924,244,o),
(1055,371,c),
(1038,285,l),
(1026,199,o),
(985,45,o),
(985,45,c),
(528,-88,l),
(471,-102,o),
(446,-164,o),
(446,-221,cs),
(446,-369,o),
(614,-467,o),
(743,-467,cs)
);
},
{
closed = 1;
nodes = (
(942,-141,o),
(877,-408,o),
(766,-408,cs),
(670,-408,o),
(621,-319,o),
(621,-242,cs),
(621,-131,o),
(821,-129,o),
(954,-74,c)
);
},
{
closed = 1;
nodes = (
(1108,1024,o),
(979,954,o),
(844,887,cs),
(426,678,l),
(426,1028,o),
(694,1430,o),
(1042,1430,cs),
(1130,1430,o),
(1231,1274,o),
(1231,1130,cs),
(1231,1092,o),
(1217,1071,o),
(1139,1036,c)
);
},
{
closed = 0;
nodes = (
(1810,817,ls)
);
},
{
closed = 1;
nodes = (
(1960,1044,o),
(2040,1133,o),
(2040,1202,cs),
(2040,1243,o),
(2007,1280,o),
(1929,1280,cs),
(1847,1280,o),
(1790,1190,o),
(1790,1122,cs),
(1790,1081,o),
(1812,1044,o),
(1868,1044,cs)
);
}
);
};
layerId = m001;
shapes = (
{
ref = G;
},
{
pos = (814,678);
ref = dotaccentcomb;
}
);
width = 1458;
}
);
unicode = 288;
},
{
glyphname = H;
lastChange = "2023-08-03 09:40:13 +0000";
layers = (
{
anchors = (
{
name = bottom;
pos = (935,0);
},
{
name = center;
pos = (935,759);
},
{
name = top;
pos = (935,1518);
},
{
name = topleft;
pos = (20,1518);
}
);
background = {
shapes = (
{
closed = 1;
nodes = (
(346,850,o),
(352,915,o),
(352,954,c),
(279,985,o),
(160,1047,o),
(160,1141,cs),
(160,1294,o),
(469,1327,o),
(575,1327,cs),
(727,1327,o),
(864,1280,o),
(1012,1266,c),
(838,1174,o),
(786,1008,o),
(739,793,c),
(735,774,l),
(627,758,o),
(541,741,o),
(483,727,c),
(461,719,o),
(432,705,o),
(432,641,cs),
(432,592,o),
(496,600,o),
(489,600,c),
(702,631,l),
(659,416,o),
(602,53,o),
(393,53,cs),
(299,53,o),
(291,168,o),
(291,256,cs),
(291,315,l),
(178,315,o),
(55,301,o),
(55,195,cs),
(55,111,o),
(147,-55,o),
(383,-55,cs),
(774,-55,o),
(854,362,o),
(932,657,c),
(1024,666,o),
(1114,674,o),
(1206,680,c),
(1184,590,o),
(1161,432,o),
(1161,291,cs),
(1161,39,o),
(1251,-55,o),
(1368,-55,cs),
(1556,-55,o),
(1808,123,o),
(1993,328,c),
(1995,442,l),
(1831,268,o),
(1622,90,o),
(1470,90,cs),
(1384,90,o),
(1319,178,o),
(1319,414,cs),
(1319,502,o),
(1337,602,o),
(1362,688,c),
(1450,692,o),
(1538,694,o),
(1632,694,cs),
(1686,694,o),
(1733,754,o),
(1733,791,cs),
(1733,807,o),
(1722,823,o),
(1696,823,c),
(1620,827,o),
(1548,829,o),
(1477,829,cs),
(1403,829,l),
(1495,1040,o),
(1671,1348,o),
(1903,1348,cs),
(1991,1348,o),
(2032,1266,o),
(2054,1192,c),
(2062,1171,l),
(2109,1174,o),
(2236,1290,o),
(2236,1341,cs),
(2236,1456,o),
(2040,1516,o),
(1950,1516,cs),
(1628,1516,o),
(1366,1147,o),
(1245,823,c),
(1145,819,o),
(1051,813,o),
(967,805,c),
(1028,977,o),
(1081,1139,o),
(1186,1286,c),
(1251,1327,o),
(1290,1411,o),
(1303,1489,c),
(1229,1485,o),
(1163,1444,o),
(1079,1444,cs),
(889,1444,o),
(713,1516,o),
(522,1516,cs),
(301,1516,o),
(4,1411,o),
(4,1149,cs),
(4,981,o),
(184,872,o),
(322,819,c)
);
}
);
};
layerId = m001;
shapes = (
{
closed = 1;
nodes = (
(774,-55,o),
(854,362,o),
(932,657,c),
(1024,666,o),
(1114,674,o),
(1206,680,c),
(1184,590,o),
(1161,432,o),
(1161,291,cs),
(1161,39,o),
(1251,-55,o),
(1368,-55,cs),
(1556,-55,o),
(1808,123,o),
(1993,328,c),
(1995,442,l),
(1831,268,o),
(1622,90,o),
(1470,90,cs),
(1384,90,o),
(1319,178,o),
(1319,414,cs),
(1319,502,o),
(1337,602,o),
(1362,688,c),
(1450,692,o),
(1538,694,o),
(1632,694,cs),
(1686,694,o),
(1733,754,o),
(1733,791,cs),
(1733,807,o),
(1722,823,o),
(1696,823,c),
(1620,827,o),
(1548,829,o),
(1477,829,cs),
(1403,829,l),
(1495,1040,o),
(1671,1348,o),
(1903,1348,cs),
(1991,1348,o),
(2032,1266,o),
(2054,1192,c),
(2062,1171,l),
(2109,1174,o),
(2236,1290,o),
(2236,1341,cs),
(2236,1456,o),
(2040,1516,o),
(1950,1516,cs),
(1628,1516,o),
(1366,1147,o),
(1245,823,c),
(1145,819,o),
(1051,813,o),
(967,805,c),
(1028,977,o),
(1081,1139,o),
(1186,1286,c),
(1251,1327,o),
(1290,1411,o),
(1303,1489,c),
(1229,1485,o),
(1163,1444,o),
(1079,1444,cs),
(889,1444,o),
(713,1516,o),
(522,1516,cs),
(301,1516,o),
(4,1411,o),
(4,1149,cs),
(4,981,o),
(184,872,o),
(322,819,c),
(346,850,o),
(352,915,o),
(352,954,c),
(279,985,o),
(160,1047,o),
(160,1141,cs),
(160,1294,o),
(469,1327,o),
(575,1327,cs),
(727,1327,o),
(864,1280,o),
(1012,1266,c),
(838,1174,o),
(786,1008,o),
(739,793,c),
(735,774,l),
(627,758,o),
(541,741,o),
(483,727,c),
(461,719,o),
(432,705,o),
(432,641,cs),
(432,592,o),
(496,600,o),
(489,600,c),
(702,631,l),
(659,416,o),
(602,53,o),
(393,53,cs),
(299,53,o),
(291,168,o),
(291,256,cs),
(291,315,l),
(178,315,o),
(55,301,o),
(55,195,cs),
(55,111,o),
(147,-55,o),
(383,-55,cs)
);
}
);
userData = {
com.fontlab.hintData = {
hhints = (
{
position = -55;
width = 145;
},
{
position = -55;
width = 108;
},
{
position = 328;
width = 114;
},
{
position = 694;
width = 129;
},
{
position = 1327;
width = 189;
},
{
position = 1348;
width = 168;
}
);
vhints = (
{
position = 4;
width = 156;
},
{
position = 55;
width = 236;
},
{
position = 1161;
width = 158;
}
);
};
};
width = 1870;
}
);
unicode = 72;
},
{
glyphname = Hbar;
lastChange = "2023-08-03 09:40:13 +0000";
layers = (
{
layerId = m001;
shapes = (
{
closed = 1;
nodes = (
(1155,988,o),
(1236,988,o),
(1324,988,cs),
(1418,988,o),
(1515,986,o),
(1622,986,cs),
(1739,986,o),
(1841,1046,o),
(1841,1083,cs),
(1841,1115,o),
(1630,1124,o),
(1387,1124,cs),
(1240,1124,o),
(730,1105,o),
(646,1097,c),
(600,1091,o),
(539,1074,o),
(539,1011,cs),
(539,968,o),
(641,970,o),
(663,970,cs)
);
},
{
ref = H;
}
);
width = 1870;
}
);
unicode = 294;
},
{
glyphname = I;
lastChange = "2023-08-03 09:40:13 +0000";
layers = (
{
anchors = (
{
name = bottom;
pos = (531,0);
},
{
name = ogonek;
pos = (695,10);
},
{
name = top;
pos = (1231,1518);
},
{
name = topleft;
pos = (20,1518);
}
);
background = {
shapes = (
{
closed = 1;
nodes = (
(1098,979,o),
(1157,1153,o),
(1249,1311,c),
(1337,1341,o),
(1386,1440,o),
(1401,1530,c),
(1327,1526,o),
(1262,1485,o),
(1178,1485,cs),
(649,1485,o),
(362,1112,o),
(362,954,cs),
(362,852,o),
(485,727,o),
(819,702,c),
(805,625,ls),
(774,455,o),
(707,41,o),
(512,41,cs),
(408,41,o),
(401,135,o),
(401,213,cs),
(401,248,o),
(403,281,o),
(403,303,c),
(307,303,o),
(207,279,o),
(207,172,cs),
(207,14,o),
(373,-57,o),
(494,-57,cs),
(883,-57,o),
(965,352,o),
(1024,647,c),
(1057,793,l)
);
},
{
closed = 1;
nodes = (
(526,1012,o),
(698,1303,o),
(1145,1303,c),
(975,1210,o),
(905,1032,o),
(854,842,c),
(625,854,o),
(526,897,o),
(526,950,cs)
);
}
);
};
layerId = m001;
shapes = (
{
closed = 1;
nodes = (
(883,-57,o),
(965,352,o),
(1024,647,c),
(1057,793,l),
(1098,979,o),
(1157,1153,o),
(1249,1311,c),
(1337,1341,o),
(1386,1440,o),
(1401,1530,c),
(1327,1526,o),
(1262,1485,o),
(1178,1485,cs),
(649,1485,o),
(362,1112,o),
(362,954,cs),
(362,852,o),
(485,727,o),
(819,702,c),
(805,625,ls),
(774,455,o),
(707,41,o),
(512,41,cs),
(408,41,o),
(401,135,o),
(401,213,cs),
(401,248,o),
(403,281,o),
(403,303,c),
(307,303,o),
(207,279,o),
(207,172,cs),
(207,14,o),
(373,-57,o),
(494,-57,cs)
);
},
{
closed = 1;
nodes = (
(625,854,o),
(526,897,o),
(526,950,cs),
(526,1012,o),
(698,1303,o),
(1145,1303,c),
(975,1210,o),
(905,1032,o),
(854,842,c)
);
}
);
userData = {
com.fontlab.hintData = {
hhints = (
{
position = -57;
width = 98;
},
{
position = 842;
width = 21;
},
{
position = 1303;
width = 182;
}
);
vhints = (
{
position = 207;
width = 194;
},
{
position = 362;
width = 164;
}
);
};
};
width = 1061;
}
);
unicode = 73;
},
{
glyphname = IJ;
lastChange = "2023-08-03 09:40:13 +0000";
layers = (
{
background = {
shapes = (
{
closed = 1;
nodes = (
(1104,999,o),
(1161,1161,o),
(1247,1309,c),
(1389,1303,o),
(1548,1303,o),
(1743,1303,c),
(1593,1210,o),
(1522,1030,o),
(1481,840,c),
(1421,575,o),
(1348,268,o),
(1315,74,c),
(897,-39,ls),
(838,-55,o),
(813,-127,o),
(813,-184,cs),
(813,-330,o),
(977,-428,o),
(1104,-428,cs),
(1290,-428,o),
(1442,-281,o),
(1505,10,c),
(1602,45,o),
(1870,199,o),
(1985,334,c),
(1985,446,l),
(1790,256,o),
(1669,219,o),
(1528,133,c),
(1675,840,l),
(1714,1008,o),
(1763,1165,o),
(1847,1311,c),
(1935,1341,o),
(1985,1440,o),
(1999,1530,c),
(1925,1526,o),
(1860,1485,o),
(1776,1485,cs),
(1563,1485,o),
(1384,1485,o),
(1223,1483,c),
(1210,1485,o),
(1194,1485,o),
(1178,1485,cs),
(649,1485,o),
(362,1112,o),
(362,954,cs),
(362,852,o),
(485,727,o),
(819,702,c),
(805,625,ls),
(774,455,o),
(707,41,o),
(512,41,cs),
(408,41,o),
(401,135,o),
(401,213,cs),
(401,248,o),
(403,281,o),
(403,303,c),
(307,303,o),
(207,279,o),
(207,172,cs),
(207,14,o),
(373,-57,o),
(494,-57,cs),
(883,-57,o),
(965,352,o),
(1024,647,c),
(1034,692,l),
(1116,698,o),
(1208,713,o),
(1307,739,c),
(1331,766,o),
(1337,821,o),
(1337,854,c),
(1235,838,o),
(1130,827,o),
(1063,827,c)
);
},
{
closed = 1;
nodes = (
(526,1012,o),
(698,1303,o),
(1145,1303,c),
(975,1210,o),
(905,1032,o),
(854,842,c),
(625,854,o),
(526,897,o),
(526,950,cs)
);
},
{
closed = 1;
nodes = (
(1278,-160,o),
(1225,-356,o),
(1126,-356,cs),
(1038,-356,o),
(995,-276,o),
(995,-205,cs),
(995,-106,o),
(1169,-109,o),
(1298,-66,c)
);
}
);
};
layerId = m001;
shapes = (
{
ref = I;
},
{
pos = (1061,0);
ref = J;
}
);
width = 2138;
}
);
unicode = 306;
},
{
glyphname = Iacute;
lastChange = "2023-08-03 09:40:13 +0000";
layers = (
{
background = {
shapes = (
{
closed = 1;
nodes = (
(1098,979,o),
(1157,1153,o),
(1249,1311,c),
(1337,1341,o),
(1386,1440,o),
(1401,1530,c),
(1327,1526,o),
(1262,1485,o),
(1178,1485,cs),
(649,1485,o),
(362,1112,o),
(362,954,cs),
(362,852,o),
(485,727,o),
(819,702,c),
(805,625,ls),
(774,455,o),
(707,41,o),
(512,41,cs),
(408,41,o),
(401,135,o),
(401,213,cs),
(401,248,o),
(403,281,o),
(403,303,c),
(307,303,o),
(207,279,o),
(207,172,cs),
(207,14,o),
(373,-57,o),
(494,-57,cs),
(883,-57,o),
(965,352,o),
(1024,647,c),
(1057,793,l)
);
},
{
closed = 1;
nodes = (
(526,1012,o),
(698,1303,o),
(1145,1303,c),
(975,1210,o),
(905,1032,o),
(854,842,c),
(625,854,o),
(526,897,o),
(526,950,cs)
);
},
{
closed = 0;
nodes = (
(1217,1518,ls)
);
},
{
closed = 1;
nodes = (
(1559,1835,o),
(1563,1848,o),
(1563,1860,cs),
(1563,1899,o),
(1503,1962,o),
(1456,1962,c),
(1346,1956,o),
(1127,1792,o),
(1036,1708,c),
(1059,1653,l),
(1131,1678,o),
(1301,1735,o),
(1456,1796,cs),
(1544,1831,l)
);
}
);
};
layerId = m001;
shapes = (
{
ref = I;
},
{
pos = (867,678);
ref = acutecomb;
}
);
width = 1061;
}
);
unicode = 205;
},
{
glyphname = Icircumflex;
lastChange = "2023-08-03 09:40:13 +0000";
layers = (
{
background = {
shapes = (
{
closed = 1;
nodes = (
(1098,979,o),
(1157,1153,o),
(1249,1311,c),
(1337,1341,o),
(1386,1440,o),
(1401,1530,c),
(1327,1526,o),
(1262,1485,o),
(1178,1485,cs),
(649,1485,o),
(362,1112,o),
(362,954,cs),
(362,852,o),
(485,727,o),
(819,702,c),
(805,625,ls),
(774,455,o),
(707,41,o),
(512,41,cs),
(408,41,o),
(401,135,o),
(401,213,cs),
(401,248,o),
(403,281,o),
(403,303,c),
(307,303,o),
(207,279,o),
(207,172,cs),
(207,14,o),
(373,-57,o),
(494,-57,cs),
(883,-57,o),
(965,352,o),
(1024,647,c),
(1057,793,l)
);
},
{
closed = 1;
nodes = (
(526,1012,o),
(698,1303,o),
(1145,1303,c),
(975,1210,o),
(905,1032,o),
(854,842,c),
(625,854,o),
(526,897,o),
(526,950,cs)
);
},
{
closed = 0;
nodes = (
(1217,1518,ls)
);
},
{
closed = 1;
nodes = (
(1069,1700,o),
(1180,1821,o),
(1284,1927,c),
(1346,1821,o),
(1409,1700,o),
(1440,1657,c),
(1512,1698,l),
(1510,1706,o),
(1378,2095,o),
(1313,2095,cs),
(1229,2095,o),
(1051,1854,o),
(963,1700,c),
(1022,1657,l)
);
}
);
};
layerId = m001;
shapes = (
{
ref = I;
},
{
pos = (826,708);
ref = circumflexcomb;
}
);
width = 1061;
}
);
unicode = 206;
},
{
glyphname = Idieresis;
lastChange = "2023-08-03 09:40:13 +0000";
layers = (
{
background = {
shapes = (
{
closed = 1;
nodes = (
(1098,979,o),
(1157,1153,o),
(1249,1311,c),
(1337,1341,o),
(1386,1440,o),
(1401,1530,c),
(1327,1526,o),
(1262,1485,o),
(1178,1485,cs),
(649,1485,o),
(362,1112,o),
(362,954,cs),
(362,852,o),
(485,727,o),
(819,702,c),
(805,625,ls),
(774,455,o),
(707,41,o),
(512,41,cs),
(408,41,o),
(401,135,o),
(401,213,cs),
(401,248,o),
(403,281,o),
(403,303,c),
(307,303,o),
(207,279,o),
(207,172,cs),
(207,14,o),
(373,-57,o),
(494,-57,cs),
(883,-57,o),
(965,352,o),
(1024,647,c),
(1057,793,l)
);
},
{
closed = 1;
nodes = (
(526,1012,o),
(698,1303,o),
(1145,1303,c),
(975,1210,o),
(905,1032,o),
(854,842,c),
(625,854,o),
(526,897,o),
(526,950,cs)
);
},
{
closed = 0;
nodes = (
(1216,1518,ls)
);
},
{
closed = 1;
nodes = (
(1070,1662,o),
(1150,1751,o),
(1150,1820,cs),
(1150,1861,o),
(1117,1898,o),
(1039,1898,cs),
(957,1898,o),
(900,1808,o),
(900,1740,cs),
(900,1699,o),
(922,1662,o),
(978,1662,cs)
);
},
{
closed = 1;
nodes = (
(1554,1662,o),
(1632,1751,o),
(1632,1820,cs),
(1632,1861,o),
(1601,1898,o),
(1521,1898,cs),
(1441,1898,o),
(1382,1808,o),
(1382,1740,cs),
(1382,1699,o),
(1404,1662,o),
(1462,1662,cs)
);
}
);
};
layerId = m001;
shapes = (
{
ref = I;
},
{
pos = (765,708);
ref = dieresiscomb;
}
);
width = 1061;
}
);
unicode = 207;
},
{
glyphname = Idotaccent;
lastChange = "2023-08-03 09:40:13 +0000";
layers = (
{
background = {
shapes = (
{
closed = 1;
nodes = (
(1098,979,o),
(1157,1153,o),
(1249,1311,c),
(1337,1341,o),
(1386,1440,o),
(1401,1530,c),
(1327,1526,o),
(1262,1485,o),
(1178,1485,cs),
(649,1485,o),
(362,1112,o),
(362,954,cs),
(362,852,o),
(485,727,o),
(819,702,c),
(805,625,ls),
(774,455,o),
(707,41,o),
(512,41,cs),
(408,41,o),
(401,135,o),
(401,213,cs),
(401,248,o),
(403,281,o),
(403,303,c),
(307,303,o),
(207,279,o),
(207,172,cs),
(207,14,o),
(373,-57,o),
(494,-57,cs),
(883,-57,o),
(965,352,o),
(1024,647,c),
(1057,793,l)
);
},
{
closed = 1;
nodes = (
(526,1012,o),
(698,1303,o),
(1145,1303,c),
(975,1210,o),
(905,1032,o),
(854,842,c),
(625,854,o),
(526,897,o),
(526,950,cs)
);
},
{
closed = 0;
nodes = (
(1413,817,ls)
);
},
{
closed = 1;
nodes = (
(1563,1044,o),
(1643,1133,o),
(1643,1202,cs),
(1643,1243,o),
(1610,1280,o),
(1532,1280,cs),
(1450,1280,o),
(1393,1190,o),
(1393,1122,cs),
(1393,1081,o),
(1415,1044,o),
(1471,1044,cs)
);
}
);
};
layerId = m001;
shapes = (
{
ref = I;
},
{
pos = (1006,678);
ref = dotaccentcomb;
}
);
width = 1061;
}
);
unicode = 304;
},
{
glyphname = Igrave;
lastChange = "2023-08-03 09:40:13 +0000";
layers = (
{
background = {
shapes = (
{
closed = 1;
nodes = (
(1098,979,o),
(1157,1153,o),
(1249,1311,c),
(1337,1341,o),
(1386,1440,o),
(1401,1530,c),
(1327,1526,o),
(1262,1485,o),
(1178,1485,cs),
(649,1485,o),
(362,1112,o),
(362,954,cs),
(362,852,o),
(485,727,o),
(819,702,c),
(805,625,ls),
(774,455,o),
(707,41,o),
(512,41,cs),
(408,41,o),
(401,135,o),
(401,213,cs),
(401,248,o),
(403,281,o),
(403,303,c),
(307,303,o),
(207,279,o),
(207,172,cs),
(207,14,o),
(373,-57,o),
(494,-57,cs),
(883,-57,o),
(965,352,o),
(1024,647,c),
(1057,793,l)
);
},
{
closed = 1;
nodes = (
(526,1012,o),
(698,1303,o),
(1145,1303,c),
(975,1210,o),
(905,1032,o),
(854,842,c),
(625,854,o),
(526,897,o),
(526,950,cs)
);
},
{
closed = 0;
nodes = (
(1217,1518,ls)
);
},
{
closed = 1;
nodes = (
(1108,1735,o),
(1278,1678,o),
(1350,1653,c),
(1372,1708,l),
(1282,1792,o),
(1063,1956,o),
(952,1962,c),
(905,1962,o),
(846,1899,o),
(846,1860,cs),
(846,1848,o),
(850,1835,o),
(864,1831,c),
(952,1796,ls)
);
}
);
};
layerId = m001;
shapes = (
{
ref = I;
},
{
pos = (868,708);
ref = gravecomb;
}
);
width = 1061;
}
);
unicode = 204;
},
{
glyphname = Imacron;
lastChange = "2023-08-03 09:40:13 +0000";
layers = (
{
background = {
shapes = (
{
closed = 1;
nodes = (
(1098,979,o),
(1157,1153,o),
(1249,1311,c),
(1337,1341,o),
(1386,1440,o),
(1401,1530,c),
(1327,1526,o),
(1262,1485,o),
(1178,1485,cs),
(649,1485,o),
(362,1112,o),
(362,954,cs),
(362,852,o),
(485,727,o),
(819,702,c),
(805,625,ls),
(774,455,o),
(707,41,o),
(512,41,cs),
(408,41,o),
(401,135,o),
(401,213,cs),
(401,248,o),
(403,281,o),
(403,303,c),
(307,303,o),
(207,279,o),
(207,172,cs),
(207,14,o),
(373,-57,o),
(494,-57,cs),
(883,-57,o),
(965,352,o),
(1024,647,c),
(1057,793,l)
);
},
{
closed = 1;
nodes = (
(526,1012,o),
(698,1303,o),
(1145,1303,c),
(975,1210,o),
(905,1032,o),
(854,842,c),
(625,854,o),
(526,897,o),
(526,950,cs)
);
},
{
closed = 0;
nodes = (
(1567,821,ls)
);
},
{
closed = 1;
nodes = (
(1301,1083,o),
(1274,1067,o),
(1274,1004,cs),
(1274,961,o),
(1321,963,o),
(1331,963,cs),
(1587,981,o),
(1632,981,o),
(1677,981,cs),
(1720,981,o),
(1768,979,o),
(1815,979,cs),
(1868,979,o),
(1915,1038,o),
(1915,1075,cs),
(1915,1108,o),
(1819,1116,o),
(1706,1116,cs),
(1536,1116,o),
(1352,1098,o),
(1323,1090,cs)
);
}
);
};
layerId = m001;
shapes = (
{
ref = I;
},
{
pos = (810,678);
ref = macroncomb;
}
);
width = 1061;
}
);
unicode = 298;
},
{
glyphname = Iogonek;
lastChange = "2023-08-03 09:40:13 +0000";
layers = (
{
background = {
shapes = (
{
closed = 1;
nodes = (
(1098,979,o),
(1157,1153,o),
(1249,1311,c),
(1337,1341,o),
(1386,1440,o),
(1401,1530,c),
(1327,1526,o),
(1262,1485,o),
(1178,1485,cs),
(649,1485,o),
(362,1112,o),
(362,954,cs),
(362,852,o),
(485,727,o),
(819,702,c),
(805,625,ls),
(774,455,o),
(707,41,o),
(512,41,cs),
(408,41,o),
(401,135,o),
(401,213,cs),
(401,248,o),
(403,281,o),
(403,303,c),
(307,303,o),
(207,279,o),
(207,172,cs),
(207,14,o),
(373,-57,o),
(494,-57,cs),
(883,-57,o),
(965,352,o),
(1024,647,c),
(1057,793,l)
);
},
{
closed = 1;
nodes = (
(526,1012,o),
(698,1303,o),
(1145,1303,c),
(975,1210,o),
(905,1032,o),
(854,842,c),
(625,854,o),
(526,897,o),
(526,950,cs)
);
},
{
closed = 0;
nodes = (
(498,-29,ls)
);
},
{
closed = 1;
nodes = (
(629,-471,l),
(618,-471,o),
(387,-451,o),
(387,-283,cs),
(387,-113,o),
(633,-29,o),
(635,-29,cs),
(487,-29,l),
(473,-43,o),
(237,-117,o),
(237,-324,cs),
(237,-523,o),
(436,-582,o),
(553,-582,cs),
(579,-582,o),
(606,-580,o),
(629,-576,c)
);
}
);
};
layerId = m001;
shapes = (
{
ref = I;
},
{
pos = (197,10);
ref = ogonekcomb;
}
);
width = 1061;
}
);
unicode = 302;
},
{
glyphname = J;
lastChange = "2023-08-03 09:40:13 +0000";
layers = (
{
anchors = (
{
name = bottom;
pos = (539,0);
},
{
name = top;
pos = (869,1518);
}
);
background = {
shapes = (
{
closed = 1;
nodes = (
(1161,1341,o),
(1210,1440,o),
(1225,1530,c),
(1151,1526,o),
(1085,1485,o),
(1001,1485,cs),
(432,1485,o),
(143,1051,o),
(193,922,c),
(221,823,o),
(350,717,o),
(676,700,c),
(676,698,l),
(653,575,o),
(573,268,o),
(541,74,c),
(123,-39,ls),
(63,-55,o),
(39,-127,o),
(39,-184,cs),
(39,-330,o),
(203,-428,o),
(330,-428,cs),
(516,-428,o),
(668,-281,o),
(731,10,c),
(827,45,o),
(1096,199,o),
(1210,334,c),
(1210,446,l),
(1016,256,o),
(895,219,o),
(754,133,c),
(872,700,l),
(954,707,o),
(1047,721,o),
(1145,748,c),
(1169,774,o),
(1176,829,o),
(1176,862,c),
(1073,846,o),
(983,840,o),
(901,840,c),
(940,1008,o),
(989,1165,o),
(1073,1311,c)
);
},
{
closed = 1;
nodes = (
(350,1012,o),
(522,1303,o),
(969,1303,c),
(819,1210,o),
(752,1030,o),
(707,840,c),
(457,850,o),
(350,895,o),
(350,950,cs)
);
},
{
closed = 1;
nodes = (
(504,-160,o),
(451,-356,o),
(352,-356,cs),
(264,-356,o),
(221,-276,o),
(221,-205,cs),
(221,-106,o),
(395,-109,o),
(524,-66,c)
);
}
);
};
layerId = m001;
shapes = (
{
closed = 1;
nodes = (
(516,-428,o),
(668,-281,o),
(731,10,c),
(827,45,o),
(1096,199,o),
(1210,334,c),
(1210,446,l),
(1016,256,o),
(895,219,o),
(754,133,c),
(872,700,l),
(954,707,o),
(1047,721,o),
(1145,748,c),
(1169,774,o),
(1176,829,o),
(1176,862,c),
(1073,846,o),
(983,840,o),
(901,840,c),
(940,1008,o),
(989,1165,o),
(1073,1311,c),
(1161,1341,o),
(1210,1440,o),
(1225,1530,c),
(1151,1526,o),
(1085,1485,o),
(1001,1485,cs),
(432,1485,o),
(143,1051,o),
(193,922,c),
(221,823,o),
(350,717,o),
(676,700,c),
(676,698,l),
(653,575,o),
(573,268,o),
(541,74,c),
(123,-39,ls),
(63,-55,o),
(39,-127,o),
(39,-184,cs),
(39,-330,o),
(203,-428,o),
(330,-428,cs)
);
},
{
closed = 1;
nodes = (
(264,-356,o),
(221,-276,o),
(221,-205,cs),
(221,-106,o),
(395,-109,o),
(524,-66,c),
(504,-160,o),
(451,-356,o),
(352,-356,cs)
);
},
{
closed = 1;
nodes = (
(457,850,o),
(350,895,o),
(350,950,cs),
(350,1012,o),
(522,1303,o),
(969,1303,c),
(819,1210,o),
(752,1030,o),
(707,840,c)
);
}
);
userData = {
com.fontlab.hintData = {
hhints = (
{
position = -428;
width = 72;
},
{
position = 748;
width = 114;
},
{
position = 840;
width = 21;
},
{
position = 1303;
width = 182;
}
);
vhints = (
{
position = 39;
width = 182;
},
{
position = 707;
width = 194;
}
);
};
};
width = 1077;
}
);
unicode = 74;
},
{
glyphname = K;
lastChange = "2023-08-03 09:40:13 +0000";
layers = (
{
anchors = (
{
name = bottom;
pos = (944,0);
},
{
name = top;
pos = (944,1518);
}
);
background = {
shapes = (
{
closed = 1;
nodes = (
(342,850,o),
(348,915,o),
(348,954,c),
(274,985,o),
(156,1047,o),
(156,1141,cs),
(156,1294,o),
(465,1327,o),
(571,1327,cs),
(717,1327,o),
(848,1282,o),
(987,1266,c),
(813,1176,o),
(762,1008,o),
(715,793,cs),
(694,698,l),
(647,506,o),
(602,53,o),
(369,53,cs),
(274,53,o),
(266,168,o),
(266,256,cs),
(266,315,l),
(154,315,o),
(31,301,o),
(31,195,cs),
(31,111,o),
(123,-55,o),
(358,-55,cs),
(709,-55,o),
(803,287,o),
(891,625,c),
(1085,719,l),
(1284,270,l),
(1397,35,o),
(1485,-53,o),
(1573,-53,cs),
(1651,-53,o),
(1837,135,o),
(2009,324,c),
(2009,436,l),
(1819,246,o),
(1708,137,o),
(1647,117,cs),
(1585,96,o),
(1540,213,o),
(1442,393,c),
(1233,803,l),
(1470,1018,o),
(1565,1348,o),
(1862,1348,cs),
(1950,1348,o),
(1991,1266,o),
(2013,1192,c),
(2021,1171,l),
(2068,1174,o),
(2195,1290,o),
(2195,1341,cs),
(2195,1493,o),
(1884,1518,o),
(1862,1518,cs),
(1530,1518,o),
(1292,1110,o),
(920,731,c),
(938,793,l),
(991,971,o),
(1051,1137,o),
(1161,1286,c),
(1227,1327,o),
(1266,1411,o),
(1278,1489,c),
(1204,1485,o),
(1139,1444,o),
(1055,1444,cs),
(870,1444,o),
(702,1516,o),
(518,1516,cs),
(297,1516,o),
(0,1411,o),
(0,1149,cs),
(0,981,o),
(180,872,o),
(317,819,c)
);
}
);
};
layerId = m001;
shapes = (
{
closed = 1;
nodes = (
(709,-55,o),
(803,287,o),
(891,625,c),
(1085,719,l),
(1284,270,l),
(1397,35,o),
(1485,-53,o),
(1573,-53,cs),
(1651,-53,o),
(1837,135,o),
(2009,324,c),
(2009,436,l),
(1819,246,o),
(1708,137,o),
(1647,117,cs),
(1585,96,o),
(1540,213,o),
(1442,393,c),
(1233,803,l),
(1470,1018,o),
(1565,1348,o),
(1862,1348,cs),
(1950,1348,o),
(1991,1266,o),
(2013,1192,c),
(2021,1171,l),
(2068,1174,o),
(2195,1290,o),
(2195,1341,cs),
(2195,1493,o),
(1884,1518,o),
(1862,1518,cs),
(1530,1518,o),
(1292,1110,o),
(920,731,c),
(938,793,l),
(991,971,o),
(1051,1137,o),
(1161,1286,c),
(1227,1327,o),
(1266,1411,o),
(1278,1489,c),
(1204,1485,o),
(1139,1444,o),
(1055,1444,cs),
(870,1444,o),
(702,1516,o),
(518,1516,cs),
(297,1516,o),
(0,1411,o),
(0,1149,cs),
(0,981,o),
(180,872,o),
(317,819,c),
(342,850,o),
(348,915,o),
(348,954,c),
(274,985,o),
(156,1047,o),
(156,1141,cs),
(156,1294,o),
(465,1327,o),
(571,1327,cs),
(717,1327,o),
(848,1282,o),
(987,1266,c),
(813,1176,o),
(762,1008,o),
(715,793,cs),
(694,698,l),
(647,506,o),
(602,53,o),
(369,53,cs),
(274,53,o),
(266,168,o),
(266,256,cs),
(266,315,l),
(154,315,o),
(31,301,o),
(31,195,cs),
(31,111,o),
(123,-55,o),
(358,-55,cs)
);
}
);
width = 1888;
}
);
unicode = 75;
},
{
glyphname = Kcommaaccent;
lastChange = "2023-08-03 09:40:13 +0000";
layers = (
{
background = {
shapes = (
{
closed = 1;
nodes = (
(342,850,o),
(348,915,o),
(348,954,c),
(274,985,o),
(156,1047,o),
(156,1141,cs),
(156,1294,o),
(465,1327,o),
(571,1327,cs),
(717,1327,o),
(848,1282,o),
(987,1266,c),
(813,1176,o),
(762,1008,o),
(715,793,cs),
(694,698,l),
(647,506,o),
(602,53,o),
(369,53,cs),
(274,53,o),
(266,168,o),
(266,256,cs),
(266,315,l),
(154,315,o),
(31,301,o),
(31,195,cs),
(31,111,o),
(123,-55,o),
(358,-55,cs),
(709,-55,o),
(803,287,o),
(891,625,c),
(1085,719,l),
(1284,270,l),
(1397,35,o),
(1485,-53,o),
(1573,-53,cs),
(1651,-53,o),
(1837,135,o),
(2009,324,c),
(2009,436,l),
(1819,246,o),
(1708,137,o),
(1647,117,cs),
(1585,96,o),
(1540,213,o),
(1442,393,c),
(1233,803,l),
(1470,1018,o),
(1565,1348,o),
(1862,1348,cs),
(1950,1348,o),
(1991,1266,o),
(2013,1192,c),
(2021,1171,l),
(2068,1174,o),
(2195,1290,o),
(2195,1341,cs),
(2195,1493,o),
(1884,1518,o),
(1862,1518,cs),
(1530,1518,o),
(1292,1110,o),
(920,731,c),
(938,793,l),
(991,971,o),
(1051,1137,o),
(1161,1286,c),
(1227,1327,o),
(1266,1411,o),
(1278,1489,c),
(1204,1485,o),
(1139,1444,o),
(1055,1444,cs),
(870,1444,o),
(702,1516,o),
(518,1516,cs),
(297,1516,o),
(0,1411,o),
(0,1149,cs),
(0,981,o),
(180,872,o),
(317,819,c)
);
},
{
closed = 0;
nodes = (
(365,0,ls)
);
},
{
closed = 1;
nodes = (
(281,-90,o),
(221,-180,o),
(221,-248,cs),
(221,-289,o),
(244,-326,o),
(299,-326,c),
(291,-424,o),
(276,-520,o),
(276,-520,c),
(334,-541,l),
(356,-483,o),
(465,-250,o),
(465,-166,cs),
(465,-119,o),
(438,-90,o),
(360,-90,cs)
);
}
);
};
layerId = m001;
shapes = (
{
ref = K;
},
{
pos = (722,0);
ref = commaaccentcomb;
}
);
width = 1888;
}
);
unicode = 310;
},
{
glyphname = L;
lastChange = "2023-08-03 09:40:13 +0000";
layers = (
{
anchors = (
{
name = bottom;
pos = (628,0);
},
{
name = center;
pos = (628,759);
},
{
name = top;
pos = (1038,1518);
},
{
name = topright;
pos = (1489,1217);
}
);
background = {
shapes = (
{
closed = 1;
nodes = (
(721,1155,o),
(899,1405,o),
(1001,1417,c),
(1137,1417,o),
(1167,1147,o),
(1171,1147,c),
(1167,1042,o),
(817,963,o),
(817,881,cs),
(817,860,o),
(829,840,o),
(852,840,cs),
(858,840,o),
(866,842,o),
(874,846,cs),
(1006,907,o),
(1223,1036,o),
(1354,1102,cs),
(1382,1116,o),
(1391,1143,o),
(1391,1178,cs),
(1391,1352,o),
(1225,1518,o),
(1053,1518,cs),
(956,1518,o),
(694,1335,o),
(633,1290,cs),
(569,1243,o),
(522,1217,o),
(500,1137,cs),
(268,309,l),
(6,190,ls),
(-37,170,o),
(-147,135,o),
(-147,72,cs),
(-147,-16,o),
(-53,-29,o),
(-39,-29,cs),
(59,-29,o),
(205,39,o),
(324,117,c),
(737,-33,o),
(733,-57,o),
(754,-57,cs),
(987,-57,o),
(1200,150,o),
(1376,326,c),
(1376,438,l),
(1081,131,o),
(969,119,o),
(940,119,cs),
(872,119,o),
(594,227,o),
(551,240,c),
(520,248,o),
(498,258,o),
(469,266,c),
(586,541,o),
(651,817,o),
(702,1067,c)
);
}
);
};
layerId = m001;
shapes = (
{
closed = 1;
nodes = (
(987,-57,o),
(1200,150,o),
(1376,326,c),
(1376,438,l),
(1081,131,o),
(969,119,o),
(940,119,cs),
(872,119,o),
(594,227,o),
(551,240,c),
(520,248,o),
(498,258,o),
(469,266,c),
(586,541,o),
(651,817,o),
(702,1067,c),
(721,1155,o),
(899,1405,o),
(1001,1417,c),
(1137,1417,o),
(1167,1147,o),
(1171,1147,c),
(1167,1042,o),
(817,963,o),
(817,881,cs),
(817,860,o),
(829,840,o),
(852,840,cs),
(858,840,o),
(866,842,o),
(874,846,cs),
(1006,907,o),
(1223,1036,o),
(1354,1102,cs),
(1382,1116,o),
(1391,1143,o),
(1391,1178,cs),
(1391,1352,o),
(1225,1518,o),
(1053,1518,cs),
(956,1518,o),
(694,1335,o),
(633,1290,cs),
(569,1243,o),
(522,1217,o),
(500,1137,cs),
(268,309,l),
(6,190,ls),
(-37,170,o),
(-147,135,o),
(-147,72,cs),
(-147,-16,o),
(-53,-29,o),
(-39,-29,cs),
(59,-29,o),
(205,39,o),
(324,117,c),
(737,-33,o),
(733,-57,o),
(754,-57,cs)
);
}
);
width = 1255;
}
);
unicode = 76;
},
{
glyphname = Lacute;
lastChange = "2023-08-03 09:40:13 +0000";
layers = (
{
background = {
shapes = (
{
closed = 1;
nodes = (
(721,1155,o),
(899,1405,o),
(1001,1417,c),
(1137,1417,o),
(1167,1147,o),
(1171,1147,c),
(1167,1042,o),
(817,963,o),
(817,881,cs),
(817,860,o),
(829,840,o),
(852,840,cs),
(858,840,o),
(866,842,o),
(874,846,cs),
(1006,907,o),
(1223,1036,o),
(1354,1102,cs),
(1382,1116,o),
(1391,1143,o),
(1391,1178,cs),
(1391,1352,o),
(1225,1518,o),
(1053,1518,cs),
(956,1518,o),
(694,1335,o),
(633,1290,cs),
(569,1243,o),
(522,1217,o),
(500,1137,cs),
(268,309,l),
(6,190,ls),
(-37,170,o),
(-147,135,o),
(-147,72,cs),
(-147,-16,o),
(-53,-29,o),
(-39,-29,cs),
(59,-29,o),
(205,39,o),
(324,117,c),
(737,-33,o),
(733,-57,o),
(754,-57,cs),
(987,-57,o),
(1200,150,o),
(1376,326,c),
(1376,438,l),
(1081,131,o),
(969,119,o),
(940,119,cs),
(872,119,o),
(594,227,o),
(551,240,c),
(520,248,o),
(498,258,o),
(469,266,c),
(586,541,o),
(651,817,o),
(702,1067,c)
);
},
{
closed = 0;
nodes = (
(2308,805,ls)
);
},
{
closed = 1;
nodes = (
(2650,1122,o),
(2654,1135,o),
(2654,1147,cs),
(2654,1186,o),
(2594,1249,o),
(2547,1249,c),
(2437,1243,o),
(2218,1079,o),
(2127,995,c),
(2150,940,l),
(2222,965,o),
(2392,1022,o),
(2547,1083,cs),
(2635,1118,l)
);
}
);
};
layerId = m001;
shapes = (
{
ref = L;
},
{
pos = (674,678);
ref = acutecomb;
}
);
width = 1255;
}
);
unicode = 313;
},
{
glyphname = Lcaron;
lastChange = "2023-08-03 09:40:13 +0000";
layers = (
{
background = {
shapes = (
{
closed = 1;
nodes = (
(721,1155,o),
(899,1405,o),
(1001,1417,c),
(1137,1417,o),
(1167,1147,o),
(1171,1147,c),
(1167,1042,o),
(817,963,o),
(817,881,cs),
(817,860,o),
(829,840,o),
(852,840,cs),
(858,840,o),
(866,842,o),
(874,846,cs),
(1006,907,o),
(1223,1036,o),
(1354,1102,cs),
(1382,1116,o),
(1391,1143,o),
(1391,1178,cs),
(1391,1352,o),
(1225,1518,o),
(1053,1518,cs),
(956,1518,o),
(694,1335,o),
(633,1290,cs),
(569,1243,o),
(522,1217,o),
(500,1137,cs),
(268,309,l),
(6,190,ls),
(-37,170,o),
(-147,135,o),
(-147,72,cs),
(-147,-16,o),
(-53,-29,o),
(-39,-29,cs),
(59,-29,o),
(205,39,o),
(324,117,c),
(737,-33,o),
(733,-57,o),
(754,-57,cs),
(987,-57,o),
(1200,150,o),
(1376,326,c),
(1376,438,l),
(1081,131,o),
(969,119,o),
(940,119,cs),
(872,119,o),
(594,227,o),
(551,240,c),
(520,248,o),
(498,258,o),
(469,266,c),
(586,541,o),
(651,817,o),
(702,1067,c)
);
},
{
closed = 0;
nodes = (
(2308,805,ls)
);
},
{
closed = 1;
nodes = (
(2570,1362,l),
(2570,1362,o),
(2437,1198,o),
(2349,1092,c),
(2304,1198,o),
(2234,1362,o),
(2234,1362,c),
(2121,1339,l),
(2123,1331,o),
(2248,944,o),
(2320,944,cs),
(2404,944,o),
(2578,1186,o),
(2666,1339,c)
);
}
);
};
layerId = m001;
shapes = (
{
ref = L;
},
{
pos = (1310,-98);
ref = caroncomb.alt;
}
);
width = 1255;
}
);
unicode = 317;
},
{
glyphname = Lcommaaccent;
lastChange = "2023-08-03 09:40:13 +0000";
layers = (
{
background = {
shapes = (
{
closed = 1;
nodes = (
(721,1155,o),
(899,1405,o),
(1001,1417,c),
(1137,1417,o),
(1167,1147,o),
(1171,1147,c),
(1167,1042,o),
(817,963,o),
(817,881,cs),
(817,860,o),
(829,840,o),
(852,840,cs),
(858,840,o),
(866,842,o),
(874,846,cs),
(1006,907,o),
(1223,1036,o),
(1354,1102,cs),
(1382,1116,o),
(1391,1143,o),
(1391,1178,cs),
(1391,1352,o),
(1225,1518,o),
(1053,1518,cs),
(956,1518,o),
(694,1335,o),
(633,1290,cs),
(569,1243,o),
(522,1217,o),
(500,1137,cs),
(268,309,l),
(6,190,ls),
(-37,170,o),
(-147,135,o),
(-147,72,cs),
(-147,-16,o),
(-53,-29,o),
(-39,-29,cs),
(59,-29,o),
(205,39,o),
(324,117,c),
(737,-33,o),
(733,-57,o),
(754,-57,cs),
(987,-57,o),
(1200,150,o),
(1376,326,c),
(1376,438,l),
(1081,131,o),
(969,119,o),
(940,119,cs),
(872,119,o),
(594,227,o),
(551,240,c),
(520,248,o),
(498,258,o),
(469,266,c),
(586,541,o),
(651,817,o),
(702,1067,c)
);
},
{
closed = 0;
nodes = (
(365,0,ls)
);
},
{
closed = 1;
nodes = (
(281,-90,o),
(221,-180,o),
(221,-248,cs),
(221,-289,o),
(244,-326,o),
(299,-326,c),
(291,-424,o),
(276,-520,o),
(276,-520,c),
(334,-541,l),
(356,-483,o),
(465,-250,o),
(465,-166,cs),
(465,-119,o),
(438,-90,o),
(360,-90,cs)
);
}
);
};
layerId = m001;
shapes = (
{
ref = L;
},
{
pos = (406,0);
ref = commaaccentcomb;
}
);
width = 1255;
}
);
unicode = 315;
},
{
glyphname = Lslash;
lastChange = "2023-08-03 09:40:13 +0000";
layers = (
{
background = {
shapes = (
{
closed = 1;
nodes = (
(181,980,o),
(167,967,o),
(167,940,cs),
(167,916,o),
(176,880,o),
(205,880,cs),
(216,880,o),
(227,884,o),
(231,885,cs),
(380,928,l),
(207,309,l),
(-55,190,ls),
(-98,170,o),
(-208,135,o),
(-208,72,cs),
(-208,-16,o),
(-114,-29,o),
(-100,-29,cs),
(-2,-29,o),
(144,39,o),
(263,117,c),
(676,-33,o),
(672,-57,o),
(693,-57,cs),
(926,-57,o),
(1139,150,o),
(1315,326,c),
(1315,438,l),
(1020,131,o),
(908,119,o),
(879,119,cs),
(810,119,o),
(533,228,o),
(490,240,cs),
(459,249,o),
(437,257,o),
(408,266,c),
(514,515,o),
(577,765,o),
(626,995,c),
(686,1010,ls),
(721,1019,o),
(760,1029,o),
(799,1042,cs),
(837,1054,o),
(862,1103,o),
(862,1136,cs),
(862,1155,o),
(856,1163,o),
(827,1163,cs),
(792,1163,o),
(735,1150,o),
(674,1130,cs),
(671,1129,o),
(668,1128,o),
(665,1128,c),
(721,1237,o),
(856,1407,o),
(940,1417,c),
(1076,1417,o),
(1106,1147,o),
(1110,1147,c),
(1106,1042,o),
(756,963,o),
(756,881,cs),
(756,860,o),
(768,840,o),
(791,840,cs),
(797,840,o),
(805,842,o),
(813,846,cs),
(945,907,o),
(1162,1036,o),
(1293,1102,cs),
(1321,1116,o),
(1330,1143,o),
(1330,1178,cs),
(1330,1352,o),
(1164,1518,o),
(992,1518,cs),
(895,1518,o),
(633,1335,o),
(572,1290,cs),
(507,1243,o),
(462,1217,o),
(439,1137,cs),
(417,1060,l),
(305,1027,o),
(215,998,o),
(193,989,c)
);
}
);
};
layerId = m001;
shapes = (
{
closed = 1;
nodes = (
(926,-57,o),
(1139,150,o),
(1315,326,c),
(1315,438,l),
(1020,131,o),
(908,119,o),
(879,119,cs),
(810,119,o),
(533,228,o),
(490,240,cs),
(459,249,o),
(437,257,o),
(408,266,c),
(514,515,o),
(577,765,o),
(626,995,c),
(686,1010,ls),
(721,1019,o),
(760,1029,o),
(799,1042,cs),
(837,1054,o),
(862,1103,o),
(862,1136,cs),
(862,1155,o),
(856,1163,o),
(827,1163,cs),
(792,1163,o),
(735,1150,o),
(674,1130,cs),
(671,1129,o),
(668,1128,o),
(665,1128,c),
(721,1237,o),
(856,1407,o),
(940,1417,c),
(1076,1417,o),
(1106,1147,o),
(1110,1147,c),
(1106,1042,o),
(756,963,o),
(756,881,cs),
(756,860,o),
(768,840,o),
(791,840,cs),
(797,840,o),
(805,842,o),
(813,846,cs),
(945,907,o),
(1162,1036,o),
(1293,1102,cs),
(1321,1116,o),
(1330,1143,o),
(1330,1178,cs),
(1330,1352,o),
(1164,1518,o),
(992,1518,cs),
(895,1518,o),
(633,1335,o),
(572,1290,cs),
(507,1243,o),
(462,1217,o),
(439,1137,cs),
(417,1060,l),
(305,1027,o),
(215,998,o),
(193,989,c),
(181,980,o),
(167,967,o),
(167,940,cs),
(167,916,o),
(176,880,o),
(205,880,cs),
(216,880,o),
(227,884,o),
(231,885,cs),
(380,928,l),
(207,309,l),
(-55,190,ls),
(-98,170,o),
(-208,135,o),
(-208,72,cs),
(-208,-16,o),
(-114,-29,o),
(-100,-29,cs),
(-2,-29,o),
(144,39,o),
(263,117,c),
(676,-33,o),
(672,-57,o),
(693,-57,cs)
);
}
);
width = 1368;
}
);
unicode = 321;
},
{
glyphname = M;
lastChange = "2023-08-03 09:40:13 +0000";
layers = (
{
anchors = (
{
name = bottom;
pos = (856,0);
},
{
name = top;
pos = (856,1518);
}
);
background = {
shapes = (
{
closed = 1;
nodes = (
(-195,-260,o),
(41,-14,o),
(121,131,c),
(600,1128,l),
(614,1128,l),
(586,41,ls),
(586,23,o),
(598,-6,o),
(639,-18,c),
(692,10,o),
(1206,1028,o),
(1303,1219,cs),
(1305,1225,o),
(1311,1231,o),
(1321,1231,cs),
(1331,1231,o),
(1331,1225,o),
(1331,1214,cs),
(1331,1194,o),
(1303,1087,o),
(1296,1026,c),
(1255,791,o),
(1171,391,o),
(1171,154,cs),
(1171,4,o),
(1212,-55,o),
(1284,-55,cs),
(1401,-55,o),
(1614,111,o),
(1833,324,c),
(1833,438,l),
(1735,342,o),
(1522,141,o),
(1458,141,cs),
(1423,141,o),
(1411,176,o),
(1411,238,cs),
(1411,492,o),
(1540,1139,o),
(1624,1575,c),
(1622,1577,o),
(1616,1577,o),
(1616,1579,c),
(1544,1577,o),
(1360,1491,o),
(1323,1430,c),
(1325,1432,l),
(954,680,o),
(897,596,o),
(846,485,c),
(831,485,l),
(854,842,o),
(860,1202,o),
(907,1554,c),
(903,1556,o),
(895,1559,o),
(895,1561,c),
(778,1561,o),
(662,1491,o),
(608,1391,c),
(455,1065,o),
(201,539,o),
(49,213,c),
(-80,-16,o),
(-412,14,o),
(-412,-123,cs),
(-412,-229,o),
(-393,-260,o),
(-365,-260,cs)
);
}
);
};
layerId = m001;
shapes = (
{
closed = 1;
nodes = (
(-195,-260,o),
(41,-14,o),
(121,131,c),
(600,1128,l),
(614,1128,l),
(586,41,ls),
(586,23,o),
(598,-6,o),
(639,-18,c),
(692,10,o),
(1206,1028,o),
(1303,1219,cs),
(1305,1225,o),
(1311,1231,o),
(1321,1231,cs),
(1331,1231,o),
(1331,1225,o),
(1331,1214,cs),
(1331,1194,o),
(1303,1087,o),
(1296,1026,c),
(1255,791,o),
(1171,391,o),
(1171,154,cs),
(1171,4,o),
(1212,-55,o),
(1284,-55,cs),
(1401,-55,o),
(1614,111,o),
(1833,324,c),
(1833,438,l),
(1735,342,o),
(1522,141,o),
(1458,141,cs),
(1423,141,o),
(1411,176,o),
(1411,238,cs),
(1411,492,o),
(1540,1139,o),
(1624,1575,c),
(1622,1577,o),
(1616,1577,o),
(1616,1579,c),
(1544,1577,o),
(1360,1491,o),
(1323,1430,c),
(1325,1432,l),
(954,680,o),
(897,596,o),
(846,485,c),
(831,485,l),
(854,842,o),
(860,1202,o),
(907,1554,c),
(903,1556,o),
(895,1559,o),
(895,1561,c),
(778,1561,o),
(662,1491,o),
(608,1391,c),
(455,1065,o),
(201,539,o),
(49,213,c),
(-80,-16,o),
(-412,14,o),
(-412,-123,cs),
(-412,-229,o),
(-393,-260,o),
(-365,-260,cs)
);
}
);
width = 1712;
}
);
unicode = 77;
},
{
glyphname = N;
lastChange = "2023-08-03 09:40:13 +0000";
layers = (
{
anchors = (
{
name = bottom;
pos = (637,0);
},
{
name = top;
pos = (1087,1518);
}
);
background = {
shapes = (
{
closed = 1;
nodes = (
(1307,160,o),
(1278,147,o),
(1257,147,cs),
(1198,147,o),
(1188,260,o),
(1188,346,cs),
(1188,659,o),
(1354,1341,o),
(1354,1423,cs),
(1354,1475,o),
(1331,1516,o),
(1270,1516,cs),
(1188,1516,o),
(932,1495,o),
(549,1040,c),
(565,1122,l),
(565,1161,o),
(643,1397,o),
(643,1497,cs),
(643,1509,o),
(635,1516,o),
(623,1516,cs),
(580,1516,o),
(487,1460,o),
(453,1438,cs),
(23,1167,ls),
(2,1153,o),
(-2,1139,o),
(-2,1126,cs),
(-2,1100,o),
(4,1075,o),
(25,1075,c),
(55,1085,l),
(377,1313,l),
(295,995,l),
(209,612,o),
(66,211,o),
(66,0,c),
(272,0,l),
(297,100,o),
(330.913,299.691,o),
(371,442,cs),
(471,797,o),
(708.129,1144.57,o),
(1033,1309,cs),
(1045.52,1315.33,o),
(1056.62,1318.2,o),
(1066.23,1318.2,cs),
(1095.24,1318.2,o),
(1110.72,1292.14,o),
(1110.72,1256.85,cs),
(1110.72,1240.05,o),
(1107.22,1221.17,o),
(1100,1202,c),
(1010,918.059,o),
(963,581.444,o),
(963,262,cs),
(963,143,o),
(977,-57,o),
(1100,-57,cs),
(1194,-57,o),
(1387.37,126.975,o),
(1460,193,cs),
(1475.37,206.975,o),
(1585,319,o),
(1595,330,c),
(1597,440,l),
(1341,195,l)
);
}
);
};
layerId = m001;
shapes = (
{
closed = 1;
nodes = (
(1194,-57,o),
(1387,127,o),
(1460,193,cs),
(1475,207,o),
(1585,319,o),
(1595,330,c),
(1597,440,l),
(1341,195,l),
(1307,160,o),
(1278,147,o),
(1257,147,cs),
(1198,147,o),
(1188,260,o),
(1188,346,cs),
(1188,659,o),
(1354,1341,o),
(1354,1423,cs),
(1354,1475,o),
(1331,1516,o),
(1270,1516,cs),
(1188,1516,o),
(932,1495,o),
(549,1040,c),
(565,1122,l),
(565,1161,o),
(643,1397,o),
(643,1497,cs),
(643,1509,o),
(635,1516,o),
(623,1516,cs),
(580,1516,o),
(487,1460,o),
(453,1438,cs),
(23,1167,ls),
(2,1153,o),
(-2,1139,o),
(-2,1126,cs),
(-2,1100,o),
(4,1075,o),
(25,1075,c),
(55,1085,l),
(377,1313,l),
(295,995,l),
(209,612,o),
(66,211,o),
(66,0,c),
(272,0,l),
(297,100,o),
(331,300,o),
(371,442,cs),
(471,797,o),
(708,1145,o),
(1033,1309,cs),
(1046,1315,o),
(1057,1318,o),
(1066,1318,cs),
(1095,1318,o),
(1111,1292,o),
(1111,1257,cs),
(1111,1240,o),
(1107,1221,o),
(1100,1202,c),
(1010,918,o),
(963,581,o),
(963,262,cs),
(963,143,o),
(977,-57,o),
(1100,-57,cs)
);
}
);
userData = {
com.fontlab.hintData = {
hhints = (
{
position = -57;
width = 204;
},
{
position = 330;
width = 110;
},
{
position = 1318;
width = 198;
}
);
vhints = (
{
position = 66;
width = 206;
},
{
position = 963;
width = 225;
}
);
};
};
width = 1473;
}
);
unicode = 78;
},
{
glyphname = Nacute;
lastChange = "2023-08-03 09:40:13 +0000";
layers = (
{
background = {
shapes = (
{
closed = 1;
nodes = (
(1307,160,o),
(1278,147,o),
(1257,147,cs),
(1198,147,o),
(1188,260,o),
(1188,346,cs),
(1188,659,o),
(1354,1341,o),
(1354,1423,cs),
(1354,1475,o),
(1331,1516,o),
(1270,1516,cs),
(1188,1516,o),
(932,1495,o),
(549,1040,c),
(565,1122,l),
(565,1161,o),
(643,1397,o),
(643,1497,cs),
(643,1509,o),
(635,1516,o),
(623,1516,cs),
(580,1516,o),
(487,1460,o),
(453,1438,cs),
(23,1167,ls),
(2,1153,o),
(-2,1139,o),
(-2,1126,cs),
(-2,1100,o),
(4,1075,o),
(25,1075,c),
(55,1085,l),
(377,1313,l),
(295,995,l),
(209,612,o),
(66,211,o),
(66,0,c),
(272,0,l),
(297,100,o),
(330.913,299.691,o),
(371,442,cs),
(471,797,o),
(708.129,1144.57,o),
(1033,1309,cs),
(1045.52,1315.33,o),
(1056.62,1318.2,o),
(1066.23,1318.2,cs),
(1095.24,1318.2,o),
(1110.72,1292.14,o),
(1110.72,1256.85,cs),
(1110.72,1240.05,o),
(1107.22,1221.17,o),
(1100,1202,c),
(1010,918.059,o),
(963,581.444,o),
(963,262,cs),
(963,143,o),
(977,-57,o),
(1100,-57,cs),
(1194,-57,o),
(1387.37,126.975,o),
(1460,193,cs),
(1475.37,206.975,o),
(1585,319,o),
(1595,330,c),
(1597,440,l),
(1341,195,l)
);
},
{
closed = 0;
nodes = (
(987,1518,ls)
);
},
{
closed = 1;
nodes = (
(1329,1835,o),
(1333,1848,o),
(1333,1860,cs),
(1333,1899,o),
(1273,1962,o),
(1226,1962,c),
(1116,1956,o),
(897,1792,o),
(806,1708,c),
(829,1653,l),
(901,1678,o),
(1071,1735,o),
(1226,1796,cs),
(1314,1831,l)
);
}
);
};
layerId = m001;
shapes = (
{
ref = N;
},
{
pos = (723,678);
ref = acutecomb;
}
);
width = 1473;
}
);
unicode = 323;
},
{
glyphname = Ncaron;
lastChange = "2023-08-03 09:40:13 +0000";
layers = (
{
background = {
shapes = (
{
closed = 1;
nodes = (
(1307,160,o),
(1278,147,o),
(1257,147,cs),
(1198,147,o),
(1188,260,o),
(1188,346,cs),
(1188,659,o),
(1354,1341,o),
(1354,1423,cs),
(1354,1475,o),
(1331,1516,o),
(1270,1516,cs),
(1188,1516,o),
(932,1495,o),
(549,1040,c),
(565,1122,l),
(565,1161,o),
(643,1397,o),
(643,1497,cs),
(643,1509,o),
(635,1516,o),
(623,1516,cs),
(580,1516,o),
(487,1460,o),
(453,1438,cs),
(23,1167,ls),
(2,1153,o),
(-2,1139,o),
(-2,1126,cs),
(-2,1100,o),
(4,1075,o),
(25,1075,c),
(55,1085,l),
(377,1313,l),
(295,995,l),
(209,612,o),
(66,211,o),
(66,0,c),
(272,0,l),
(297,100,o),
(330.913,299.691,o),
(371,442,cs),
(471,797,o),
(708.129,1144.57,o),
(1033,1309,cs),
(1045.52,1315.33,o),
(1056.62,1318.2,o),
(1066.23,1318.2,cs),
(1095.24,1318.2,o),
(1110.72,1292.14,o),
(1110.72,1256.85,cs),
(1110.72,1240.05,o),
(1107.22,1221.17,o),
(1100,1202,c),
(1010,918.059,o),
(963,581.444,o),
(963,262,cs),
(963,143,o),
(977,-57,o),
(1100,-57,cs),
(1194,-57,o),
(1387.37,126.975,o),
(1460,193,cs),
(1475.37,206.975,o),
(1585,319,o),
(1595,330,c),
(1597,440,l),
(1341,195,l)
);
},
{
closed = 0;
nodes = (
(2526,805,ls)
);
},
{
closed = 1;
nodes = (
(2788,1362,l),
(2788,1362,o),
(2655,1198,o),
(2567,1092,c),
(2522,1198,o),
(2452,1362,o),
(2452,1362,c),
(2339,1339,l),
(2341,1331,o),
(2466,944,o),
(2538,944,cs),
(2622,944,o),
(2796,1186,o),
(2884,1339,c)
);
}
);
};
layerId = m001;
shapes = (
{
ref = N;
},
{
pos = (714,678);
ref = caroncomb;
}
);
width = 1473;
}
);
unicode = 327;
},
{
glyphname = Ncommaaccent;
lastChange = "2023-08-03 09:40:13 +0000";
layers = (
{
background = {
shapes = (
{
closed = 1;
nodes = (
(1307,160,o),
(1278,147,o),
(1257,147,cs),
(1198,147,o),
(1188,260,o),
(1188,346,cs),
(1188,659,o),
(1354,1341,o),
(1354,1423,cs),
(1354,1475,o),
(1331,1516,o),
(1270,1516,cs),
(1188,1516,o),
(932,1495,o),
(549,1040,c),
(565,1122,l),
(565,1161,o),
(643,1397,o),
(643,1497,cs),
(643,1509,o),
(635,1516,o),
(623,1516,cs),
(580,1516,o),
(487,1460,o),
(453,1438,cs),
(23,1167,ls),
(2,1153,o),
(-2,1139,o),
(-2,1126,cs),
(-2,1100,o),
(4,1075,o),
(25,1075,c),
(55,1085,l),
(377,1313,l),
(295,995,l),
(209,612,o),
(66,211,o),
(66,0,c),
(272,0,l),
(297,100,o),
(330.913,299.691,o),
(371,442,cs),
(471,797,o),
(708.129,1144.57,o),
(1033,1309,cs),
(1045.52,1315.33,o),
(1056.62,1318.2,o),
(1066.23,1318.2,cs),
(1095.24,1318.2,o),
(1110.72,1292.14,o),
(1110.72,1256.85,cs),
(1110.72,1240.05,o),
(1107.22,1221.17,o),
(1100,1202,c),
(1010,918.059,o),
(963,581.444,o),
(963,262,cs),
(963,143,o),
(977,-57,o),
(1100,-57,cs),
(1194,-57,o),
(1387.37,126.975,o),
(1460,193,cs),
(1475.37,206.975,o),
(1585,319,o),
(1595,330,c),
(1597,440,l),
(1341,195,l)
);
},
{
closed = 0;
nodes = (
(365,0,ls)
);
},
{
closed = 1;
nodes = (
(281,-90,o),
(221,-180,o),
(221,-248,cs),
(221,-289,o),
(244,-326,o),
(299,-326,c),
(291,-424,o),
(276,-520,o),
(276,-520,c),
(334,-541,l),
(356,-483,o),
(465,-250,o),
(465,-166,cs),
(465,-119,o),
(438,-90,o),
(360,-90,cs)
);
}
);
};
layerId = m001;
shapes = (
{
ref = N;
},
{
pos = (415,0);
ref = commaaccentcomb;
}
);
width = 1473;
}
);
unicode = 325;
},
{
glyphname = Ntilde;
lastChange = "2023-08-03 09:40:13 +0000";
layers = (
{
background = {
shapes = (
{
closed = 1;
nodes = (
(1307,160,o),
(1278,147,o),
(1257,147,cs),
(1198,147,o),
(1188,260,o),
(1188,346,cs),
(1188,659,o),
(1354,1341,o),
(1354,1423,cs),
(1354,1475,o),
(1331,1516,o),
(1270,1516,cs),
(1188,1516,o),
(932,1495,o),
(549,1040,c),
(565,1122,l),
(565,1161,o),
(643,1397,o),
(643,1497,cs),
(643,1509,o),
(635,1516,o),
(623,1516,cs),
(580,1516,o),
(487,1460,o),
(453,1438,cs),
(23,1167,ls),
(2,1153,o),
(-2,1139,o),
(-2,1126,cs),
(-2,1100,o),
(4,1075,o),
(25,1075,c),
(55,1085,l),
(377,1313,l),
(295,995,l),
(209,612,o),
(66,211,o),
(66,0,c),
(272,0,l),
(297,100,o),
(330.913,299.691,o),
(371,442,cs),
(471,797,o),
(708.129,1144.57,o),
(1033,1309,cs),
(1045.52,1315.33,o),
(1056.62,1318.2,o),
(1066.23,1318.2,cs),
(1095.24,1318.2,o),
(1110.72,1292.14,o),
(1110.72,1256.85,cs),
(1110.72,1240.05,o),
(1107.22,1221.17,o),
(1100,1202,c),
(1010,918.059,o),
(963,581.444,o),
(963,262,cs),
(963,143,o),
(977,-57,o),
(1100,-57,cs),
(1194,-57,o),
(1387.37,126.975,o),
(1460,193,cs),
(1475.37,206.975,o),
(1585,319,o),
(1595,330,c),
(1597,440,l),
(1341,195,l)
);
},
{
closed = 0;
nodes = (
(987,1518,ls)
);
},
{
closed = 1;
nodes = (
(1366,1674,l),
(1362,1686,o),
(1370,1895,o),
(1190,1895,cs),
(1092,1895,o),
(969,1819,o),
(887,1819,cs),
(844,1819,o),
(813,1837,o),
(805,1901,c),
(697,1880,l),
(701,1868,o),
(693,1659,o),
(873,1659,cs),
(981,1659,o),
(1092,1743,o),
(1166,1743,cs),
(1202,1743,o),
(1229,1721,o),
(1241,1655,c)
);
}
);
};
layerId = m001;
shapes = (
{
ref = N;
},
{
pos = (652,678);
ref = tildecomb;
}
);
width = 1473;
}
);
unicode = 209;
},
{
glyphname = Eng;
lastChange = "2023-08-03 09:40:13 +0000";
layers = (
{
anchors = (
{
name = bottom;
pos = (702,0);
},
{
name = top;
pos = (702,1518);
}
);
layerId = m001;
shapes = (
{
closed = 1;
nodes = (
(695,-681,o),
(939,-455,o),
(974,-330,cs),
(1032,-120,o),
(1354,1238,o),
(1354,1423,cs),
(1354,1475,o),
(1331,1516,o),
(1270,1516,cs),
(1188,1516,o),
(932,1495,o),
(549,1040,c),
(565,1122,l),
(565,1161,o),
(643,1397,o),
(643,1497,cs),
(643,1509,o),
(635,1516,o),
(623,1516,cs),
(580,1516,o),
(487,1460,o),
(453,1438,cs),
(23,1167,ls),
(2,1153,o),
(-2,1139,o),
(-2,1126,cs),
(-2,1100,o),
(4,1075,o),
(25,1075,c),
(55,1085,l),
(377,1313,l),
(295,995,l),
(209,612,o),
(66,211,o),
(66,0,c),
(272,0,l),
(297,100,o),
(331,300,o),
(371,442,cs),
(471,797,o),
(708,1145,o),
(1033,1309,cs),
(1046,1315,o),
(1057,1318,o),
(1066,1318,cs),
(1095,1318,o),
(1111,1292,o),
(1111,1257,cs),
(1111,1240,o),
(1107,1221,o),
(1100,1202,cs),
(1061,1078,o),
(902,280,o),
(870,137,cs),
(797,-191,o),
(760,-572,o),
(626,-572,cs),
(592,-572,o),
(547,-559,o),
(547,-494,cs),
(547,-418,o),
(451,-429,o),
(408,-474,cs),
(331,-554,o),
(418,-681,o),
(531,-681,cs)
);
}
);
width = 1404;
}
);
unicode = 330;
},
{
glyphname = O;
lastChange = "2023-08-03 09:40:13 +0000";
layers = (
{
anchors = (
{
name = bottom;
pos = (827,0);
},
{
name = center;
pos = (827,759);
},
{
name = ogonek;
pos = (1488,10);
},
{
name = top;
pos = (1177,1518);
},
{
name = topleft;
pos = (20,1518);
},
{
name = topright;
pos = (1633,1518);
}
);
background = {
shapes = (
{
closed = 1;
nodes = (
(1585,1090,o),
(1395,1239,o),
(1217,1239,cs),
(967,1239,o),
(858,1090,o),
(858,926,cs),
(858,637,o),
(1110,496,o),
(1382,496,cs),
(1395,496,l),
(1296,311,o),
(1108,160,o),
(842,160,cs),
(578,160,o),
(328,353,o),
(328,689,cs),
(328,1055,o),
(602,1411,o),
(1040,1411,cs),
(1071,1411,o),
(1104,1409,o),
(1139,1403,c),
(1143,1505,l),
(1096,1513,o),
(1049,1518,o),
(1006,1518,cs),
(442,1518,o),
(100,1064,o),
(100,605,cs),
(100,165,o),
(391,-57,o),
(715,-57,cs),
(1047,-57,o),
(1415,164,o),
(1540,510,c),
(1653,532,o),
(1763,580,o),
(1853,651,c),
(1853,743,l),
(1757,686,o),
(1663,651,o),
(1573,637,c),
(1581,678,o),
(1585,723,o),
(1585,768,cs)
);
},
{
closed = 1;
nodes = (
(1030,1073,o),
(1077,1126,o),
(1190,1126,cs),
(1382,1126,o),
(1475,979,o),
(1475,799,cs),
(1475,743,o),
(1466,684,o),
(1448,627,c),
(1206,631,o),
(1030,786,o),
(1030,999,cs)
);
}
);
};
layerId = m001;
shapes = (
{
closed = 1;
nodes = (
(1047,-57,o),
(1415,164,o),
(1540,510,c),
(1653,532,o),
(1763,580,o),
(1853,651,c),
(1853,743,l),
(1757,686,o),
(1663,651,o),
(1573,637,c),
(1581,678,o),
(1585,723,o),
(1585,768,cs),
(1585,1090,o),
(1395,1239,o),
(1217,1239,cs),
(967,1239,o),
(858,1090,o),
(858,926,cs),
(858,637,o),
(1110,496,o),
(1382,496,cs),
(1395,496,l),
(1296,311,o),
(1108,160,o),
(842,160,cs),
(578,160,o),
(328,353,o),
(328,689,cs),
(328,1055,o),
(602,1411,o),
(1040,1411,cs),
(1071,1411,o),
(1104,1409,o),
(1139,1403,c),
(1143,1505,l),
(1096,1513,o),
(1049,1518,o),
(1006,1518,cs),
(442,1518,o),
(100,1064,o),
(100,605,cs),
(100,165,o),
(391,-57,o),
(715,-57,cs)
);
},
{
closed = 1;
nodes = (
(1206,631,o),
(1030,786,o),
(1030,999,cs),
(1030,1073,o),
(1077,1126,o),
(1190,1126,cs),
(1382,1126,o),
(1475,979,o),
(1475,799,cs),
(1475,743,o),
(1466,684,o),
(1448,627,c)
);
}
);
userData = {
com.fontlab.hintData = {
hhints = (
{
position = -57;
width = 217;
},
{
position = 496;
width = 131;
},
{
position = 1126;
width = 113;
},
{
position = 1411;
width = 107;
}
);
vhints = (
{
position = 100;
width = 228;
},
{
position = 858;
width = 172;
},
{
position = 1475;
width = 110;
}
);
};
};
width = 1653;
}
);
unicode = 79;
},
{
glyphname = Oacute;
lastChange = "2023-08-03 09:40:13 +0000";
layers = (
{
background = {
shapes = (
{
closed = 1;
nodes = (
(1585,1090,o),
(1395,1239,o),
(1217,1239,cs),
(967,1239,o),
(858,1090,o),
(858,926,cs),
(858,637,o),
(1110,496,o),
(1382,496,cs),
(1395,496,l),
(1296,311,o),
(1108,160,o),
(842,160,cs),
(578,160,o),
(328,353,o),
(328,689,cs),
(328,1055,o),
(602,1411,o),
(1040,1411,cs),
(1071,1411,o),
(1104,1409,o),
(1139,1403,c),
(1143,1505,l),
(1096,1513,o),
(1049,1518,o),
(1006,1518,cs),
(442,1518,o),
(100,1064,o),
(100,605,cs),
(100,165,o),
(391,-57,o),
(715,-57,cs),
(1047,-57,o),
(1415,164,o),
(1540,510,c),
(1653,532,o),
(1763,580,o),
(1853,651,c),
(1853,743,l),
(1757,686,o),
(1663,651,o),
(1573,637,c),
(1581,678,o),
(1585,723,o),
(1585,768,cs)
);
},
{
closed = 1;
nodes = (
(1030,1073,o),
(1077,1126,o),
(1190,1126,cs),
(1382,1126,o),
(1475,979,o),
(1475,799,cs),
(1475,743,o),
(1466,684,o),
(1448,627,c),
(1206,631,o),
(1030,786,o),
(1030,999,cs)
);
},
{
closed = 0;
nodes = (
(1137,1518,ls)
);
},
{
closed = 1;
nodes = (
(1479,1835,o),
(1483,1848,o),
(1483,1860,cs),
(1483,1899,o),
(1423,1962,o),
(1376,1962,c),
(1266,1956,o),
(1047,1792,o),
(956,1708,c),
(979,1653,l),
(1051,1678,o),
(1221,1735,o),
(1376,1796,cs),
(1464,1831,l)
);
}
);
};
layerId = m001;
shapes = (
{
ref = O;
},
{
pos = (813,678);
ref = acutecomb;
}
);
width = 1653;
}
);
unicode = 211;
},
{
glyphname = Ocircumflex;
lastChange = "2023-08-03 09:40:13 +0000";
layers = (
{
background = {
shapes = (
{
closed = 1;
nodes = (
(1585,1090,o),
(1395,1239,o),
(1217,1239,cs),
(967,1239,o),
(858,1090,o),
(858,926,cs),
(858,637,o),
(1110,496,o),
(1382,496,cs),
(1395,496,l),
(1296,311,o),
(1108,160,o),
(842,160,cs),
(578,160,o),
(328,353,o),
(328,689,cs),
(328,1055,o),
(602,1411,o),
(1040,1411,cs),
(1071,1411,o),
(1104,1409,o),
(1139,1403,c),
(1143,1505,l),
(1096,1513,o),
(1049,1518,o),
(1006,1518,cs),
(442,1518,o),
(100,1064,o),
(100,605,cs),
(100,165,o),
(391,-57,o),
(715,-57,cs),
(1047,-57,o),
(1415,164,o),
(1540,510,c),
(1653,532,o),
(1763,580,o),
(1853,651,c),
(1853,743,l),
(1757,686,o),
(1663,651,o),
(1573,637,c),
(1581,678,o),
(1585,723,o),
(1585,768,cs)
);
},
{
closed = 1;
nodes = (
(1030,1073,o),
(1077,1126,o),
(1190,1126,cs),
(1382,1126,o),
(1475,979,o),
(1475,799,cs),
(1475,743,o),
(1466,684,o),
(1448,627,c),
(1206,631,o),
(1030,786,o),
(1030,999,cs)
);
},
{
closed = 0;
nodes = (
(1137,1518,ls)
);
},
{
closed = 1;
nodes = (
(989,1700,o),
(1100,1821,o),
(1204,1927,c),
(1266,1821,o),
(1329,1700,o),
(1360,1657,c),
(1432,1698,l),
(1430,1706,o),
(1298,2095,o),
(1233,2095,cs),
(1149,2095,o),
(971,1854,o),
(883,1700,c),
(942,1657,l)
);
}
);
};
layerId = m001;
shapes = (
{
ref = O;
},
{
pos = (772,708);
ref = circumflexcomb;
}
);
width = 1653;
}
);
unicode = 212;
},
{
glyphname = Odieresis;
lastChange = "2023-08-03 09:40:13 +0000";
layers = (
{
background = {
shapes = (
{
closed = 1;
nodes = (
(1585,1090,o),
(1395,1239,o),
(1217,1239,cs),
(967,1239,o),
(858,1090,o),
(858,926,cs),
(858,637,o),
(1110,496,o),
(1382,496,cs),
(1395,496,l),
(1296,311,o),
(1108,160,o),
(842,160,cs),
(578,160,o),
(328,353,o),
(328,689,cs),
(328,1055,o),
(602,1411,o),
(1040,1411,cs),
(1071,1411,o),
(1104,1409,o),
(1139,1403,c),
(1143,1505,l),
(1096,1513,o),
(1049,1518,o),
(1006,1518,cs),
(442,1518,o),
(100,1064,o),
(100,605,cs),
(100,165,o),
(391,-57,o),
(715,-57,cs),
(1047,-57,o),
(1415,164,o),
(1540,510,c),
(1653,532,o),
(1763,580,o),
(1853,651,c),
(1853,743,l),
(1757,686,o),
(1663,651,o),
(1573,637,c),
(1581,678,o),
(1585,723,o),
(1585,768,cs)
);
},
{
closed = 1;
nodes = (
(1030,1073,o),
(1077,1126,o),
(1190,1126,cs),
(1382,1126,o),
(1475,979,o),
(1475,799,cs),
(1475,743,o),
(1466,684,o),
(1448,627,c),
(1206,631,o),
(1030,786,o),
(1030,999,cs)
);
},
{
closed = 0;
nodes = (
(1137,1518,ls)
);
},
{
closed = 1;
nodes = (
(991,1662,o),
(1071,1751,o),
(1071,1820,cs),
(1071,1861,o),
(1038,1898,o),
(960,1898,cs),
(878,1898,o),
(821,1808,o),
(821,1740,cs),
(821,1699,o),
(843,1662,o),
(899,1662,cs)
);
},
{
closed = 1;
nodes = (
(1475,1662,o),
(1553,1751,o),
(1553,1820,cs),
(1553,1861,o),
(1522,1898,o),
(1442,1898,cs),
(1362,1898,o),
(1303,1808,o),
(1303,1740,cs),
(1303,1699,o),
(1325,1662,o),
(1383,1662,cs)
);
}
);
};
layerId = m001;
shapes = (
{
ref = O;
},
{
pos = (711,708);
ref = dieresiscomb;
}
);
width = 1653;
}
);
unicode = 214;
},
{
glyphname = Ograve;
lastChange = "2023-08-03 09:40:13 +0000";
layers = (
{
background = {
shapes = (
{
closed = 1;
nodes = (
(1585,1090,o),
(1395,1239,o),
(1217,1239,cs),
(967,1239,o),
(858,1090,o),
(858,926,cs),
(858,637,o),
(1110,496,o),
(1382,496,cs),
(1395,496,l),
(1296,311,o),
(1108,160,o),
(842,160,cs),
(578,160,o),
(328,353,o),
(328,689,cs),
(328,1055,o),
(602,1411,o),
(1040,1411,cs),
(1071,1411,o),
(1104,1409,o),
(1139,1403,c),
(1143,1505,l),
(1096,1513,o),
(1049,1518,o),
(1006,1518,cs),
(442,1518,o),
(100,1064,o),
(100,605,cs),
(100,165,o),
(391,-57,o),
(715,-57,cs),
(1047,-57,o),
(1415,164,o),
(1540,510,c),
(1653,532,o),
(1763,580,o),
(1853,651,c),
(1853,743,l),
(1757,686,o),
(1663,651,o),
(1573,637,c),
(1581,678,o),
(1585,723,o),
(1585,768,cs)
);
},
{
closed = 1;
nodes = (
(1030,1073,o),
(1077,1126,o),
(1190,1126,cs),
(1382,1126,o),
(1475,979,o),
(1475,799,cs),
(1475,743,o),
(1466,684,o),
(1448,627,c),
(1206,631,o),
(1030,786,o),
(1030,999,cs)
);
},
{
closed = 0;
nodes = (
(1137,1518,ls)
);
},
{
closed = 1;
nodes = (
(1028,1735,o),
(1198,1678,o),
(1270,1653,c),
(1292,1708,l),
(1202,1792,o),
(983,1956,o),
(872,1962,c),
(825,1962,o),
(766,1899,o),
(766,1860,cs),
(766,1848,o),
(770,1835,o),
(784,1831,c),
(872,1796,ls)
);
}
);
};
layerId = m001;
shapes = (
{
ref = O;
},
{
pos = (814,708);
ref = gravecomb;
}
);
width = 1653;
}
);
unicode = 210;
},
{
glyphname = Ohungarumlaut;
lastChange = "2023-08-03 09:40:13 +0000";
layers = (
{
background = {
shapes = (
{
closed = 1;
nodes = (
(1585,1090,o),
(1395,1239,o),
(1217,1239,cs),
(967,1239,o),
(858,1090,o),
(858,926,cs),
(858,637,o),
(1110,496,o),
(1382,496,cs),
(1395,496,l),
(1296,311,o),
(1108,160,o),
(842,160,cs),
(578,160,o),
(328,353,o),
(328,689,cs),
(328,1055,o),
(602,1411,o),
(1040,1411,cs),
(1071,1411,o),
(1104,1409,o),
(1139,1403,c),
(1143,1505,l),
(1096,1513,o),
(1049,1518,o),
(1006,1518,cs),
(442,1518,o),
(100,1064,o),
(100,605,cs),
(100,165,o),
(391,-57,o),
(715,-57,cs),
(1047,-57,o),
(1415,164,o),
(1540,510,c),
(1653,532,o),
(1763,580,o),
(1853,651,c),
(1853,743,l),
(1757,686,o),
(1663,651,o),
(1573,637,c),
(1581,678,o),
(1585,723,o),
(1585,768,cs)
);
},
{
closed = 1;
nodes = (
(1030,1073,o),
(1077,1126,o),
(1190,1126,cs),
(1382,1126,o),
(1475,979,o),
(1475,799,cs),
(1475,743,o),
(1466,684,o),
(1448,627,c),
(1206,631,o),
(1030,786,o),
(1030,999,cs)
);
},
{
closed = 0;
nodes = (
(2706,805,ls)
);
},
{
closed = 1;
nodes = (
(2767,1280,o),
(2794,1319,o),
(2794,1343,cs),
(2794,1374,o),
(2763,1389,o),
(2687,1389,cs),
(2599,1389,o),
(2484,1104,o),
(2450,973,c),
(2495,934,l),
(2536,985,o),
(2632,1118,o),
(2728,1233,cs)
);
},
{
closed = 1;
nodes = (
(3138,1292,o),
(3140,1300,o),
(3140,1309,cs),
(3140,1343,o),
(3074,1382,o),
(3025,1382,cs),
(2929,1382,o),
(2755,1102,o),
(2702,987,c),
(2745,944,l),
(2804,991,o),
(2937,1112,o),
(3060,1225,c),
(3130,1288,l)
);
}
);
};
layerId = m001;
shapes = (
{
ref = O;
},
{
pos = (895,708);
ref = hungarumlautcomb;
}
);
width = 1653;
}
);
unicode = 336;
},
{
glyphname = Omacron;
lastChange = "2023-08-03 09:40:13 +0000";
layers = (
{
background = {
shapes = (
{
closed = 1;
nodes = (
(1585,1090,o),
(1395,1239,o),
(1217,1239,cs),
(967,1239,o),
(858,1090,o),
(858,926,cs),
(858,637,o),
(1110,496,o),
(1382,496,cs),
(1395,496,l),
(1296,311,o),
(1108,160,o),
(842,160,cs),
(578,160,o),
(328,353,o),
(328,689,cs),
(328,1055,o),
(602,1411,o),
(1040,1411,cs),
(1071,1411,o),
(1104,1409,o),
(1139,1403,c),
(1143,1505,l),
(1096,1513,o),
(1049,1518,o),
(1006,1518,cs),
(442,1518,o),
(100,1064,o),
(100,605,cs),
(100,165,o),
(391,-57,o),
(715,-57,cs),
(1047,-57,o),
(1415,164,o),
(1540,510,c),
(1653,532,o),
(1763,580,o),
(1853,651,c),
(1853,743,l),
(1757,686,o),
(1663,651,o),
(1573,637,c),
(1581,678,o),
(1585,723,o),
(1585,768,cs)
);
},
{
closed = 1;
nodes = (
(1030,1073,o),
(1077,1126,o),
(1190,1126,cs),
(1382,1126,o),
(1475,979,o),
(1475,799,cs),
(1475,743,o),
(1466,684,o),
(1448,627,c),
(1206,631,o),
(1030,786,o),
(1030,999,cs)
);
},
{
closed = 0;
nodes = (
(2159,821,ls)
);
},
{
closed = 1;
nodes = (
(1893,1083,o),
(1866,1067,o),
(1866,1004,cs),
(1866,961,o),
(1913,963,o),
(1923,963,cs),
(2179,981,o),
(2224,981,o),
(2269,981,cs),
(2312,981,o),
(2360,979,o),
(2407,979,cs),
(2460,979,o),
(2507,1038,o),
(2507,1075,cs),
(2507,1108,o),
(2411,1116,o),
(2298,1116,cs),
(2128,1116,o),
(1944,1098,o),
(1915,1090,cs)
);
}
);
};
layerId = m001;
shapes = (
{
ref = O;
},
{
pos = (756,678);
ref = macroncomb;
}
);
width = 1653;
}
);
unicode = 332;
},
{
glyphname = Oslash;
lastChange = "2023-08-03 09:40:13 +0000";
layers = (
{
anchors = (
{
name = bottom;
pos = (827,0);
},
{
name = top;
pos = (827,1518);
}
);
background = {
shapes = (
{
closed = 1;
nodes = (
(1585,994,o),
(1491,1134,o),
(1374,1198,c),
(1591,1477,ls),
(1597,1485,o),
(1602,1501,o),
(1602,1509,cs),
(1602,1542,o),
(1563,1536,o),
(1550,1536,cs),
(1487,1536,o),
(1479,1499,o),
(1393,1393,c),
(1268,1235,l),
(1251,1238,o),
(1234,1239,o),
(1217,1239,cs),
(967,1239,o),
(858,1090,o),
(858,926,cs),
(858,862,o),
(870,806,o),
(892,756,c),
(515,274,l),
(403,369,o),
(328,525,o),
(328,748,cs),
(328,1044,o),
(602,1411,o),
(1040,1411,cs),
(1071,1411,o),
(1104,1409,o),
(1139,1403,c),
(1143,1505,l),
(1096,1513,o),
(1049,1518,o),
(1006,1518,cs),
(442,1518,o),
(100,1053,o),
(100,664,cs),
(100,365,o),
(199,169,o),
(347,58,c),
(317,19,o),
(295,-10,o),
(283,-27,c),
(262,-63,o),
(209,-111,o),
(209,-139,cs),
(209,-156,o),
(236,-162,o),
(252,-162,cs),
(328,-162,o),
(401,-53,o),
(401,-53,c),
(443,1,l),
(526,-38,o),
(619,-57,o),
(715,-57,cs),
(1047,-57,o),
(1415,164,o),
(1540,510,c),
(1653,532,o),
(1763,580,o),
(1853,651,c),
(1853,743,l),
(1757,686,o),
(1663,651,o),
(1573,637,c),
(1581,678,o),
(1585,723,o),
(1585,768,cs)
);
},
{
closed = 1;
nodes = (
(1395,496,l),
(1296,311,o),
(1108,160,o),
(842,160,cs),
(760,160,o),
(680,177,o),
(608,213,c),
(955,660,l),
(1053,550,o),
(1213,496,o),
(1382,496,cs)
);
},
{
closed = 1;
nodes = (
(1030,1073,o),
(1077,1126,o),
(1190,1126,cs),
(1382,1126,o),
(1475,979,o),
(1475,799,cs),
(1475,743,o),
(1466,684,o),
(1448,627,c),
(1206,631,o),
(1030,786,o),
(1030,999,cs)
);
}
);
};
layerId = m001;
shapes = (
{
closed = 1;
nodes = (
(328,-162,o),
(401,-53,o),
(401,-53,c),
(443,1,l),
(526,-38,o),
(619,-57,o),
(715,-57,cs),
(1047,-57,o),
(1415,164,o),
(1540,510,c),
(1653,532,o),
(1763,580,o),
(1853,651,c),
(1853,743,l),
(1757,686,o),
(1663,651,o),
(1573,637,c),
(1581,678,o),
(1585,723,o),
(1585,768,cs),
(1585,994,o),
(1491,1134,o),
(1374,1198,c),
(1591,1477,ls),
(1597,1485,o),
(1602,1501,o),
(1602,1509,cs),
(1602,1542,o),
(1563,1536,o),
(1550,1536,cs),
(1487,1536,o),
(1479,1499,o),
(1393,1393,c),
(1268,1235,l),
(1251,1238,o),
(1234,1239,o),
(1217,1239,cs),
(967,1239,o),
(858,1090,o),
(858,926,cs),
(858,862,o),
(870,806,o),
(892,756,c),
(515,274,l),
(403,369,o),
(328,525,o),
(328,748,cs),
(328,1044,o),
(602,1411,o),
(1040,1411,cs),
(1071,1411,o),
(1104,1409,o),
(1139,1403,c),
(1143,1505,l),
(1096,1513,o),
(1049,1518,o),
(1006,1518,cs),
(442,1518,o),
(100,1053,o),
(100,664,cs),
(100,365,o),
(199,169,o),
(347,58,c),
(317,19,o),
(295,-10,o),
(283,-27,c),
(262,-63,o),
(209,-111,o),
(209,-139,cs),
(209,-156,o),
(236,-162,o),
(252,-162,cs)
);
},
{
closed = 1;
nodes = (
(760,160,o),
(680,177,o),
(608,213,c),
(955,660,l),
(1053,550,o),
(1213,496,o),
(1382,496,cs),
(1395,496,l),
(1296,311,o),
(1108,160,o),
(842,160,cs)
);
},
{
closed = 1;
nodes = (
(1206,631,o),
(1030,786,o),
(1030,999,cs),
(1030,1073,o),
(1077,1126,o),
(1190,1126,cs),
(1382,1126,o),
(1475,979,o),
(1475,799,cs),
(1475,743,o),
(1466,684,o),
(1448,627,c)
);
}
);
width = 1653;
}
);
unicode = 216;
},
{
glyphname = Otilde;
lastChange = "2023-08-03 09:40:13 +0000";
layers = (
{
background = {
shapes = (
{
closed = 1;
nodes = (
(1585,1090,o),
(1395,1239,o),
(1217,1239,cs),
(967,1239,o),
(858,1090,o),
(858,926,cs),
(858,637,o),
(1110,496,o),
(1382,496,cs),
(1395,496,l),
(1296,311,o),
(1108,160,o),
(842,160,cs),
(578,160,o),
(328,353,o),
(328,689,cs),
(328,1055,o),
(602,1411,o),
(1040,1411,cs),
(1071,1411,o),
(1104,1409,o),
(1139,1403,c),
(1143,1505,l),
(1096,1513,o),
(1049,1518,o),
(1006,1518,cs),
(442,1518,o),
(100,1064,o),
(100,605,cs),
(100,165,o),
(391,-57,o),
(715,-57,cs),
(1047,-57,o),
(1415,164,o),
(1540,510,c),
(1653,532,o),
(1763,580,o),
(1853,651,c),
(1853,743,l),
(1757,686,o),
(1663,651,o),
(1573,637,c),
(1581,678,o),
(1585,723,o),
(1585,768,cs)
);
},
{
closed = 1;
nodes = (
(1030,1073,o),
(1077,1126,o),
(1190,1126,cs),
(1382,1126,o),
(1475,979,o),
(1475,799,cs),
(1475,743,o),
(1466,684,o),
(1448,627,c),
(1206,631,o),
(1030,786,o),
(1030,999,cs)
);
},
{
closed = 0;
nodes = (
(1136,1518,ls)
);
},
{
closed = 1;
nodes = (
(1515,1674,l),
(1511,1686,o),
(1519,1895,o),
(1339,1895,cs),
(1241,1895,o),
(1118,1819,o),
(1036,1819,cs),
(993,1819,o),
(962,1837,o),
(954,1901,c),
(846,1880,l),
(850,1868,o),
(842,1659,o),
(1022,1659,cs),
(1130,1659,o),
(1241,1743,o),
(1315,1743,cs),
(1351,1743,o),
(1378,1721,o),
(1390,1655,c)
);
}
);
};
layerId = m001;
shapes = (
{
ref = O;
},
{
pos = (742,678);
ref = tildecomb;
}
);
width = 1653;
}
);
unicode = 213;
},
{
glyphname = OE;
lastChange = "2023-08-03 09:40:13 +0000";
layers = (
{
anchors = (
{
name = bottom;
pos = (1053,0);
},
{
name = top;
pos = (1053,1518);
}
);
background = {
shapes = (
{
closed = 1;
nodes = (
(1579,-23,o),
(1575,-57,o),
(1595,-57,cs),
(1829,-57,o),
(1976,106,o),
(2226,328,c),
(2226,438,l),
(1931,129,o),
(1802,119,o),
(1782,119,cs),
(1718,119,o),
(1454,227,o),
(1413,240,c),
(1399,238,o),
(1384,238,o),
(1376,238,cs),
(1358,238,o),
(1337,240,o),
(1319,240,cs),
(1309,240,o),
(1296,238,o),
(1286,238,c),
(1360,360,o),
(1434,500,o),
(1477,657,c),
(1477,659,l),
(1616,670,o),
(1753,670,o),
(1911,670,cs),
(1964,670,o),
(2011,729,o),
(2011,766,cs),
(2011,784,o),
(2001,799,o),
(1974,799,cs),
(1896,799,o),
(1827,805,o),
(1755,805,cs),
(1671,805,o),
(1589,801,o),
(1511,795,c),
(1575,995,o),
(1620,1196,o),
(1665,1356,c),
(1796,1350,o),
(1939,1311,o),
(2058,1311,cs),
(2093,1311,o),
(2122,1325,o),
(2152,1346,c),
(2253,1460,ls),
(2265,1473,o),
(2271,1479,o),
(2271,1491,cs),
(2271,1516,o),
(1939,1518,o),
(1651,1518,cs),
(1057,1518,ls),
(401,1518,o),
(100,965,o),
(100,514,cs),
(100,205,o),
(268,-57,o),
(623,-57,cs),
(793,-57,o),
(979,8,o),
(1110,119,c),
(1145,109,l)
);
},
{
closed = 1;
nodes = (
(1415,1272,o),
(1348,1092,o),
(1253,760,c),
(1077,725,o),
(977,715,o),
(977,637,cs),
(977,600,o),
(1010,594,o),
(1026,594,cs),
(1030,594,o),
(1032,596,o),
(1034,596,cs),
(1098,610,o),
(1159,623,o),
(1217,631,c),
(1169,461,o),
(1128,315,o),
(1104,279,c),
(1102,272,l),
(1018,207,o),
(907,160,o),
(750,160,cs),
(465,160,o),
(326,371,o),
(326,618,cs),
(326,967,o),
(567,1391,o),
(1051,1391,cs),
(1075,1391,o),
(1520,1364,o),
(1544,1360,c)
);
}
);
};
layerId = m001;
shapes = (
{
closed = 1;
nodes = (
(793,-57,o),
(979,8,o),
(1110,119,c),
(1145,109,l),
(1579,-23,o),
(1575,-57,o),
(1595,-57,cs),
(1829,-57,o),
(1976,106,o),
(2226,328,c),
(2226,438,l),
(1931,129,o),
(1802,119,o),
(1782,119,cs),
(1718,119,o),
(1454,227,o),
(1413,240,c),
(1399,238,o),
(1384,238,o),
(1376,238,cs),
(1358,238,o),
(1337,240,o),
(1319,240,cs),
(1309,240,o),
(1296,238,o),
(1286,238,c),
(1360,360,o),
(1434,500,o),
(1477,657,c),
(1477,659,l),
(1616,670,o),
(1753,670,o),
(1911,670,cs),
(1964,670,o),
(2011,729,o),
(2011,766,cs),
(2011,784,o),
(2001,799,o),
(1974,799,cs),
(1896,799,o),
(1827,805,o),
(1755,805,cs),
(1671,805,o),
(1589,801,o),
(1511,795,c),
(1575,995,o),
(1620,1196,o),
(1665,1356,c),
(1796,1350,o),
(1939,1311,o),
(2058,1311,cs),
(2093,1311,o),
(2122,1325,o),
(2152,1346,c),
(2253,1460,ls),
(2265,1473,o),
(2271,1479,o),
(2271,1491,cs),
(2271,1516,o),
(1939,1518,o),
(1651,1518,cs),
(1057,1518,ls),
(401,1518,o),
(100,965,o),
(100,514,cs),
(100,205,o),
(268,-57,o),
(623,-57,cs)
);
},
{
closed = 1;
nodes = (
(465,160,o),
(326,371,o),
(326,618,cs),
(326,967,o),
(567,1391,o),
(1051,1391,cs),
(1075,1391,o),
(1520,1364,o),
(1544,1360,c),
(1415,1272,o),
(1348,1092,o),
(1253,760,c),
(1077,725,o),
(977,715,o),
(977,637,cs),
(977,600,o),
(1010,594,o),
(1026,594,cs),
(1030,594,o),
(1032,596,o),
(1034,596,cs),
(1098,610,o),
(1159,623,o),
(1217,631,c),
(1169,461,o),
(1128,315,o),
(1104,279,c),
(1102,272,l),
(1018,207,o),
(907,160,o),
(750,160,cs)
);
}
);
width = 2105;
}
);
unicode = 338;
},
{
glyphname = P;
lastChange = "2023-08-03 09:40:13 +0000";
layers = (
{
anchors = (
{
name = bottom;
pos = (659,0);
},
{
name = top;
pos = (659,1518);
}
);
background = {
shapes = (
{
closed = 1;
nodes = (
(764,594,o),
(811,590,o),
(856,590,cs),
(1268,590,o),
(1528,854,o),
(1528,1100,cs),
(1528,1315,o),
(1329,1518,o),
(860,1518,cs),
(469,1518,o),
(47,1358,o),
(47,1069,cs),
(47,909,o),
(207,797,o),
(346,754,c),
(365,793,o),
(373,868,o),
(373,913,c),
(281,948,o),
(209,987,o),
(209,1094,cs),
(209,1272,o),
(571,1393,o),
(799,1393,cs),
(1120,1393,o),
(1274,1235,o),
(1274,1071,cs),
(1274,893,o),
(1100,711,o),
(760,711,cs),
(735,711,l),
(772,860,o),
(827,1153,o),
(840,1249,c),
(752,1247,ls),
(723,1247,o),
(621,1235,o),
(612,1190,cs),
(502,614,ls),
(471,451,o),
(393,-82,o),
(178,-82,cs),
(86,-82,o),
(61,-12,o),
(61,66,cs),
(61,96,o),
(63,137,o),
(63,176,c),
(-33,176,o),
(-133,152,o),
(-133,53,cs),
(-133,-104,o),
(12,-180,o),
(160,-180,cs),
(360,-180,o),
(621,-31,o),
(715,602,c)
);
}
);
};
layerId = m001;
shapes = (
{
closed = 1;
nodes = (
(360,-180,o),
(621,-31,o),
(715,602,c),
(764,594,o),
(811,590,o),
(856,590,cs),
(1268,590,o),
(1528,854,o),
(1528,1100,cs),
(1528,1315,o),
(1329,1518,o),
(860,1518,cs),
(469,1518,o),
(47,1358,o),
(47,1069,cs),
(47,909,o),
(207,797,o),
(346,754,c),
(365,793,o),
(373,868,o),
(373,913,c),
(281,948,o),
(209,987,o),
(209,1094,cs),
(209,1272,o),
(571,1393,o),
(799,1393,cs),
(1120,1393,o),
(1274,1235,o),
(1274,1071,cs),
(1274,893,o),
(1100,711,o),
(760,711,cs),
(735,711,l),
(772,860,o),
(827,1153,o),
(840,1249,c),
(752,1247,ls),
(723,1247,o),
(621,1235,o),
(612,1190,cs),
(502,614,ls),
(471,451,o),
(393,-82,o),
(178,-82,cs),
(86,-82,o),
(61,-12,o),
(61,66,cs),
(61,96,o),
(63,137,o),
(63,176,c),
(-33,176,o),
(-133,152,o),
(-133,53,cs),
(-133,-104,o),
(12,-180,o),
(160,-180,cs)
);
}
);
width = 1317;
}
);
unicode = 80;
},
{
glyphname = Thorn;
lastChange = "2023-08-03 09:40:13 +0000";
layers = (
{
anchors = (
{
name = bottom;
pos = (777,0);
},
{
name = top;
pos = (777,1518);
}
);
background = {
shapes = (
{
closed = 1;
nodes = (
(756,381,o),
(834,373,o),
(905,373,cs),
(1317,373,o),
(1548,616,o),
(1548,848,cs),
(1548,1063,o),
(1354,1268,o),
(922,1268,cs),
(897,1268,o),
(870,1268,o),
(844,1266,c),
(877,1462,l),
(801,1462,ls),
(772,1462,o),
(657,1448,o),
(649,1403,cs),
(502,614,ls),
(471,451,o),
(393,-82,o),
(178,-82,cs),
(86,-82,o),
(61,-12,o),
(61,66,cs),
(61,96,o),
(63,137,o),
(63,176,c),
(-33,176,o),
(-133,152,o),
(-133,53,cs),
(-133,-104,o),
(12,-180,o),
(160,-180,cs),
(344,-180,o),
(559,-63,o),
(674,397,c)
);
},
{
closed = 1;
nodes = (
(1206,1145,o),
(1384,977,o),
(1384,811,cs),
(1384,651,o),
(1219,496,o),
(864,496,cs),
(811,496,o),
(756,498,o),
(694,506,c),
(719,612,o),
(776,905,o),
(821,1143,c),
(840,1145,o),
(858,1145,o),
(877,1145,cs)
);
}
);
};
layerId = m001;
shapes = (
{
closed = 1;
nodes = (
(344,-180,o),
(559,-63,o),
(674,397,c),
(756,381,o),
(834,373,o),
(905,373,cs),
(1317,373,o),
(1548,616,o),
(1548,848,cs),
(1548,1063,o),
(1354,1268,o),
(922,1268,cs),
(897,1268,o),
(870,1268,o),
(844,1266,c),
(877,1462,l),
(801,1462,ls),
(772,1462,o),
(657,1448,o),
(649,1403,cs),
(502,614,ls),
(471,451,o),
(393,-82,o),
(178,-82,cs),
(86,-82,o),
(61,-12,o),
(61,66,cs),
(61,96,o),
(63,137,o),
(63,176,c),
(-33,176,o),
(-133,152,o),
(-133,53,cs),
(-133,-104,o),
(12,-180,o),
(160,-180,cs)
);
},
{
closed = 1;
nodes = (
(811,496,o),
(756,498,o),
(694,506,c),
(719,612,o),
(776,905,o),
(821,1143,c),
(840,1145,o),
(858,1145,o),
(877,1145,cs),
(1206,1145,o),
(1384,977,o),
(1384,811,cs),
(1384,651,o),
(1219,496,o),
(864,496,cs)
);
}
);
width = 1554;
}
);
unicode = 222;
},
{
glyphname = Q;
lastChange = "2023-08-03 09:40:13 +0000";
layers = (
{
background = {
shapes = (
{
closed = 1;
nodes = (
(1546,1090,o),
(1356,1239,o),
(1178,1239,cs),
(928,1239,o),
(819,1090,o),
(819,926,cs),
(819,637,o),
(1071,496,o),
(1343,496,cs),
(1356,496,l),
(1257,311,o),
(1069,160,o),
(803,160,cs),
(539,160,o),
(289,353,o),
(289,689,cs),
(289,1055,o),
(563,1411,o),
(1001,1411,cs),
(1032,1411,o),
(1065,1409,o),
(1100,1403,c),
(1104,1505,l),
(1057,1513,o),
(1010,1518,o),
(967,1518,cs),
(403,1518,o),
(61,1064,o),
(61,605,cs),
(61,165,o),
(352,-57,o),
(676,-57,cs),
(1008,-57,o),
(1376,164,o),
(1501,510,c),
(1614,532,o),
(1724,580,o),
(1814,651,c),
(1814,743,l),
(1718,686,o),
(1624,651,o),
(1534,637,c),
(1542,678,o),
(1546,723,o),
(1546,768,cs)
);
},
{
closed = 1;
nodes = (
(991,1073,o),
(1038,1126,o),
(1151,1126,cs),
(1343,1126,o),
(1436,979,o),
(1436,799,cs),
(1436,743,o),
(1427,684,o),
(1409,627,c),
(1167,631,o),
(991,786,o),
(991,999,cs)
);
},
{
closed = 1;
nodes = (
(178,-209,l),
(129,-209,o),
(111,-244,o),
(111,-289,cs),
(111,-461,o),
(291,-518,o),
(420,-518,cs),
(586,-518,o),
(692,-436,o),
(729,-348,c),
(797,-342,o),
(1004,-305,o),
(1065,-272,c),
(1055,-152,l),
(995,-195,o),
(834,-217,o),
(754,-229,c),
(977,371,l),
(891,371,o),
(801,371,o),
(784,326,cs),
(756,252,o),
(604,-188,o),
(563,-236,c)
);
},
{
closed = 1;
nodes = (
(520,-373,o),
(494,-424,o),
(434,-424,cs),
(332,-424,o),
(256,-375,o),
(256,-346,cs),
(256,-324,o),
(266,-324,o),
(301,-324,c),
(330,-326,o),
(371,-334,o),
(422,-334,cs),
(537,-334,l)
);
}
);
};
layerId = m001;
shapes = (
{
closed = 1;
nodes = (
(586,-518,o),
(692,-436,o),
(729,-348,c),
(797,-342,o),
(1004,-305,o),
(1065,-272,c),
(1055,-152,l),
(995,-195,o),
(834,-217,o),
(754,-229,c),
(977,371,l),
(891,371,o),
(801,371,o),
(784,326,cs),
(756,252,o),
(604,-188,o),
(563,-236,c),
(178,-209,l),
(129,-209,o),
(111,-244,o),
(111,-289,cs),
(111,-461,o),
(291,-518,o),
(420,-518,cs)
);
},
{
closed = 1;
nodes = (
(332,-424,o),
(256,-375,o),
(256,-346,cs),
(256,-324,o),
(266,-324,o),
(301,-324,c),
(330,-326,o),
(371,-334,o),
(422,-334,cs),
(537,-334,l),
(520,-373,o),
(494,-424,o),
(434,-424,cs)
);
},
{
pos = (-39,0);
ref = O;
}
);
userData = {
com.fontlab.hintData = {
hhints = (
{
position = -518;
width = 94;
},
{
position = -57;
width = 217;
},
{
position = 496;
width = 131;
},
{
position = 1126;
width = 113;
},
{
position = 1411;
width = 107;
}
);
vhints = (
{
position = 61;
width = 228;
},
{
position = 111;
width = 145;
},
{
position = 819;
width = 172;
},
{
position = 1436;
width = 110;
}
);
};
};
width = 1632;
}
);
unicode = 81;
},
{
glyphname = R;
lastChange = "2023-08-03 09:40:13 +0000";
layers = (
{
anchors = (
{
name = bottom;
pos = (748,0);
},
{
name = top;
pos = (928,1518);
}
);
background = {
shapes = (
{
closed = 0;
nodes = (
(891,1518,ls)
);
},
{
closed = 1;
nodes = (
(799,868,o),
(836,1061,o),
(858,1247,c),
(831,1249,o),
(809,1249,o),
(791,1249,cs),
(655,1249,o),
(645,1204,o),
(629,1155,cs),
(594,1051,o),
(477,53,o),
(238,53,cs),
(133,53,o),
(113,154,o),
(113,242,cs),
(113,268,o),
(115,295,o),
(117,315,c),
(113,317,o),
(106,319,o),
(102,319,cs),
(-12,319,o),
(-115,283,o),
(-115,205,cs),
(-115,31,o),
(63,-57,o),
(215,-57,cs),
(590,-57,o),
(684,360,o),
(748,600,c),
(854,459,o),
(950,211,o),
(973,150,c),
(1028,72,o),
(1059,-57,o),
(1233,-57,cs),
(1405,-57,o),
(1604,186,o),
(1739,332,c),
(1737,434,l),
(1647,350,o),
(1409,96,o),
(1335,96,cs),
(1270,96,o),
(1141,561,o),
(981,649,c),
(1331,739,o),
(1544,850,o),
(1544,1098,cs),
(1544,1360,o),
(1219,1518,o),
(891,1518,cs),
(489,1518,o),
(72,1348,o),
(72,1071,cs),
(72,899,o),
(223,801,o),
(369,754,c),
(387,801,o),
(395,862,o),
(395,913,c),
(317,944,o),
(233,987,o),
(233,1085,cs),
(233,1282,o),
(582,1393,o),
(870,1393,cs),
(1116,1393,o),
(1278,1239,o),
(1278,1083,cs),
(1278,920,o),
(1081,688,o),
(762,688,c)
);
}
);
};
layerId = m001;
shapes = (
{
closed = 1;
nodes = (
(590,-57,o),
(684,360,o),
(748,600,c),
(854,459,o),
(950,211,o),
(973,150,c),
(1028,72,o),
(1059,-57,o),
(1233,-57,cs),
(1405,-57,o),
(1604,186,o),
(1739,332,c),
(1737,434,l),
(1647,350,o),
(1409,96,o),
(1335,96,cs),
(1270,96,o),
(1141,561,o),
(981,649,c),
(1331,739,o),
(1544,850,o),
(1544,1098,cs),
(1544,1360,o),
(1219,1518,o),
(891,1518,cs),
(489,1518,o),
(72,1348,o),
(72,1071,cs),
(72,899,o),
(223,801,o),
(369,754,c),
(387,801,o),
(395,862,o),
(395,913,c),
(317,944,o),
(233,987,o),
(233,1085,cs),
(233,1282,o),
(582,1393,o),
(870,1393,cs),
(1116,1393,o),
(1278,1239,o),
(1278,1083,cs),
(1278,920,o),
(1081,688,o),
(762,688,c),
(799,868,o),
(836,1061,o),
(858,1247,c),
(831,1249,o),
(809,1249,o),
(791,1249,cs),
(655,1249,o),
(645,1204,o),
(629,1155,cs),
(594,1051,o),
(477,53,o),
(238,53,cs),
(133,53,o),
(113,154,o),
(113,242,cs),
(113,268,o),
(115,295,o),
(117,315,c),
(113,317,o),
(106,319,o),
(102,319,cs),
(-12,319,o),
(-115,283,o),
(-115,205,cs),
(-115,31,o),
(63,-57,o),
(215,-57,cs)
);
}
);
width = 1616;
}
);
unicode = 82;
},
{
glyphname = Racute;
lastChange = "2023-08-03 09:40:13 +0000";
layers = (
{
background = {
shapes = (
{
closed = 0;
nodes = (
(891,1518,ls)
);
},
{
closed = 1;
nodes = (
(799,868,o),
(836,1061,o),
(858,1247,c),
(831,1249,o),
(809,1249,o),
(791,1249,cs),
(655,1249,o),
(645,1204,o),
(629,1155,cs),
(594,1051,o),
(477,53,o),
(238,53,cs),
(133,53,o),
(113,154,o),
(113,242,cs),
(113,268,o),
(115,295,o),
(117,315,c),
(113,317,o),
(106,319,o),
(102,319,cs),
(-12,319,o),
(-115,283,o),
(-115,205,cs),
(-115,31,o),
(63,-57,o),
(215,-57,cs),
(590,-57,o),
(684,360,o),
(748,600,c),
(854,459,o),
(950,211,o),
(973,150,c),
(1028,72,o),
(1059,-57,o),
(1233,-57,cs),
(1405,-57,o),
(1604,186,o),
(1739,332,c),
(1737,434,l),
(1647,350,o),
(1409,96,o),
(1335,96,cs),
(1270,96,o),
(1141,561,o),
(981,649,c),
(1331,739,o),
(1544,850,o),
(1544,1098,cs),
(1544,1360,o),
(1219,1518,o),
(891,1518,cs),
(489,1518,o),
(72,1348,o),
(72,1071,cs),
(72,899,o),
(223,801,o),
(369,754,c),
(387,801,o),
(395,862,o),
(395,913,c),
(317,944,o),
(233,987,o),
(233,1085,cs),
(233,1282,o),
(582,1393,o),
(870,1393,cs),
(1116,1393,o),
(1278,1239,o),
(1278,1083,cs),
(1278,920,o),
(1081,688,o),
(762,688,c)
);
},
{
closed = 0;
nodes = (
(891,1518,ls)
);
},
{
closed = 1;
nodes = (
(1233,1835,o),
(1237,1848,o),
(1237,1860,cs),
(1237,1899,o),
(1177,1962,o),
(1130,1962,c),
(1020,1956,o),
(801,1792,o),
(710,1708,c),
(733,1653,l),
(805,1678,o),
(975,1735,o),
(1130,1796,cs),
(1218,1831,l)
);
}
);
};
layerId = m001;
shapes = (
{
ref = R;
},
{
pos = (564,678);
ref = acutecomb;
}
);
width = 1616;
}
);
unicode = 340;
},
{
glyphname = Rcaron;
lastChange = "2023-08-03 09:40:13 +0000";
layers = (
{
background = {
shapes = (
{
closed = 0;
nodes = (
(891,1518,ls)
);
},
{
closed = 1;
nodes = (
(799,868,o),
(836,1061,o),
(858,1247,c),
(831,1249,o),
(809,1249,o),
(791,1249,cs),
(655,1249,o),
(645,1204,o),
(629,1155,cs),
(594,1051,o),
(477,53,o),
(238,53,cs),
(133,53,o),
(113,154,o),
(113,242,cs),
(113,268,o),
(115,295,o),
(117,315,c),
(113,317,o),
(106,319,o),
(102,319,cs),
(-12,319,o),
(-115,283,o),
(-115,205,cs),
(-115,31,o),
(63,-57,o),
(215,-57,cs),
(590,-57,o),
(684,360,o),
(748,600,c),
(854,459,o),
(950,211,o),
(973,150,c),
(1028,72,o),
(1059,-57,o),
(1233,-57,cs),
(1405,-57,o),
(1604,186,o),
(1739,332,c),
(1737,434,l),
(1647,350,o),
(1409,96,o),
(1335,96,cs),
(1270,96,o),
(1141,561,o),
(981,649,c),
(1331,739,o),
(1544,850,o),
(1544,1098,cs),
(1544,1360,o),
(1219,1518,o),
(891,1518,cs),
(489,1518,o),
(72,1348,o),
(72,1071,cs),
(72,899,o),
(223,801,o),
(369,754,c),
(387,801,o),
(395,862,o),
(395,913,c),
(317,944,o),
(233,987,o),
(233,1085,cs),
(233,1282,o),
(582,1393,o),
(870,1393,cs),
(1116,1393,o),
(1278,1239,o),
(1278,1083,cs),
(1278,920,o),
(1081,688,o),
(762,688,c)
);
},
{
closed = 0;
nodes = (
(891,1518,ls)
);
},
{
closed = 1;
nodes = (
(1153,2075,l),
(1153,2075,o),
(1020,1911,o),
(932,1805,c),
(887,1911,o),
(817,2075,o),
(817,2075,c),
(704,2052,l),
(706,2044,o),
(831,1657,o),
(903,1657,cs),
(987,1657,o),
(1161,1899,o),
(1249,2052,c)
);
}
);
};
layerId = m001;
shapes = (
{
ref = R;
},
{
pos = (555,678);
ref = caroncomb;
}
);
width = 1616;
}
);
unicode = 344;
},
{
glyphname = Rcommaaccent;
lastChange = "2023-08-03 09:40:13 +0000";
layers = (
{
background = {
shapes = (
{
closed = 0;
nodes = (
(891,1518,ls)
);
},
{
closed = 1;
nodes = (
(799,868,o),
(836,1061,o),
(858,1247,c),
(831,1249,o),
(809,1249,o),
(791,1249,cs),
(655,1249,o),
(645,1204,o),
(629,1155,cs),
(594,1051,o),
(477,53,o),
(238,53,cs),
(133,53,o),
(113,154,o),
(113,242,cs),
(113,268,o),
(115,295,o),
(117,315,c),
(113,317,o),
(106,319,o),
(102,319,cs),
(-12,319,o),
(-115,283,o),
(-115,205,cs),
(-115,31,o),
(63,-57,o),
(215,-57,cs),
(590,-57,o),
(684,360,o),
(748,600,c),
(854,459,o),
(950,211,o),
(973,150,c),
(1028,72,o),
(1059,-57,o),
(1233,-57,cs),
(1405,-57,o),
(1604,186,o),
(1739,332,c),
(1737,434,l),
(1647,350,o),
(1409,96,o),
(1335,96,cs),
(1270,96,o),
(1141,561,o),
(981,649,c),
(1331,739,o),
(1544,850,o),
(1544,1098,cs),
(1544,1360,o),
(1219,1518,o),
(891,1518,cs),
(489,1518,o),
(72,1348,o),
(72,1071,cs),
(72,899,o),
(223,801,o),
(369,754,c),
(387,801,o),
(395,862,o),
(395,913,c),
(317,944,o),
(233,987,o),
(233,1085,cs),
(233,1282,o),
(582,1393,o),
(870,1393,cs),
(1116,1393,o),
(1278,1239,o),
(1278,1083,cs),
(1278,920,o),
(1081,688,o),
(762,688,c)
);
},
{
closed = 0;
nodes = (
(762,0,ls)
);
},
{
closed = 1;
nodes = (
(678,-90,o),
(618,-180,o),
(618,-248,cs),
(618,-289,o),
(641,-326,o),
(696,-326,c),
(688,-424,o),
(673,-520,o),
(673,-520,c),
(731,-541,l),
(753,-483,o),
(862,-250,o),
(862,-166,cs),
(862,-119,o),
(835,-90,o),
(757,-90,cs)
);
}
);
};
layerId = m001;
shapes = (
{
ref = R;
},
{
pos = (526,0);
ref = commaaccentcomb;
}
);
width = 1616;
}
);
unicode = 342;
},
{
glyphname = S;
lastChange = "2023-08-03 09:40:13 +0000";
layers = (
{
anchors = (
{
name = bottom;
pos = (335,-120);
},
{
name = top;
pos = (855,1518);
}
);
background = {
shapes = (
{
closed = 0;
nodes = (
(805,1518,ls)
);
},
{
closed = 1;
nodes = (
(387,1313,o),
(592,1423,o),
(756,1423,cs),
(872,1423,o),
(965,1376,o),
(965,1225,cs),
(965,1171,o),
(762,1094,o),
(698,1057,c),
(698,958,l),
(756,979,o),
(1145,1198,o),
(1145,1227,cs),
(1145,1450,o),
(944,1518,o),
(803,1518,cs),
(528,1518,o),
(170,1337,o),
(170,1024,cs),
(170,752,o),
(709,492,o),
(709,219,cs),
(709,23,o),
(485,-88,o),
(328,-88,cs),
(133,-88,o),
(135,8,o),
(135,111,cs),
(135,145,o),
(137,182,o),
(139,209,c),
(96,207,ls),
(8,203,o),
(-70,150,o),
(-70,59,cs),
(-70,-106,o),
(109,-180,o),
(252,-180,cs),
(557,-180,o),
(926,-10,o),
(926,324,cs),
(926,723,o),
(387,862,o),
(387,1126,cs)
);
}
);
};
layerId = m001;
shapes = (
{
closed = 1;
nodes = (
(557,-180,o),
(926,-10,o),
(926,324,cs),
(926,723,o),
(387,862,o),
(387,1126,cs),
(387,1313,o),
(592,1423,o),
(756,1423,cs),
(872,1423,o),
(965,1376,o),
(965,1225,cs),
(965,1171,o),
(762,1094,o),
(698,1057,c),
(698,958,l),
(756,979,o),
(1145,1198,o),
(1145,1227,cs),
(1145,1450,o),
(944,1518,o),
(803,1518,cs),
(528,1518,o),
(170,1337,o),
(170,1024,cs),
(170,752,o),
(709,492,o),
(709,219,cs),
(709,23,o),
(485,-88,o),
(328,-88,cs),
(133,-88,o),
(135,8,o),
(135,111,cs),
(135,145,o),
(137,182,o),
(139,209,c),
(96,207,ls),
(8,203,o),
(-70,150,o),
(-70,59,cs),
(-70,-106,o),
(109,-180,o),
(252,-180,cs)
);
}
);
width = 1069;
}
);
unicode = 83;
},
{
glyphname = Sacute;
lastChange = "2023-08-03 09:40:13 +0000";
layers = (
{
background = {
shapes = (
{
closed = 0;
nodes = (
(805,1518,ls)
);
},
{
closed = 1;
nodes = (
(387,1313,o),
(592,1423,o),
(756,1423,cs),
(872,1423,o),
(965,1376,o),
(965,1225,cs),
(965,1171,o),
(762,1094,o),
(698,1057,c),
(698,958,l),
(756,979,o),
(1145,1198,o),
(1145,1227,cs),
(1145,1450,o),
(944,1518,o),
(803,1518,cs),
(528,1518,o),
(170,1337,o),
(170,1024,cs),
(170,752,o),
(709,492,o),
(709,219,cs),
(709,23,o),
(485,-88,o),
(328,-88,cs),
(133,-88,o),
(135,8,o),
(135,111,cs),
(135,145,o),
(137,182,o),
(139,209,c),
(96,207,ls),
(8,203,o),
(-70,150,o),
(-70,59,cs),
(-70,-106,o),
(109,-180,o),
(252,-180,cs),
(557,-180,o),
(926,-10,o),
(926,324,cs),
(926,723,o),
(387,862,o),
(387,1126,cs)
);
},
{
closed = 0;
nodes = (
(2122,805,ls)
);
},
{
closed = 1;
nodes = (
(2464,1122,o),
(2468,1135,o),
(2468,1147,cs),
(2468,1186,o),
(2408,1249,o),
(2361,1249,c),
(2251,1243,o),
(2032,1079,o),
(1941,995,c),
(1964,940,l),
(2036,965,o),
(2206,1022,o),
(2361,1083,cs),
(2449,1118,l)
);
}
);
};
layerId = m001;
shapes = (
{
ref = S;
},
{
pos = (491,678);
ref = acutecomb;
}
);
width = 1069;
}
);
unicode = 346;
},
{
glyphname = Scaron;
lastChange = "2023-08-03 09:40:13 +0000";
layers = (
{
background = {
shapes = (
{
closed = 0;
nodes = (
(805,1518,ls)
);
},
{
closed = 1;
nodes = (
(387,1313,o),
(592,1423,o),
(756,1423,cs),
(872,1423,o),
(965,1376,o),
(965,1225,cs),
(965,1171,o),
(762,1094,o),
(698,1057,c),
(698,958,l),
(756,979,o),
(1145,1198,o),
(1145,1227,cs),
(1145,1450,o),
(944,1518,o),
(803,1518,cs),
(528,1518,o),
(170,1337,o),
(170,1024,cs),
(170,752,o),
(709,492,o),
(709,219,cs),
(709,23,o),
(485,-88,o),
(328,-88,cs),
(133,-88,o),
(135,8,o),
(135,111,cs),
(135,145,o),
(137,182,o),
(139,209,c),
(96,207,ls),
(8,203,o),
(-70,150,o),
(-70,59,cs),
(-70,-106,o),
(109,-180,o),
(252,-180,cs),
(557,-180,o),
(926,-10,o),
(926,324,cs),
(926,723,o),
(387,862,o),
(387,1126,cs)
);
},
{
closed = 0;
nodes = (
(805,1518,ls)
);
},
{
closed = 1;
nodes = (
(1067,2075,l),
(1067,2075,o),
(934,1911,o),
(846,1805,c),
(801,1911,o),
(731,2075,o),
(731,2075,c),
(618,2052,l),
(620,2044,o),
(745,1657,o),
(817,1657,cs),
(901,1657,o),
(1075,1899,o),
(1163,2052,c)
);
}
);
};
layerId = m001;
shapes = (
{
ref = S;
},
{
pos = (482,678);
ref = caroncomb;
}
);
width = 1069;
}
);
unicode = 352;
},
{
glyphname = Scedilla;
lastChange = "2023-08-03 09:40:13 +0000";
layers = (
{
background = {
shapes = (
{
closed = 0;
nodes = (
(805,1518,ls)
);
},
{
closed = 1;
nodes = (
(387,1313,o),
(592,1423,o),
(756,1423,cs),
(872,1423,o),
(965,1376,o),
(965,1225,cs),
(965,1171,o),
(762,1094,o),
(698,1057,c),
(698,958,l),
(756,979,o),
(1145,1198,o),
(1145,1227,cs),
(1145,1450,o),
(944,1518,o),
(803,1518,cs),
(528,1518,o),
(170,1337,o),
(170,1024,cs),
(170,752,o),
(709,492,o),
(709,219,cs),
(709,23,o),
(485,-88,o),
(328,-88,cs),
(133,-88,o),
(135,8,o),
(135,111,cs),
(135,145,o),
(137,182,o),
(139,209,c),
(96,207,ls),
(8,203,o),
(-70,150,o),
(-70,59,cs),
(-70,-106,o),
(109,-180,o),
(252,-180,cs),
(557,-180,o),
(926,-10,o),
(926,324,cs),
(926,723,o),
(387,862,o),
(387,1126,cs)
);
},
{
closed = 0;
nodes = (
(1429,0,ls)
);
},
{
closed = 1;
nodes = (
(1337,0,o),
(1290,-45,o),
(1290,-90,cs),
(1290,-123,o),
(1315,-158,o),
(1368,-174,c),
(1368,-348,o),
(1284,-430,o),
(1284,-430,c),
(1300,-492,l),
(1466,-459,o),
(1534,-201,o),
(1534,-117,cs),
(1534,-45,o),
(1507,0,o),
(1429,0,cs)
);
}
);
};
layerId = m001;
shapes = (
{
ref = S;
},
{
pos = (110,-120);
ref = cedillacomb;
}
);
width = 1069;
}
);
unicode = 350;
},
{
glyphname = Scommaaccent;
lastChange = "2023-08-03 09:40:13 +0000";
layers = (
{
background = {
shapes = (
{
closed = 0;
nodes = (
(805,1518,ls)
);
},
{
closed = 1;
nodes = (
(387,1313,o),
(592,1423,o),
(756,1423,cs),
(872,1423,o),
(965,1376,o),
(965,1225,cs),
(965,1171,o),
(762,1094,o),
(698,1057,c),
(698,958,l),
(756,979,o),
(1145,1198,o),
(1145,1227,cs),
(1145,1450,o),
(944,1518,o),
(803,1518,cs),
(528,1518,o),
(170,1337,o),
(170,1024,cs),
(170,752,o),
(709,492,o),
(709,219,cs),
(709,23,o),
(485,-88,o),
(328,-88,cs),
(133,-88,o),
(135,8,o),
(135,111,cs),
(135,145,o),
(137,182,o),
(139,209,c),
(96,207,ls),
(8,203,o),
(-70,150,o),
(-70,59,cs),
(-70,-106,o),
(109,-180,o),
(252,-180,cs),
(557,-180,o),
(926,-10,o),
(926,324,cs),
(926,723,o),
(387,862,o),
(387,1126,cs)
);
},
{
closed = 0;
nodes = (
(365,0,ls)
);
},
{
closed = 1;
nodes = (
(281,-90,o),
(221,-180,o),
(221,-248,cs),
(221,-289,o),
(244,-326,o),
(299,-326,c),
(291,-424,o),
(276,-520,o),
(276,-520,c),
(334,-541,l),
(356,-483,o),
(465,-250,o),
(465,-166,cs),
(465,-119,o),
(438,-90,o),
(360,-90,cs)
);
}
);
};
layerId = m001;
shapes = (
{
ref = S;
},
{
pos = (113,-120);
ref = commaaccentcomb;
}
);
width = 1069;
}
);
unicode = 536;
},
{
glyphname = T;
lastChange = "2023-08-03 09:40:13 +0000";
layers = (
{
anchors = (
{
name = bottom;
pos = (543,0);
},
{
name = center;
pos = (543,759);
},
{
name = top;
pos = (943,1518);
}
);
background = {
shapes = (
{
closed = 1;
nodes = (
(395,688,o),
(412,782,o),
(412,840,c),
(299,889,o),
(252,958,o),
(252,1032,cs),
(252,1202,o),
(508,1393,o),
(797,1393,cs),
(846,1393,o),
(891,1384,o),
(934,1372,c),
(932,1372,ls),
(883,1372,o),
(825,1358,o),
(776,1305,c),
(711,1130,o),
(559,41,o),
(297,41,c),
(211,47,o),
(188,106,o),
(188,193,cs),
(188,231,o),
(190,279,o),
(199,328,c),
(27,328,o),
(-14,254,o),
(-14,172,cs),
(-14,76,o),
(72,-57,o),
(256,-57,cs),
(803,-57,o),
(915,862,o),
(1016,1343,c),
(1120,1305,o),
(1219,1253,o),
(1331,1253,cs),
(1507,1253,o),
(1651,1356,o),
(1700,1524,c),
(1632,1505,o),
(1532,1444,o),
(1411,1444,cs),
(1219,1444,o),
(999,1518,o),
(817,1518,cs),
(389,1518,o),
(68,1270,o),
(68,1026,cs),
(68,895,o),
(162,762,o),
(383,672,c)
);
}
);
};
layerId = m001;
shapes = (
{
closed = 1;
nodes = (
(803,-57,o),
(915,862,o),
(1016,1343,c),
(1120,1305,o),
(1219,1253,o),
(1331,1253,cs),
(1507,1253,o),
(1651,1356,o),
(1700,1524,c),
(1632,1505,o),
(1532,1444,o),
(1411,1444,cs),
(1219,1444,o),
(999,1518,o),
(817,1518,cs),
(389,1518,o),
(68,1270,o),
(68,1026,cs),
(68,895,o),
(162,762,o),
(383,672,c),
(395,688,o),
(412,782,o),
(412,840,c),
(299,889,o),
(252,958,o),
(252,1032,cs),
(252,1202,o),
(508,1393,o),
(797,1393,cs),
(846,1393,o),
(891,1384,o),
(934,1372,c),
(932,1372,ls),
(883,1372,o),
(825,1358,o),
(776,1305,c),
(711,1130,o),
(559,41,o),
(297,41,c),
(211,47,o),
(188,106,o),
(188,193,cs),
(188,231,o),
(190,279,o),
(199,328,c),
(27,328,o),
(-14,254,o),
(-14,172,cs),
(-14,76,o),
(72,-57,o),
(256,-57,cs)
);
}
);
width = 1085;
}
);
unicode = 84;
},
{
glyphname = Tcaron;
lastChange = "2023-08-03 09:40:13 +0000";
layers = (
{
background = {
shapes = (
{
closed = 1;
nodes = (
(395,688,o),
(412,782,o),
(412,840,c),
(299,889,o),
(252,958,o),
(252,1032,cs),
(252,1202,o),
(508,1393,o),
(797,1393,cs),
(846,1393,o),
(891,1384,o),
(934,1372,c),
(932,1372,ls),
(883,1372,o),
(825,1358,o),
(776,1305,c),
(711,1130,o),
(559,41,o),
(297,41,c),
(211,47,o),
(188,106,o),
(188,193,cs),
(188,231,o),
(190,279,o),
(199,328,c),
(27,328,o),
(-14,254,o),
(-14,172,cs),
(-14,76,o),
(72,-57,o),
(256,-57,cs),
(803,-57,o),
(915,862,o),
(1016,1343,c),
(1120,1305,o),
(1219,1253,o),
(1331,1253,cs),
(1507,1253,o),
(1651,1356,o),
(1700,1524,c),
(1632,1505,o),
(1532,1444,o),
(1411,1444,cs),
(1219,1444,o),
(999,1518,o),
(817,1518,cs),
(389,1518,o),
(68,1270,o),
(68,1026,cs),
(68,895,o),
(162,762,o),
(383,672,c)
);
},
{
closed = 0;
nodes = (
(2138,805,ls)
);
},
{
closed = 1;
nodes = (
(2400,1362,l),
(2400,1362,o),
(2267,1198,o),
(2179,1092,c),
(2134,1198,o),
(2064,1362,o),
(2064,1362,c),
(1951,1339,l),
(1953,1331,o),
(2078,944,o),
(2150,944,cs),
(2234,944,o),
(2408,1186,o),
(2496,1339,c)
);
}
);
};
layerId = m001;
shapes = (
{
ref = T;
},
{
pos = (570,678);
ref = caroncomb;
}
);
width = 1085;
}
);
unicode = 356;
},
{
glyphname = Tcommaaccent;
lastChange = "2023-08-03 09:40:13 +0000";
layers = (
{
background = {
shapes = (
{
closed = 1;
nodes = (
(395,688,o),
(412,782,o),
(412,840,c),
(299,889,o),
(252,958,o),
(252,1032,cs),
(252,1202,o),
(508,1393,o),
(797,1393,cs),
(846,1393,o),
(891,1384,o),
(934,1372,c),
(932,1372,ls),
(883,1372,o),
(825,1358,o),
(776,1305,c),
(711,1130,o),
(559,41,o),
(297,41,c),
(211,47,o),
(188,106,o),
(188,193,cs),
(188,231,o),
(190,279,o),
(199,328,c),
(27,328,o),
(-14,254,o),
(-14,172,cs),
(-14,76,o),
(72,-57,o),
(256,-57,cs),
(803,-57,o),
(915,862,o),
(1016,1343,c),
(1120,1305,o),
(1219,1253,o),
(1331,1253,cs),
(1507,1253,o),
(1651,1356,o),
(1700,1524,c),
(1632,1505,o),
(1532,1444,o),
(1411,1444,cs),
(1219,1444,o),
(999,1518,o),
(817,1518,cs),
(389,1518,o),
(68,1270,o),
(68,1026,cs),
(68,895,o),
(162,762,o),
(383,672,c)
);
},
{
closed = 0;
nodes = (
(365,0,ls)
);
},
{
closed = 1;
nodes = (
(281,-90,o),
(221,-180,o),
(221,-248,cs),
(221,-289,o),
(244,-326,o),
(299,-326,c),
(291,-424,o),
(276,-520,o),
(276,-520,c),
(334,-541,l),
(356,-483,o),
(465,-250,o),
(465,-166,cs),
(465,-119,o),
(438,-90,o),
(360,-90,cs)
);
}
);
};
layerId = m001;
shapes = (
{
ref = T;
},
{
pos = (321,0);
ref = commaaccentcomb;
}
);
width = 1085;
}
);
unicode = 538;
},
{
glyphname = U;
lastChange = "2023-08-03 09:40:13 +0000";
layers = (
{
anchors = (
{
name = bottom;
pos = (798,0);
},
{
name = ogonek;
pos = (766,0);
},
{
name = top;
pos = (1125,1518);
},
{
name = topright;
pos = (1575,1518);
}
);
background = {
shapes = (
{
closed = 1;
nodes = (
(799,1524,o),
(784,1530,o),
(772,1530,cs),
(709,1530,o),
(266,1235,o),
(-43,1057,c),
(-43,946,l),
(145,1059,o),
(362,1196,o),
(406,1221,c),
(520,1309,ls),
(526,1313,o),
(528,1315,o),
(532,1315,cs),
(535,1315,o),
(537,1313,o),
(537,1311,c),
(360,1069,o),
(223,696,o),
(223,403,cs),
(223,133,o),
(334,-57,o),
(625,-57,cs),
(1118,-57,o),
(1489,422,o),
(1552,920,c),
(1728.01,955.748,o),
(1883.77,1073.72,o),
(1971,1147,c),
(1971,1261,l),
(1769.53,1063.79,o),
(1554,1024,o),
(1554,1024,c),
(1554,1067,o),
(1571,1520,o),
(1362,1520,cs),
(1204,1520,o),
(1147,1362,o),
(1147,1247,cs),
(1147,1034,o),
(1352,936,o),
(1425,924,c),
(1403,547,o),
(1118,147,o),
(745,147,cs),
(535,147,o),
(461,276,o),
(461,457,cs),
(461,844,o),
(799,1464,o),
(799,1509,cs)
);
},
{
closed = 1;
nodes = (
(1391,1339,o),
(1432,1188,o),
(1432,1067,cs),
(1432,1055,o),
(1430,1040,o),
(1430,1028,c),
(1343,1047,o),
(1266,1135,o),
(1266,1266,cs),
(1266,1300,o),
(1276,1339,o),
(1321,1339,cs)
);
}
);
};
layerId = m001;
shapes = (
{
closed = 1;
nodes = (
(1118,-57,o),
(1489,422,o),
(1552,920,c),
(1728.01,955.748,o),
(1883.77,1073.72,o),
(1971,1147,c),
(1971,1261,l),
(1769.53,1063.79,o),
(1554,1024,o),
(1554,1024,c),
(1554,1067,o),
(1571,1520,o),
(1362,1520,cs),
(1204,1520,o),
(1147,1362,o),
(1147,1247,cs),
(1147,1034,o),
(1352,936,o),
(1425,924,c),
(1403,547,o),
(1118,147,o),
(745,147,cs),
(535,147,o),
(461,276,o),
(461,457,cs),
(461,844,o),
(799,1464,o),
(799,1509,cs),
(799,1524,o),
(784,1530,o),
(772,1530,cs),
(709,1530,o),
(266,1235,o),
(-43,1057,c),
(-43,946,l),
(145,1059,o),
(362,1196,o),
(406,1221,c),
(520,1309,ls),
(526,1313,o),
(528,1315,o),
(532,1315,cs),
(535,1315,o),
(537,1313,o),
(537,1311,c),
(360,1069,o),
(223,696,o),
(223,403,cs),
(223,133,o),
(334,-57,o),
(625,-57,cs)
);
},
{
closed = 1;
nodes = (
(1343,1047,o),
(1266,1135,o),
(1266,1266,cs),
(1266,1300,o),
(1276,1339,o),
(1321,1339,cs),
(1391,1339,o),
(1432,1188,o),
(1432,1067,cs),
(1432,1055,o),
(1430,1040,o),
(1430,1028,c)
);
}
);
userData = {
com.fontlab.hintData = {
hhints = (
{
position = -57;
width = 204;
},
{
position = 1339;
width = 181;
}
);
vhints = (
{
position = 223;
width = 238;
},
{
position = 1147;
width = 119;
},
{
position = 1432;
width = 122;
}
);
};
};
width = 1595;
}
);
unicode = 85;
},
{
glyphname = Uacute;
lastChange = "2023-08-03 09:40:13 +0000";
layers = (
{
background = {
shapes = (
{
closed = 1;
nodes = (
(799,1524,o),
(784,1530,o),
(772,1530,cs),
(709,1530,o),
(266,1235,o),
(-43,1057,c),
(-43,946,l),
(145,1059,o),
(362,1196,o),
(406,1221,c),
(520,1309,ls),
(526,1313,o),
(528,1315,o),
(532,1315,cs),
(535,1315,o),
(537,1313,o),
(537,1311,c),
(360,1069,o),
(223,696,o),
(223,403,cs),
(223,133,o),
(334,-57,o),
(625,-57,cs),
(1118,-57,o),
(1489,422,o),
(1552,920,c),
(1728.01,955.748,o),
(1883.77,1073.72,o),
(1971,1147,c),
(1971,1261,l),
(1769.53,1063.79,o),
(1554,1024,o),
(1554,1024,c),
(1554,1067,o),
(1571,1520,o),
(1362,1520,cs),
(1204,1520,o),
(1147,1362,o),
(1147,1247,cs),
(1147,1034,o),
(1352,936,o),
(1425,924,c),
(1403,547,o),
(1118,147,o),
(745,147,cs),
(535,147,o),
(461,276,o),
(461,457,cs),
(461,844,o),
(799,1464,o),
(799,1509,cs)
);
},
{
closed = 1;
nodes = (
(1391,1339,o),
(1432,1188,o),
(1432,1067,cs),
(1432,1055,o),
(1430,1040,o),
(1430,1028,c),
(1343,1047,o),
(1266,1135,o),
(1266,1266,cs),
(1266,1300,o),
(1276,1339,o),
(1321,1339,cs)
);
},
{
closed = 0;
nodes = (
(1047,1518,ls)
);
},
{
closed = 1;
nodes = (
(1389,1835,o),
(1393,1848,o),
(1393,1860,cs),
(1393,1899,o),
(1333,1962,o),
(1286,1962,c),
(1176,1956,o),
(957,1792,o),
(866,1708,c),
(889,1653,l),
(961,1678,o),
(1131,1735,o),
(1286,1796,cs),
(1374,1831,l)
);
}
);
};
layerId = m001;
shapes = (
{
ref = U;
},
{
pos = (761,678);
ref = acutecomb;
}
);
width = 1595;
}
);
unicode = 218;
},
{
glyphname = Ubreve;
lastChange = "2023-08-03 09:40:13 +0000";
layers = (
{
background = {
shapes = (
{
closed = 1;
nodes = (
(799,1524,o),
(784,1530,o),
(772,1530,cs),
(709,1530,o),
(266,1235,o),
(-43,1057,c),
(-43,946,l),
(145,1059,o),
(362,1196,o),
(406,1221,c),
(520,1309,ls),
(526,1313,o),
(528,1315,o),
(532,1315,cs),
(535,1315,o),
(537,1313,o),
(537,1311,c),
(360,1069,o),
(223,696,o),
(223,403,cs),
(223,133,o),
(334,-57,o),
(625,-57,cs),
(1118,-57,o),
(1489,422,o),
(1552,920,c),
(1728.01,955.748,o),
(1883.77,1073.72,o),
(1971,1147,c),
(1971,1261,l),
(1769.53,1063.79,o),
(1554,1024,o),
(1554,1024,c),
(1554,1067,o),
(1571,1520,o),
(1362,1520,cs),
(1204,1520,o),
(1147,1362,o),
(1147,1247,cs),
(1147,1034,o),
(1352,936,o),
(1425,924,c),
(1403,547,o),
(1118,147,o),
(745,147,cs),
(535,147,o),
(461,276,o),
(461,457,cs),
(461,844,o),
(799,1464,o),
(799,1509,cs)
);
},
{
closed = 1;
nodes = (
(1391,1339,o),
(1432,1188,o),
(1432,1067,cs),
(1432,1055,o),
(1430,1040,o),
(1430,1028,c),
(1343,1047,o),
(1266,1135,o),
(1266,1266,cs),
(1266,1300,o),
(1276,1339,o),
(1321,1339,cs)
);
},
{
closed = 0;
nodes = (
(2648,805,ls)
);
},
{
closed = 1;
nodes = (
(2945,1282,l),
(2945,1282,o),
(2861,1100,o),
(2721,1100,cs),
(2584,1100,o),
(2584,1280,o),
(2584,1282,c),
(2463,1257,l),
(2469,1243,o),
(2459,948,o),
(2715,948,cs),
(2924,948,o),
(3025,1135,o),
(3047,1257,c)
);
}
);
};
layerId = m001;
shapes = (
{
ref = U;
},
{
pos = (733,678);
ref = brevecomb;
}
);
width = 1595;
}
);
unicode = 364;
},
{
glyphname = Ucircumflex;
lastChange = "2023-08-03 09:40:13 +0000";
layers = (
{
background = {
shapes = (
{
closed = 1;
nodes = (
(799,1524,o),
(784,1530,o),
(772,1530,cs),
(709,1530,o),
(266,1235,o),
(-43,1057,c),
(-43,946,l),
(145,1059,o),
(362,1196,o),
(406,1221,c),
(520,1309,ls),
(526,1313,o),
(528,1315,o),
(532,1315,cs),
(535,1315,o),
(537,1313,o),
(537,1311,c),
(360,1069,o),
(223,696,o),
(223,403,cs),
(223,133,o),
(334,-57,o),
(625,-57,cs),
(1118,-57,o),
(1489,422,o),
(1552,920,c),
(1728.01,955.748,o),
(1883.77,1073.72,o),
(1971,1147,c),
(1971,1261,l),
(1769.53,1063.79,o),
(1554,1024,o),
(1554,1024,c),
(1554,1067,o),
(1571,1520,o),
(1362,1520,cs),
(1204,1520,o),
(1147,1362,o),
(1147,1247,cs),
(1147,1034,o),
(1352,936,o),
(1425,924,c),
(1403,547,o),
(1118,147,o),
(745,147,cs),
(535,147,o),
(461,276,o),
(461,457,cs),
(461,844,o),
(799,1464,o),
(799,1509,cs)
);
},
{
closed = 1;
nodes = (
(1391,1339,o),
(1432,1188,o),
(1432,1067,cs),
(1432,1055,o),
(1430,1040,o),
(1430,1028,c),
(1343,1047,o),
(1266,1135,o),
(1266,1266,cs),
(1266,1300,o),
(1276,1339,o),
(1321,1339,cs)
);
},
{
closed = 0;
nodes = (
(1047,1518,ls)
);
},
{
closed = 1;
nodes = (
(899,1700,o),
(1010,1821,o),
(1114,1927,c),
(1176,1821,o),
(1239,1700,o),
(1270,1657,c),
(1342,1698,l),
(1340,1706,o),
(1208,2095,o),
(1143,2095,cs),
(1059,2095,o),
(881,1854,o),
(793,1700,c),
(852,1657,l)
);
}
);
};
layerId = m001;
shapes = (
{
ref = U;
},
{
pos = (720,708);
ref = circumflexcomb;
}
);
width = 1595;
}
);
unicode = 219;
},
{
glyphname = Udieresis;
lastChange = "2023-08-03 09:40:13 +0000";
layers = (
{
background = {
shapes = (
{
closed = 1;
nodes = (
(799,1524,o),
(784,1530,o),
(772,1530,cs),
(709,1530,o),
(266,1235,o),
(-43,1057,c),
(-43,946,l),
(145,1059,o),
(362,1196,o),
(406,1221,c),
(520,1309,ls),
(526,1313,o),
(528,1315,o),
(532,1315,cs),
(535,1315,o),
(537,1313,o),
(537,1311,c),
(360,1069,o),
(223,696,o),
(223,403,cs),
(223,133,o),
(334,-57,o),
(625,-57,cs),
(1118,-57,o),
(1489,422,o),
(1552,920,c),
(1728.01,955.748,o),
(1883.77,1073.72,o),
(1971,1147,c),
(1971,1261,l),
(1769.53,1063.79,o),
(1554,1024,o),
(1554,1024,c),
(1554,1067,o),
(1571,1520,o),
(1362,1520,cs),
(1204,1520,o),
(1147,1362,o),
(1147,1247,cs),
(1147,1034,o),
(1352,936,o),
(1425,924,c),
(1403,547,o),
(1118,147,o),
(745,147,cs),
(535,147,o),
(461,276,o),
(461,457,cs),
(461,844,o),
(799,1464,o),
(799,1509,cs)
);
},
{
closed = 1;
nodes = (
(1391,1339,o),
(1432,1188,o),
(1432,1067,cs),
(1432,1055,o),
(1430,1040,o),
(1430,1028,c),
(1343,1047,o),
(1266,1135,o),
(1266,1266,cs),
(1266,1300,o),
(1276,1339,o),
(1321,1339,cs)
);
},
{
closed = 0;
nodes = (
(1046,1518,ls)
);
},
{
closed = 1;
nodes = (
(900,1662,o),
(980,1751,o),
(980,1820,cs),
(980,1861,o),
(947,1898,o),
(869,1898,cs),
(787,1898,o),
(730,1808,o),
(730,1740,cs),
(730,1699,o),
(752,1662,o),
(808,1662,cs)
);
},
{
closed = 1;
nodes = (
(1384,1662,o),
(1462,1751,o),
(1462,1820,cs),
(1462,1861,o),
(1431,1898,o),
(1351,1898,cs),
(1271,1898,o),
(1212,1808,o),
(1212,1740,cs),
(1212,1699,o),
(1234,1662,o),
(1292,1662,cs)
);
}
);
};
layerId = m001;
shapes = (
{
ref = U;
},
{
pos = (659,708);
ref = dieresiscomb;
}
);
width = 1595;
}
);
unicode = 220;
},
{
glyphname = Ugrave;
lastChange = "2023-08-03 09:40:13 +0000";
layers = (
{
background = {
shapes = (
{
closed = 1;
nodes = (
(799,1524,o),
(784,1530,o),
(772,1530,cs),
(709,1530,o),
(266,1235,o),
(-43,1057,c),
(-43,946,l),
(145,1059,o),
(362,1196,o),
(406,1221,c),
(520,1309,ls),
(526,1313,o),
(528,1315,o),
(532,1315,cs),
(535,1315,o),
(537,1313,o),
(537,1311,c),
(360,1069,o),
(223,696,o),
(223,403,cs),
(223,133,o),
(334,-57,o),
(625,-57,cs),
(1118,-57,o),
(1489,422,o),
(1552,920,c),
(1728.01,955.748,o),
(1883.77,1073.72,o),
(1971,1147,c),
(1971,1261,l),
(1769.53,1063.79,o),
(1554,1024,o),
(1554,1024,c),
(1554,1067,o),
(1571,1520,o),
(1362,1520,cs),
(1204,1520,o),
(1147,1362,o),
(1147,1247,cs),
(1147,1034,o),
(1352,936,o),
(1425,924,c),
(1403,547,o),
(1118,147,o),
(745,147,cs),
(535,147,o),
(461,276,o),
(461,457,cs),
(461,844,o),
(799,1464,o),
(799,1509,cs)
);
},
{
closed = 1;
nodes = (
(1391,1339,o),
(1432,1188,o),
(1432,1067,cs),
(1432,1055,o),
(1430,1040,o),
(1430,1028,c),
(1343,1047,o),
(1266,1135,o),
(1266,1266,cs),
(1266,1300,o),
(1276,1339,o),
(1321,1339,cs)
);
},
{
closed = 0;
nodes = (
(1047,1518,ls)
);
},
{
closed = 1;
nodes = (
(938,1735,o),
(1108,1678,o),
(1180,1653,c),
(1202,1708,l),
(1112,1792,o),
(893,1956,o),
(782,1962,c),
(735,1962,o),
(676,1899,o),
(676,1860,cs),
(676,1848,o),
(680,1835,o),
(694,1831,c),
(782,1796,ls)
);
}
);
};
layerId = m001;
shapes = (
{
ref = U;
},
{
pos = (762,708);
ref = gravecomb;
}
);
width = 1595;
}
);
unicode = 217;
},
{
glyphname = Uhungarumlaut;
lastChange = "2023-08-03 09:40:13 +0000";
layers = (
{
background = {
shapes = (
{
closed = 1;
nodes = (
(799,1524,o),
(784,1530,o),
(772,1530,cs),
(709,1530,o),
(266,1235,o),
(-43,1057,c),
(-43,946,l),
(145,1059,o),
(362,1196,o),
(406,1221,c),
(520,1309,ls),
(526,1313,o),
(528,1315,o),
(532,1315,cs),
(535,1315,o),
(537,1313,o),
(537,1311,c),
(360,1069,o),
(223,696,o),
(223,403,cs),
(223,133,o),
(334,-57,o),
(625,-57,cs),
(1118,-57,o),
(1489,422,o),
(1552,920,c),
(1728.01,955.748,o),
(1883.77,1073.72,o),
(1971,1147,c),
(1971,1261,l),
(1769.53,1063.79,o),
(1554,1024,o),
(1554,1024,c),
(1554,1067,o),
(1571,1520,o),
(1362,1520,cs),
(1204,1520,o),
(1147,1362,o),
(1147,1247,cs),
(1147,1034,o),
(1352,936,o),
(1425,924,c),
(1403,547,o),
(1118,147,o),
(745,147,cs),
(535,147,o),
(461,276,o),
(461,457,cs),
(461,844,o),
(799,1464,o),
(799,1509,cs)
);
},
{
closed = 1;
nodes = (
(1391,1339,o),
(1432,1188,o),
(1432,1067,cs),
(1432,1055,o),
(1430,1040,o),
(1430,1028,c),
(1343,1047,o),
(1266,1135,o),
(1266,1266,cs),
(1266,1300,o),
(1276,1339,o),
(1321,1339,cs)
);
},
{
closed = 0;
nodes = (
(2648,805,ls)
);
},
{
closed = 1;
nodes = (
(2709,1280,o),
(2736,1319,o),
(2736,1343,cs),
(2736,1374,o),
(2705,1389,o),
(2629,1389,cs),
(2541,1389,o),
(2426,1104,o),
(2392,973,c),
(2437,934,l),
(2478,985,o),
(2574,1118,o),
(2670,1233,cs)
);
},
{
closed = 1;
nodes = (
(3080,1292,o),
(3082,1300,o),
(3082,1309,cs),
(3082,1343,o),
(3016,1382,o),
(2967,1382,cs),
(2871,1382,o),
(2697,1102,o),
(2644,987,c),
(2687,944,l),
(2746,991,o),
(2879,1112,o),
(3002,1225,c),
(3072,1288,l)
);
}
);
};
layerId = m001;
shapes = (
{
ref = U;
},
{
pos = (843,708);
ref = hungarumlautcomb;
}
);
width = 1595;
}
);
unicode = 368;
},
{
glyphname = Umacron;
lastChange = "2023-08-03 09:40:13 +0000";
layers = (
{
background = {
shapes = (
{
closed = 1;
nodes = (
(799,1524,o),
(784,1530,o),
(772,1530,cs),
(709,1530,o),
(266,1235,o),
(-43,1057,c),
(-43,946,l),
(145,1059,o),
(362,1196,o),
(406,1221,c),
(520,1309,ls),
(526,1313,o),
(528,1315,o),
(532,1315,cs),
(535,1315,o),
(537,1313,o),
(537,1311,c),
(360,1069,o),
(223,696,o),
(223,403,cs),
(223,133,o),
(334,-57,o),
(625,-57,cs),
(1118,-57,o),
(1489,422,o),
(1552,920,c),
(1728.01,955.748,o),
(1883.77,1073.72,o),
(1971,1147,c),
(1971,1261,l),
(1769.53,1063.79,o),
(1554,1024,o),
(1554,1024,c),
(1554,1067,o),
(1571,1520,o),
(1362,1520,cs),
(1204,1520,o),
(1147,1362,o),
(1147,1247,cs),
(1147,1034,o),
(1352,936,o),
(1425,924,c),
(1403,547,o),
(1118,147,o),
(745,147,cs),
(535,147,o),
(461,276,o),
(461,457,cs),
(461,844,o),
(799,1464,o),
(799,1509,cs)
);
},
{
closed = 1;
nodes = (
(1391,1339,o),
(1432,1188,o),
(1432,1067,cs),
(1432,1055,o),
(1430,1040,o),
(1430,1028,c),
(1343,1047,o),
(1266,1135,o),
(1266,1266,cs),
(1266,1300,o),
(1276,1339,o),
(1321,1339,cs)
);
},
{
closed = 0;
nodes = (
(1047,1517,ls)
);
},
{
closed = 1;
nodes = (
(781,1779,o),
(754,1763,o),
(754,1700,cs),
(754,1657,o),
(801,1659,o),
(811,1659,cs),
(1067,1677,o),
(1112,1677,o),
(1157,1677,cs),
(1200,1677,o),
(1248,1675,o),
(1295,1675,cs),
(1348,1675,o),
(1395,1734,o),
(1395,1771,cs),
(1395,1804,o),
(1299,1812,o),
(1186,1812,cs),
(1016,1812,o),
(832,1794,o),
(803,1786,cs)
);
}
);
};
layerId = m001;
shapes = (
{
ref = U;
},
{
pos = (704,678);
ref = macroncomb;
}
);
width = 1595;
}
);
unicode = 362;
},
{
glyphname = Uogonek;
lastChange = "2023-08-03 09:40:13 +0000";
layers = (
{
background = {
shapes = (
{
closed = 1;
nodes = (
(799,1524,o),
(784,1530,o),
(772,1530,cs),
(709,1530,o),
(266,1235,o),
(-43,1057,c),
(-43,946,l),
(145,1059,o),
(362,1196,o),
(406,1221,c),
(520,1309,ls),
(526,1313,o),
(528,1315,o),
(532,1315,cs),
(535,1315,o),
(537,1313,o),
(537,1311,c),
(360,1069,o),
(223,696,o),
(223,403,cs),
(223,133,o),
(334,-57,o),
(625,-57,cs),
(1118,-57,o),
(1489,422,o),
(1552,920,c),
(1728.01,955.748,o),
(1883.77,1073.72,o),
(1971,1147,c),
(1971,1261,l),
(1769.53,1063.79,o),
(1554,1024,o),
(1554,1024,c),
(1554,1067,o),
(1571,1520,o),
(1362,1520,cs),
(1204,1520,o),
(1147,1362,o),
(1147,1247,cs),
(1147,1034,o),
(1352,936,o),
(1425,924,c),
(1403,547,o),
(1118,147,o),
(745,147,cs),
(535,147,o),
(461,276,o),
(461,457,cs),
(461,844,o),
(799,1464,o),
(799,1509,cs)
);
},
{
closed = 1;
nodes = (
(1391,1339,o),
(1432,1188,o),
(1432,1067,cs),
(1432,1055,o),
(1430,1040,o),
(1430,1028,c),
(1343,1047,o),
(1266,1135,o),
(1266,1266,cs),
(1266,1300,o),
(1276,1339,o),
(1321,1339,cs)
);
},
{
closed = 0;
nodes = (
(631,0,ls)
);
},
{
closed = 1;
nodes = (
(762,-442,l),
(751,-442,o),
(520,-422,o),
(520,-254,cs),
(520,-84,o),
(766,0,o),
(768,0,cs),
(620,0,l),
(606,-14,o),
(370,-88,o),
(370,-295,cs),
(370,-494,o),
(569,-553,o),
(686,-553,cs),
(712,-553,o),
(739,-551,o),
(762,-547,c)
);
}
);
};
layerId = m001;
shapes = (
{
ref = U;
},
{
pos = (268,0);
ref = ogonekcomb;
}
);
width = 1595;
}
);
unicode = 370;
},
{
glyphname = Uring;
lastChange = "2023-08-03 09:40:13 +0000";
layers = (
{
background = {
shapes = (
{
closed = 1;
nodes = (
(799,1524,o),
(784,1530,o),
(772,1530,cs),
(709,1530,o),
(266,1235,o),
(-43,1057,c),
(-43,946,l),
(145,1059,o),
(362,1196,o),
(406,1221,c),
(520,1309,ls),
(526,1313,o),
(528,1315,o),
(532,1315,cs),
(535,1315,o),
(537,1313,o),
(537,1311,c),
(360,1069,o),
(223,696,o),
(223,403,cs),
(223,133,o),
(334,-57,o),
(625,-57,cs),
(1118,-57,o),
(1489,422,o),
(1552,920,c),
(1728.01,955.748,o),
(1883.77,1073.72,o),
(1971,1147,c),
(1971,1261,l),
(1769.53,1063.79,o),
(1554,1024,o),
(1554,1024,c),
(1554,1067,o),
(1571,1520,o),
(1362,1520,cs),
(1204,1520,o),
(1147,1362,o),
(1147,1247,cs),
(1147,1034,o),
(1352,936,o),
(1425,924,c),
(1403,547,o),
(1118,147,o),
(745,147,cs),
(535,147,o),
(461,276,o),
(461,457,cs),
(461,844,o),
(799,1464,o),
(799,1509,cs)
);
},
{
closed = 1;
nodes = (
(1391,1339,o),
(1432,1188,o),
(1432,1067,cs),
(1432,1055,o),
(1430,1040,o),
(1430,1028,c),
(1343,1047,o),
(1266,1135,o),
(1266,1266,cs),
(1266,1300,o),
(1276,1339,o),
(1321,1339,cs)
);
},
{
closed = 0;
nodes = (
(1900,805,ls)
);
},
{
closed = 1;
nodes = (
(2033,1219,o),
(2058,1174,o),
(2058,1122,cs),
(2058,1063,o),
(2015,997,o),
(1941,997,cs),
(1878,997,o),
(1855,1044,o),
(1855,1092,cs),
(1855,1153,o),
(1894,1219,o),
(1968,1219,cs)
);
},
{
closed = 1;
nodes = (
(2132,1208,o),
(2078,1286,o),
(1972,1286,cs),
(1843,1286,o),
(1777,1186,o),
(1777,1090,cs),
(1777,979,o),
(1859,930,o),
(1937,930,cs),
(2035,930,o),
(2132,1004,o),
(2132,1126,cs)
);
}
);
};
layerId = m001;
shapes = (
{
ref = U;
},
{
pos = (847,678);
ref = ringcomb;
}
);
width = 1595;
}
);
unicode = 366;
},
{
glyphname = V;
lastChange = "2023-08-03 09:40:13 +0000";
layers = (
{
anchors = (
{
name = bottom;
pos = (708,0);
},
{
name = top;
pos = (708,1518);
}
);
background = {
shapes = (
{
closed = 1;
nodes = (
(584,182,o),
(543,297,o),
(543,459,cs),
(543,850,o),
(778,1516,o),
(778,1509,c),
(778,1524,o),
(760,1530,o),
(752,1530,cs),
(688,1530,o),
(246,1235,o),
(-63,1057,c),
(-63,946,l),
(125,1059,o),
(342,1196,o),
(385,1221,c),
(500,1309,ls),
(506,1313,o),
(508,1315,o),
(512,1315,cs),
(514,1315,o),
(514,1313,o),
(514,1309,cs),
(514,1286,o),
(455,1188,o),
(430,1151,cs),
(348,1028,o),
(260,721,o),
(260,451,cs),
(260,180,o),
(348,-57,o),
(621,-57,cs),
(1051,-57,o),
(1335,559,o),
(1413,918,c),
(1559,942,o),
(1702,1018,o),
(1774,1065,c),
(1774,1180,l),
(1604,1049,o),
(1425,1022,o),
(1425,1022,c),
(1425,1118,o),
(1427,1518,o),
(1223,1518,cs),
(1065,1518,o),
(1008,1360,o),
(1008,1245,cs),
(1008,1032,o),
(1212,934,o),
(1286,922,c),
(1196,653,o),
(913,182,o),
(698,182,cs)
);
},
{
closed = 1;
nodes = (
(1257,1339,o),
(1298,1188,o),
(1298,1067,cs),
(1298,1055,o),
(1296,1040,o),
(1296,1028,c),
(1210,1047,o),
(1133,1135,o),
(1133,1266,cs),
(1133,1300,o),
(1143,1339,o),
(1188,1339,cs)
);
}
);
};
layerId = m001;
shapes = (
{
closed = 1;
nodes = (
(1051,-57,o),
(1335,559,o),
(1413,918,c),
(1559,942,o),
(1702,1018,o),
(1774,1065,c),
(1774,1180,l),
(1604,1049,o),
(1425,1022,o),
(1425,1022,c),
(1425,1118,o),
(1427,1518,o),
(1223,1518,cs),
(1065,1518,o),
(1008,1360,o),
(1008,1245,cs),
(1008,1032,o),
(1212,934,o),
(1286,922,c),
(1196,653,o),
(913,182,o),
(698,182,cs),
(584,182,o),
(543,297,o),
(543,459,cs),
(543,850,o),
(778,1516,o),
(778,1509,c),
(778,1524,o),
(760,1530,o),
(752,1530,cs),
(688,1530,o),
(246,1235,o),
(-63,1057,c),
(-63,946,l),
(125,1059,o),
(342,1196,o),
(385,1221,c),
(500,1309,ls),
(506,1313,o),
(508,1315,o),
(512,1315,cs),
(514,1315,o),
(514,1313,o),
(514,1309,cs),
(514,1286,o),
(455,1188,o),
(430,1151,cs),
(348,1028,o),
(260,721,o),
(260,451,cs),
(260,180,o),
(348,-57,o),
(621,-57,cs)
);
},
{
closed = 1;
nodes = (
(1210,1047,o),
(1133,1135,o),
(1133,1266,cs),
(1133,1300,o),
(1143,1339,o),
(1188,1339,cs),
(1257,1339,o),
(1298,1188,o),
(1298,1067,cs),
(1298,1055,o),
(1296,1040,o),
(1296,1028,c)
);
}
);
width = 1415;
}
);
unicode = 86;
},
{
glyphname = W;
lastChange = "2023-08-03 09:40:13 +0000";
layers = (
{
anchors = (
{
name = bottom;
pos = (989,0);
},
{
name = top;
pos = (1386,1518);
}
);
background = {
shapes = (
{
closed = 1;
nodes = (
(1845,1339,o),
(1886,1188,o),
(1886,1067,cs),
(1886,1055,o),
(1884,1040,o),
(1884,1028,c),
(1798,1047,o),
(1720,1135,o),
(1720,1266,cs),
(1720,1300,o),
(1731,1339,o),
(1776,1339,cs)
);
},
{
closed = 1;
nodes = (
(993,1174,o),
(920,713,o),
(920,451,cs),
(920,399,o),
(922,356,o),
(928,326,c),
(883,250,o),
(760,182,o),
(694,182,cs),
(498,182,o),
(473,403,o),
(473,553,cs),
(473,872,o),
(768,1419,o),
(768,1509,cs),
(768,1524,o),
(754,1530,o),
(741,1530,cs),
(678,1530,o),
(236,1235,o),
(-74,1057,c),
(-74,946,l),
(115,1059,o),
(332,1196,o),
(375,1221,c),
(489,1309,l),
(496,1313,o),
(498,1315,o),
(502,1315,cs),
(504,1315,o),
(504,1313,o),
(504,1309,cs),
(504,1288,o),
(446,1188,o),
(420,1151,cs),
(274,952,o),
(190,649,o),
(190,403,cs),
(190,211,o),
(279,-55,o),
(510,-55,cs),
(643,-55,o),
(844,88,o),
(938,215,c),
(938,215,o),
(983,-57,o),
(1235,-57,cs),
(1620,-57,o),
(1978,553,o),
(2001,918,c),
(2138,942,o),
(2263,1018,o),
(2331,1065,c),
(2331,1180,l),
(2171,1049,o),
(2003,1022,o),
(2003,1022,c),
(2003,1118,o),
(2015,1518,o),
(1810,1518,cs),
(1653,1518,o),
(1595,1360,o),
(1595,1245,cs),
(1595,1032,o),
(1800,934,o),
(1874,922,c),
(1874,672,o),
(1630,217,o),
(1352,217,cs),
(1233,217,o),
(1114,279,o),
(1114,401,cs),
(1114,406,o),
(1303,844,o),
(1303,1059,cs),
(1303,1122,o),
(1286,1174,o),
(1221,1174,cs)
);
}
);
};
layerId = m001;
shapes = (
{
closed = 1;
nodes = (
(1620,-57,o),
(1978,553,o),
(2001,918,c),
(2138,942,o),
(2263,1018,o),
(2331,1065,c),
(2331,1180,l),
(2171,1049,o),
(2003,1022,o),
(2003,1022,c),
(2003,1118,o),
(2015,1518,o),
(1810,1518,cs),
(1653,1518,o),
(1595,1360,o),
(1595,1245,cs),
(1595,1032,o),
(1800,934,o),
(1874,922,c),
(1874,672,o),
(1630,217,o),
(1352,217,cs),
(1233,217,o),
(1114,279,o),
(1114,401,cs),
(1114,406,o),
(1303,844,o),
(1303,1059,cs),
(1303,1122,o),
(1286,1174,o),
(1221,1174,cs),
(993,1174,o),
(920,713,o),
(920,451,cs),
(920,399,o),
(922,356,o),
(928,326,c),
(883,250,o),
(760,182,o),
(694,182,cs),
(498,182,o),
(473,403,o),
(473,553,cs),
(473,872,o),
(768,1419,o),
(768,1509,cs),
(768,1524,o),
(754,1530,o),
(741,1530,cs),
(678,1530,o),
(236,1235,o),
(-74,1057,c),
(-74,946,l),
(115,1059,o),
(332,1196,o),
(375,1221,c),
(489,1309,l),
(496,1313,o),
(498,1315,o),
(502,1315,cs),
(504,1315,o),
(504,1313,o),
(504,1309,cs),
(504,1288,o),
(446,1188,o),
(420,1151,cs),
(274,952,o),
(190,649,o),
(190,403,cs),
(190,211,o),
(279,-55,o),
(510,-55,cs),
(643,-55,o),
(844,88,o),
(938,215,c),
(938,215,o),
(983,-57,o),
(1235,-57,cs)
);
},
{
closed = 1;
nodes = (
(1798,1047,o),
(1720,1135,o),
(1720,1266,cs),
(1720,1300,o),
(1731,1339,o),
(1776,1339,cs),
(1845,1339,o),
(1886,1188,o),
(1886,1067,cs),
(1886,1055,o),
(1884,1040,o),
(1884,1028,c)
);
}
);
width = 1978;
}
);
unicode = 87;
},
{
glyphname = Wacute;
lastChange = "2023-08-03 09:40:13 +0000";
layers = (
{
background = {
shapes = (
{
closed = 1;
nodes = (
(1845,1339,o),
(1886,1188,o),
(1886,1067,cs),
(1886,1055,o),
(1884,1040,o),
(1884,1028,c),
(1798,1047,o),
(1720,1135,o),
(1720,1266,cs),
(1720,1300,o),
(1731,1339,o),
(1776,1339,cs)
);
},
{
closed = 1;
nodes = (
(993,1174,o),
(920,713,o),
(920,451,cs),
(920,399,o),
(922,356,o),
(928,326,c),
(883,250,o),
(760,182,o),
(694,182,cs),
(498,182,o),
(473,403,o),
(473,553,cs),
(473,872,o),
(768,1419,o),
(768,1509,cs),
(768,1524,o),
(754,1530,o),
(741,1530,cs),
(678,1530,o),
(236,1235,o),
(-74,1057,c),
(-74,946,l),
(115,1059,o),
(332,1196,o),
(375,1221,c),
(489,1309,l),
(496,1313,o),
(498,1315,o),
(502,1315,cs),
(504,1315,o),
(504,1313,o),
(504,1309,cs),
(504,1288,o),
(446,1188,o),
(420,1151,cs),
(274,952,o),
(190,649,o),
(190,403,cs),
(190,211,o),
(279,-55,o),
(510,-55,cs),
(643,-55,o),
(844,88,o),
(938,215,c),
(938,215,o),
(983,-57,o),
(1235,-57,cs),
(1620,-57,o),
(1978,553,o),
(2001,918,c),
(2138,942,o),
(2263,1018,o),
(2331,1065,c),
(2331,1180,l),
(2171,1049,o),
(2003,1022,o),
(2003,1022,c),
(2003,1118,o),
(2015,1518,o),
(1810,1518,cs),
(1653,1518,o),
(1595,1360,o),
(1595,1245,cs),
(1595,1032,o),
(1800,934,o),
(1874,922,c),
(1874,672,o),
(1630,217,o),
(1352,217,cs),
(1233,217,o),
(1114,279,o),
(1114,401,cs),
(1114,406,o),
(1303,844,o),
(1303,1059,cs),
(1303,1122,o),
(1286,1174,o),
(1221,1174,cs)
);
},
{
closed = 0;
nodes = (
(3031,805,ls)
);
},
{
closed = 1;
nodes = (
(3373,1122,o),
(3377,1135,o),
(3377,1147,cs),
(3377,1186,o),
(3317,1249,o),
(3270,1249,c),
(3160,1243,o),
(2941,1079,o),
(2850,995,c),
(2873,940,l),
(2945,965,o),
(3115,1022,o),
(3270,1083,cs),
(3358,1118,l)
);
}
);
};
layerId = m001;
shapes = (
{
ref = W;
},
{
pos = (1022,678);
ref = acutecomb;
}
);
width = 1978;
}
);
unicode = 7810;
},
{
glyphname = Wcircumflex;
lastChange = "2023-08-03 09:40:13 +0000";
layers = (
{
background = {
shapes = (
{
closed = 1;
nodes = (
(1845,1339,o),
(1886,1188,o),
(1886,1067,cs),
(1886,1055,o),
(1884,1040,o),
(1884,1028,c),
(1798,1047,o),
(1720,1135,o),
(1720,1266,cs),
(1720,1300,o),
(1731,1339,o),
(1776,1339,cs)
);
},
{
closed = 1;
nodes = (
(993,1174,o),
(920,713,o),
(920,451,cs),
(920,399,o),
(922,356,o),
(928,326,c),
(883,250,o),
(760,182,o),
(694,182,cs),
(498,182,o),
(473,403,o),
(473,553,cs),
(473,872,o),
(768,1419,o),
(768,1509,cs),
(768,1524,o),
(754,1530,o),
(741,1530,cs),
(678,1530,o),
(236,1235,o),
(-74,1057,c),
(-74,946,l),
(115,1059,o),
(332,1196,o),
(375,1221,c),
(489,1309,l),
(496,1313,o),
(498,1315,o),
(502,1315,cs),
(504,1315,o),
(504,1313,o),
(504,1309,cs),
(504,1288,o),
(446,1188,o),
(420,1151,cs),
(274,952,o),
(190,649,o),
(190,403,cs),
(190,211,o),
(279,-55,o),
(510,-55,cs),
(643,-55,o),
(844,88,o),
(938,215,c),
(938,215,o),
(983,-57,o),
(1235,-57,cs),
(1620,-57,o),
(1978,553,o),
(2001,918,c),
(2138,942,o),
(2263,1018,o),
(2331,1065,c),
(2331,1180,l),
(2171,1049,o),
(2003,1022,o),
(2003,1022,c),
(2003,1118,o),
(2015,1518,o),
(1810,1518,cs),
(1653,1518,o),
(1595,1360,o),
(1595,1245,cs),
(1595,1032,o),
(1800,934,o),
(1874,922,c),
(1874,672,o),
(1630,217,o),
(1352,217,cs),
(1233,217,o),
(1114,279,o),
(1114,401,cs),
(1114,406,o),
(1303,844,o),
(1303,1059,cs),
(1303,1122,o),
(1286,1174,o),
(1221,1174,cs)
);
},
{
closed = 0;
nodes = (
(3031,805,ls)
);
},
{
closed = 1;
nodes = (
(2883,987,o),
(2994,1108,o),
(3098,1214,c),
(3160,1108,o),
(3223,987,o),
(3254,944,c),
(3326,985,l),
(3324,993,o),
(3192,1382,o),
(3127,1382,cs),
(3043,1382,o),
(2865,1141,o),
(2777,987,c),
(2836,944,l)
);
}
);
};
layerId = m001;
shapes = (
{
ref = W;
},
{
pos = (981,708);
ref = circumflexcomb;
}
);
width = 1978;
}
);
unicode = 372;
},
{
glyphname = Wdieresis;
lastChange = "2023-08-03 09:40:13 +0000";
layers = (
{
background = {
shapes = (
{
closed = 1;
nodes = (
(1845,1339,o),
(1886,1188,o),
(1886,1067,cs),
(1886,1055,o),
(1884,1040,o),
(1884,1028,c),
(1798,1047,o),
(1720,1135,o),
(1720,1266,cs),
(1720,1300,o),
(1731,1339,o),
(1776,1339,cs)
);
},
{
closed = 1;
nodes = (
(993,1174,o),
(920,713,o),
(920,451,cs),
(920,399,o),
(922,356,o),
(928,326,c),
(883,250,o),
(760,182,o),
(694,182,cs),
(498,182,o),
(473,403,o),
(473,553,cs),
(473,872,o),
(768,1419,o),
(768,1509,cs),
(768,1524,o),
(754,1530,o),
(741,1530,cs),
(678,1530,o),
(236,1235,o),
(-74,1057,c),
(-74,946,l),
(115,1059,o),
(332,1196,o),
(375,1221,c),
(489,1309,l),
(496,1313,o),
(498,1315,o),
(502,1315,cs),
(504,1315,o),
(504,1313,o),
(504,1309,cs),
(504,1288,o),
(446,1188,o),
(420,1151,cs),
(274,952,o),
(190,649,o),
(190,403,cs),
(190,211,o),
(279,-55,o),
(510,-55,cs),
(643,-55,o),
(844,88,o),
(938,215,c),
(938,215,o),
(983,-57,o),
(1235,-57,cs),
(1620,-57,o),
(1978,553,o),
(2001,918,c),
(2138,942,o),
(2263,1018,o),
(2331,1065,c),
(2331,1180,l),
(2171,1049,o),
(2003,1022,o),
(2003,1022,c),
(2003,1118,o),
(2015,1518,o),
(1810,1518,cs),
(1653,1518,o),
(1595,1360,o),
(1595,1245,cs),
(1595,1032,o),
(1800,934,o),
(1874,922,c),
(1874,672,o),
(1630,217,o),
(1352,217,cs),
(1233,217,o),
(1114,279,o),
(1114,401,cs),
(1114,406,o),
(1303,844,o),
(1303,1059,cs),
(1303,1122,o),
(1286,1174,o),
(1221,1174,cs)
);
},
{
closed = 0;
nodes = (
(2666,840,ls)
);
},
{
closed = 1;
nodes = (
(2520,984,o),
(2600,1073,o),
(2600,1142,cs),
(2600,1183,o),
(2567,1220,o),
(2489,1220,cs),
(2407,1220,o),
(2350,1130,o),
(2350,1062,cs),
(2350,1021,o),
(2372,984,o),
(2428,984,cs)
);
},
{
closed = 1;
nodes = (
(3004,984,o),
(3082,1073,o),
(3082,1142,cs),
(3082,1183,o),
(3051,1220,o),
(2971,1220,cs),
(2891,1220,o),
(2832,1130,o),
(2832,1062,cs),
(2832,1021,o),
(2854,984,o),
(2912,984,cs)
);
}
);
};
layerId = m001;
shapes = (
{
ref = W;
},
{
pos = (920,708);
ref = dieresiscomb;
}
);
width = 1978;
}
);
unicode = 7812;
},
{
glyphname = Wgrave;
lastChange = "2023-08-03 09:40:13 +0000";
layers = (
{
background = {
shapes = (
{
closed = 1;
nodes = (
(1845,1339,o),
(1886,1188,o),
(1886,1067,cs),
(1886,1055,o),
(1884,1040,o),
(1884,1028,c),
(1798,1047,o),
(1720,1135,o),
(1720,1266,cs),
(1720,1300,o),
(1731,1339,o),
(1776,1339,cs)
);
},
{
closed = 1;
nodes = (
(993,1174,o),
(920,713,o),
(920,451,cs),
(920,399,o),
(922,356,o),
(928,326,c),
(883,250,o),
(760,182,o),
(694,182,cs),
(498,182,o),
(473,403,o),
(473,553,cs),
(473,872,o),
(768,1419,o),
(768,1509,cs),
(768,1524,o),
(754,1530,o),
(741,1530,cs),
(678,1530,o),
(236,1235,o),
(-74,1057,c),
(-74,946,l),
(115,1059,o),
(332,1196,o),
(375,1221,c),
(489,1309,l),
(496,1313,o),
(498,1315,o),
(502,1315,cs),
(504,1315,o),
(504,1313,o),
(504,1309,cs),
(504,1288,o),
(446,1188,o),
(420,1151,cs),
(274,952,o),
(190,649,o),
(190,403,cs),
(190,211,o),
(279,-55,o),
(510,-55,cs),
(643,-55,o),
(844,88,o),
(938,215,c),
(938,215,o),
(983,-57,o),
(1235,-57,cs),
(1620,-57,o),
(1978,553,o),
(2001,918,c),
(2138,942,o),
(2263,1018,o),
(2331,1065,c),
(2331,1180,l),
(2171,1049,o),
(2003,1022,o),
(2003,1022,c),
(2003,1118,o),
(2015,1518,o),
(1810,1518,cs),
(1653,1518,o),
(1595,1360,o),
(1595,1245,cs),
(1595,1032,o),
(1800,934,o),
(1874,922,c),
(1874,672,o),
(1630,217,o),
(1352,217,cs),
(1233,217,o),
(1114,279,o),
(1114,401,cs),
(1114,406,o),
(1303,844,o),
(1303,1059,cs),
(1303,1122,o),
(1286,1174,o),
(1221,1174,cs)
);
},
{
closed = 0;
nodes = (
(3031,805,ls)
);
},
{
closed = 1;
nodes = (
(2922,1022,o),
(3092,965,o),
(3164,940,c),
(3186,995,l),
(3096,1079,o),
(2877,1243,o),
(2766,1249,c),
(2719,1249,o),
(2660,1186,o),
(2660,1147,cs),
(2660,1135,o),
(2664,1122,o),
(2678,1118,c),
(2766,1083,ls)
);
}
);
};
layerId = m001;
shapes = (
{
ref = W;
},
{
pos = (1023,708);
ref = gravecomb;
}
);
width = 1978;
}
);
unicode = 7808;
},
{
glyphname = X;
lastChange = "2023-08-03 09:40:13 +0000";
layers = (
{
anchors = (
{
name = bottom;
pos = (772,0);
},
{
name = top;
pos = (772,1518);
}
);
background = {
shapes = (
{
closed = 1;
nodes = (
(-25,-43,o),
(49,-59,o),
(123,-59,cs),
(303,-59,o),
(406,57,o),
(487,150,cs),
(516,182,o),
(641,322,o),
(786,494,c),
(805,451,l),
(952,86,o),
(1063,-57,o),
(1186,-57,cs),
(1317,-57,o),
(1458,106,o),
(1667,328,c),
(1665,440,l),
(1473,252,o),
(1382,135,o),
(1307,135,cs),
(1241,135,o),
(1188,231,o),
(1087,459,c),
(981,727,l),
(1063,827,o),
(1143,928,o),
(1210,1018,c),
(1403,1303,o),
(1622,1368,o),
(1622,1462,cs),
(1622,1501,o),
(1577,1518,o),
(1532,1518,cs),
(1505,1518,o),
(1479,1511,o),
(1464,1501,cs),
(1364,1427,o),
(1317,1386,o),
(1063,1038,c),
(1020,987,o),
(975,930,o),
(926,868,c),
(823,1130,o),
(727,1374,o),
(705,1427,c),
(674,1493,o),
(635,1518,o),
(594,1518,cs),
(561,1518,o),
(528,1501,o),
(498,1483,cs),
(465,1462,o),
(424,1436,o),
(35,1212,c),
(35,1102,l),
(223,1212,o),
(240,1212,o),
(281,1239,cs),
(330,1270,o),
(369,1284,o),
(395,1284,cs),
(440,1284,o),
(449,1243,o),
(473,1196,c),
(528,1081,o),
(641,838,o),
(731,625,c),
(524,371,o),
(315,135,o),
(215,135,cs),
(170,135,o),
(113,147,o),
(66,147,cs),
(14,147,o),
(-25,133,o),
(-25,66,cs)
);
}
);
};
layerId = m001;
shapes = (
{
closed = 1;
nodes = (
(303,-59,o),
(406,57,o),
(487,150,cs),
(516,182,o),
(641,322,o),
(786,494,c),
(805,451,l),
(952,86,o),
(1063,-57,o),
(1186,-57,cs),
(1317,-57,o),
(1458,106,o),
(1667,328,c),
(1665,440,l),
(1473,252,o),
(1382,135,o),
(1307,135,cs),
(1241,135,o),
(1188,231,o),
(1087,459,c),
(981,727,l),
(1063,827,o),
(1143,928,o),
(1210,1018,c),
(1403,1303,o),
(1622,1368,o),
(1622,1462,cs),
(1622,1501,o),
(1577,1518,o),
(1532,1518,cs),
(1505,1518,o),
(1479,1511,o),
(1464,1501,cs),
(1364,1427,o),
(1317,1386,o),
(1063,1038,c),
(1020,987,o),
(975,930,o),
(926,868,c),
(823,1130,o),
(727,1374,o),
(705,1427,c),
(674,1493,o),
(635,1518,o),
(594,1518,cs),
(561,1518,o),
(528,1501,o),
(498,1483,cs),
(465,1462,o),
(424,1436,o),
(35,1212,c),
(35,1102,l),
(223,1212,o),
(240,1212,o),
(281,1239,cs),
(330,1270,o),
(369,1284,o),
(395,1284,cs),
(440,1284,o),
(449,1243,o),
(473,1196,c),
(528,1081,o),
(641,838,o),
(731,625,c),
(524,371,o),
(315,135,o),
(215,135,cs),
(170,135,o),
(113,147,o),
(66,147,cs),
(14,147,o),
(-25,133,o),
(-25,66,cs),
(-25,-43,o),
(49,-59,o),
(123,-59,cs)
);
}
);
width = 1544;
}
);
unicode = 88;
},
{
glyphname = Y;
lastChange = "2023-08-03 09:40:13 +0000";
layers = (
{
anchors = (
{
name = bottom;
pos = (777,0);
},
{
name = top;
pos = (1237,1518);
},
{
name = topleft;
pos = (20,1518);
}
);
background = {
shapes = (
{
closed = 1;
nodes = (
(965,-260,l),
(907,-467,o),
(688,-694,o),
(553,-694,c),
(510,-688,o),
(469,-643,o),
(469,-547,cs),
(469,-455,o),
(586,-365,o),
(723,-301,c),
(1001,-139,l)
);
},
{
closed = 1;
nodes = (
(477,1053,ls),
(389,795,o),
(266,463,o),
(266,248,cs),
(266,43,o),
(350,-18,o),
(438,-18,cs),
(610,-18,o),
(954,207,o),
(1171,457,c),
(1012,-41,l),
(203,-473,ls),
(168,-492,o),
(152,-526,o),
(152,-565,cs),
(152,-705,o),
(309,-774,o),
(442,-774,cs),
(893,-774,o),
(1137,-375,o),
(1268,-33,c),
(1673,328,l),
(1673,440,l),
(1286,86,l),
(1640,1487,l),
(1423,1487,l),
(1395,1477,o),
(1313,1151,o),
(1305,1114,cs),
(1214,739,l),
(1147,457,o),
(786,248,o),
(602,248,cs),
(561,248,o),
(524,311,o),
(524,358,cs),
(524,498,o),
(682,926,o),
(758,1225,cs),
(795,1372,o),
(829,1460,o),
(829,1489,cs),
(829,1507,o),
(801,1518,o),
(764,1518,cs),
(729,1518,o),
(686,1509,o),
(653,1487,cs),
(242,1219,l),
(221,1204,o),
(221,1190,o),
(221,1174,cs),
(221,1149,o),
(238,1137,o),
(254,1137,cs),
(256,1137,o),
(262,1141,o),
(266,1145,c),
(276,1151,l),
(584,1364,l)
);
}
);
};
layerId = m001;
shapes = (
{
closed = 1;
nodes = (
(893,-774,o),
(1137,-375,o),
(1268,-33,c),
(1673,328,l),
(1673,440,l),
(1286,86,l),
(1640,1487,l),
(1423,1487,l),
(1395,1477,o),
(1313,1151,o),
(1305,1114,cs),
(1214,739,l),
(1147,457,o),
(786,248,o),
(602,248,cs),
(561,248,o),
(524,311,o),
(524,358,cs),
(524,498,o),
(682,926,o),
(758,1225,cs),
(795,1372,o),
(829,1460,o),
(829,1489,cs),
(829,1507,o),
(801,1518,o),
(764,1518,cs),
(729,1518,o),
(686,1509,o),
(653,1487,cs),
(242,1219,l),
(221,1204,o),
(221,1190,o),
(221,1174,cs),
(221,1149,o),
(238,1137,o),
(254,1137,cs),
(256,1137,o),
(262,1141,o),
(266,1145,c),
(276,1151,l),
(584,1364,l),
(477,1053,ls),
(389,795,o),
(266,463,o),
(266,248,cs),
(266,43,o),
(350,-18,o),
(438,-18,cs),
(610,-18,o),
(954,207,o),
(1171,457,c),
(1012,-41,l),
(203,-473,ls),
(168,-492,o),
(152,-526,o),
(152,-565,cs),
(152,-705,o),
(309,-774,o),
(442,-774,cs)
);
},
{
closed = 1;
nodes = (
(510,-688,o),
(469,-643,o),
(469,-547,cs),
(469,-455,o),
(586,-365,o),
(723,-301,c),
(1001,-139,l),
(965,-260,l),
(907,-467,o),
(688,-694,o),
(553,-694,c)
);
}
);
userData = {
com.fontlab.hintData = {
hhints = (
{
position = -774;
width = 80;
},
{
position = -18;
width = 266;
},
{
position = 328;
width = 112;
}
);
vhints = (
{
position = 152;
width = 317;
},
{
position = 266;
width = 258;
}
);
};
};
width = 1554;
}
);
unicode = 89;
},
{
glyphname = Yacute;
lastChange = "2023-08-03 09:40:13 +0000";
layers = (
{
background = {
shapes = (
{
closed = 1;
nodes = (
(965,-260,l),
(907,-467,o),
(688,-694,o),
(553,-694,c),
(510,-688,o),
(469,-643,o),
(469,-547,cs),
(469,-455,o),
(586,-365,o),
(723,-301,c),
(1001,-139,l)
);
},
{
closed = 1;
nodes = (
(477,1053,ls),
(389,795,o),
(266,463,o),
(266,248,cs),
(266,43,o),
(350,-18,o),
(438,-18,cs),
(610,-18,o),
(954,207,o),
(1171,457,c),
(1012,-41,l),
(203,-473,ls),
(168,-492,o),
(152,-526,o),
(152,-565,cs),
(152,-705,o),
(309,-774,o),
(442,-774,cs),
(893,-774,o),
(1137,-375,o),
(1268,-33,c),
(1673,328,l),
(1673,440,l),
(1286,86,l),
(1640,1487,l),
(1423,1487,l),
(1395,1477,o),
(1313,1151,o),
(1305,1114,cs),
(1214,739,l),
(1147,457,o),
(786,248,o),
(602,248,cs),
(561,248,o),
(524,311,o),
(524,358,cs),
(524,498,o),
(682,926,o),
(758,1225,cs),
(795,1372,o),
(829,1460,o),
(829,1489,cs),
(829,1507,o),
(801,1518,o),
(764,1518,cs),
(729,1518,o),
(686,1509,o),
(653,1487,cs),
(242,1219,l),
(221,1204,o),
(221,1190,o),
(221,1174,cs),
(221,1149,o),
(238,1137,o),
(254,1137,cs),
(256,1137,o),
(262,1141,o),
(266,1145,c),
(276,1151,l),
(584,1364,l)
);
},
{
closed = 0;
nodes = (
(1157,1518,ls)
);
},
{
closed = 1;
nodes = (
(1499,1835,o),
(1503,1848,o),
(1503,1860,cs),
(1503,1899,o),
(1443,1962,o),
(1396,1962,c),
(1286,1956,o),
(1067,1792,o),
(976,1708,c),
(999,1653,l),
(1071,1678,o),
(1241,1735,o),
(1396,1796,cs),
(1484,1831,l)
);
}
);
};
layerId = m001;
shapes = (
{
ref = Y;
},
{
pos = (873,678);
ref = acutecomb;
}
);
width = 1554;
}
);
unicode = 221;
},
{
glyphname = Ycircumflex;
lastChange = "2023-08-03 09:40:13 +0000";
layers = (
{
background = {
shapes = (
{
closed = 1;
nodes = (
(965,-260,l),
(907,-467,o),
(688,-694,o),
(553,-694,c),
(510,-688,o),
(469,-643,o),
(469,-547,cs),
(469,-455,o),
(586,-365,o),
(723,-301,c),
(1001,-139,l)
);
},
{
closed = 1;
nodes = (
(477,1053,ls),
(389,795,o),
(266,463,o),
(266,248,cs),
(266,43,o),
(350,-18,o),
(438,-18,cs),
(610,-18,o),
(954,207,o),
(1171,457,c),
(1012,-41,l),
(203,-473,ls),
(168,-492,o),
(152,-526,o),
(152,-565,cs),
(152,-705,o),
(309,-774,o),
(442,-774,cs),
(893,-774,o),
(1137,-375,o),
(1268,-33,c),
(1673,328,l),
(1673,440,l),
(1286,86,l),
(1640,1487,l),
(1423,1487,l),
(1395,1477,o),
(1313,1151,o),
(1305,1114,cs),
(1214,739,l),
(1147,457,o),
(786,248,o),
(602,248,cs),
(561,248,o),
(524,311,o),
(524,358,cs),
(524,498,o),
(682,926,o),
(758,1225,cs),
(795,1372,o),
(829,1460,o),
(829,1489,cs),
(829,1507,o),
(801,1518,o),
(764,1518,cs),
(729,1518,o),
(686,1509,o),
(653,1487,cs),
(242,1219,l),
(221,1204,o),
(221,1190,o),
(221,1174,cs),
(221,1149,o),
(238,1137,o),
(254,1137,cs),
(256,1137,o),
(262,1141,o),
(266,1145,c),
(276,1151,l),
(584,1364,l)
);
},
{
closed = 0;
nodes = (
(2607,805,ls)
);
},
{
closed = 1;
nodes = (
(2459,987,o),
(2570,1108,o),
(2674,1214,c),
(2736,1108,o),
(2799,987,o),
(2830,944,c),
(2902,985,l),
(2900,993,o),
(2768,1382,o),
(2703,1382,cs),
(2619,1382,o),
(2441,1141,o),
(2353,987,c),
(2412,944,l)
);
}
);
};
layerId = m001;
shapes = (
{
ref = Y;
},
{
pos = (832,708);
ref = circumflexcomb;
}
);
width = 1554;
}
);
unicode = 374;
},
{
glyphname = Ydieresis;
lastChange = "2023-08-03 09:40:13 +0000";
layers = (
{
background = {
shapes = (
{
closed = 1;
nodes = (
(965,-260,l),
(907,-467,o),
(688,-694,o),
(553,-694,c),
(510,-688,o),
(469,-643,o),
(469,-547,cs),
(469,-455,o),
(586,-365,o),
(723,-301,c),
(1001,-139,l)
);
},
{
closed = 1;
nodes = (
(477,1053,ls),
(389,795,o),
(266,463,o),
(266,248,cs),
(266,43,o),
(350,-18,o),
(438,-18,cs),
(610,-18,o),
(954,207,o),
(1171,457,c),
(1012,-41,l),
(203,-473,ls),
(168,-492,o),
(152,-526,o),
(152,-565,cs),
(152,-705,o),
(309,-774,o),
(442,-774,cs),
(893,-774,o),
(1137,-375,o),
(1268,-33,c),
(1673,328,l),
(1673,440,l),
(1286,86,l),
(1640,1487,l),
(1423,1487,l),
(1395,1477,o),
(1313,1151,o),
(1305,1114,cs),
(1214,739,l),
(1147,457,o),
(786,248,o),
(602,248,cs),
(561,248,o),
(524,311,o),
(524,358,cs),
(524,498,o),
(682,926,o),
(758,1225,cs),
(795,1372,o),
(829,1460,o),
(829,1489,cs),
(829,1507,o),
(801,1518,o),
(764,1518,cs),
(729,1518,o),
(686,1509,o),
(653,1487,cs),
(242,1219,l),
(221,1204,o),
(221,1190,o),
(221,1174,cs),
(221,1149,o),
(238,1137,o),
(254,1137,cs),
(256,1137,o),
(262,1141,o),
(266,1145,c),
(276,1151,l),
(584,1364,l)
);
},
{
closed = 0;
nodes = (
(1157,1518,ls)
);
},
{
closed = 1;
nodes = (
(1011,1662,o),
(1091,1751,o),
(1091,1820,cs),
(1091,1861,o),
(1058,1898,o),
(980,1898,cs),
(898,1898,o),
(841,1808,o),
(841,1740,cs),
(841,1699,o),
(863,1662,o),
(919,1662,cs)
);
},
{
closed = 1;
nodes = (
(1495,1662,o),
(1573,1751,o),
(1573,1820,cs),
(1573,1861,o),
(1542,1898,o),
(1462,1898,cs),
(1382,1898,o),
(1323,1808,o),
(1323,1740,cs),
(1323,1699,o),
(1345,1662,o),
(1403,1662,cs)
);
}
);
};
layerId = m001;
shapes = (
{
ref = Y;
},
{
pos = (771,708);
ref = dieresiscomb;
}
);
width = 1554;
}
);
unicode = 376;
},
{
glyphname = Ygrave;
lastChange = "2023-08-03 09:40:13 +0000";
layers = (
{
background = {
shapes = (
{
closed = 1;
nodes = (
(965,-260,l),
(907,-467,o),
(688,-694,o),
(553,-694,c),
(510,-688,o),
(469,-643,o),
(469,-547,cs),
(469,-455,o),
(586,-365,o),
(723,-301,c),
(1001,-139,l)
);
},
{
closed = 1;
nodes = (
(477,1053,ls),
(389,795,o),
(266,463,o),
(266,248,cs),
(266,43,o),
(350,-18,o),
(438,-18,cs),
(610,-18,o),
(954,207,o),
(1171,457,c),
(1012,-41,l),
(203,-473,ls),
(168,-492,o),
(152,-526,o),
(152,-565,cs),
(152,-705,o),
(309,-774,o),
(442,-774,cs),
(893,-774,o),
(1137,-375,o),
(1268,-33,c),
(1673,328,l),
(1673,440,l),
(1286,86,l),
(1640,1487,l),
(1423,1487,l),
(1395,1477,o),
(1313,1151,o),
(1305,1114,cs),
(1214,739,l),
(1147,457,o),
(786,248,o),
(602,248,cs),
(561,248,o),
(524,311,o),
(524,358,cs),
(524,498,o),
(682,926,o),
(758,1225,cs),
(795,1372,o),
(829,1460,o),
(829,1489,cs),
(829,1507,o),
(801,1518,o),
(764,1518,cs),
(729,1518,o),
(686,1509,o),
(653,1487,cs),
(242,1219,l),
(221,1204,o),
(221,1190,o),
(221,1174,cs),
(221,1149,o),
(238,1137,o),
(254,1137,cs),
(256,1137,o),
(262,1141,o),
(266,1145,c),
(276,1151,l),
(584,1364,l)
);
},
{
closed = 0;
nodes = (
(2607,805,ls)
);
},
{
closed = 1;
nodes = (
(2498,1022,o),
(2668,965,o),
(2740,940,c),
(2762,995,l),
(2672,1079,o),
(2453,1243,o),
(2342,1249,c),
(2295,1249,o),
(2236,1186,o),
(2236,1147,cs),
(2236,1135,o),
(2240,1122,o),
(2254,1118,c),
(2342,1083,ls)
);
}
);
};
layerId = m001;
shapes = (
{
ref = Y;
},
{
pos = (874,708);
ref = gravecomb;
}
);
width = 1554;
}
);
unicode = 7922;
},
{
glyphname = Z;
lastChange = "2023-08-03 09:40:13 +0000";
layers = (
{
anchors = (
{
name = bottom;
pos = (725,0);
},
{
name = center;
pos = (725,759);
},
{
name = top;
pos = (995,1518);
}
);
background = {
shapes = (
{
closed = 1;
nodes = (
(195,193,o),
(102,145,o),
(102,72,cs),
(102,-16,o),
(197,-29,o),
(211,-29,cs),
(309,-29,o),
(455,39,o),
(573,117,c),
(1028,-33,o),
(1024,-57,o),
(1044,-57,cs),
(1212,-57,o),
(1339,74,o),
(1503,168,c),
(1503,268,l),
(1434,209,o),
(1329,150,o),
(1315,145,c),
(1280,127,o),
(1257,119,o),
(1231,119,cs),
(1147,119,o),
(813,225,o),
(698,260,c),
(1028,610,o),
(1303,1159,o),
(1448,1384,c),
(1405,1481,l),
(1235,1493,o),
(1120,1518,o),
(918,1518,cs),
(365,1518,o),
(117,1438,o),
(117,1370,cs),
(117,1243,o),
(190,1122,o),
(354,1061,c),
(381,1067,o),
(422,1083,o),
(422,1100,c),
(377,1139,o),
(360,1210,o),
(360,1280,cs),
(360,1325,o),
(580,1393,o),
(786,1393,cs),
(938,1393,o),
(1063,1386,o),
(1167,1376,c),
(721,655,l),
(631,512,o),
(545,403,o),
(483,322,c),
(236,211,ls)
);
}
);
};
layerId = m001;
shapes = (
{
closed = 1;
nodes = (
(1212,-57,o),
(1339,74,o),
(1503,168,c),
(1503,268,l),
(1434,209,o),
(1329,150,o),
(1315,145,c),
(1280,127,o),
(1257,119,o),
(1231,119,cs),
(1147,119,o),
(813,225,o),
(698,260,c),
(1028,610,o),
(1303,1159,o),
(1448,1384,c),
(1405,1481,l),
(1235,1493,o),
(1120,1518,o),
(918,1518,cs),
(365,1518,o),
(117,1438,o),
(117,1370,cs),
(117,1243,o),
(190,1122,o),
(354,1061,c),
(381,1067,o),
(422,1083,o),
(422,1100,c),
(377,1139,o),
(360,1210,o),
(360,1280,cs),
(360,1325,o),
(580,1393,o),
(786,1393,cs),
(938,1393,o),
(1063,1386,o),
(1167,1376,c),
(721,655,l),
(631,512,o),
(545,403,o),
(483,322,c),
(236,211,ls),
(195,193,o),
(102,145,o),
(102,72,cs),
(102,-16,o),
(197,-29,o),
(211,-29,cs),
(309,-29,o),
(455,39,o),
(573,117,c),
(1028,-33,o),
(1024,-57,o),
(1044,-57,cs)
);
}
);
userData = {
com.fontlab.hintData = {
hhints = (
{
position = -57;
width = 176;
},
{
position = 1393;
width = 125;
}
);
vhints = (
{
position = 117;
width = 243;
}
);
};
};
width = 1450;
}
);
unicode = 90;
},
{
glyphname = Zacute;
lastChange = "2023-08-03 09:40:13 +0000";
layers = (
{
background = {
shapes = (
{
closed = 1;
nodes = (
(195,193,o),
(102,145,o),
(102,72,cs),
(102,-16,o),
(197,-29,o),
(211,-29,cs),
(309,-29,o),
(455,39,o),
(573,117,c),
(1028,-33,o),
(1024,-57,o),
(1044,-57,cs),
(1212,-57,o),
(1339,74,o),
(1503,168,c),
(1503,268,l),
(1434,209,o),
(1329,150,o),
(1315,145,c),
(1280,127,o),
(1257,119,o),
(1231,119,cs),
(1147,119,o),
(813,225,o),
(698,260,c),
(1028,610,o),
(1303,1159,o),
(1448,1384,c),
(1405,1481,l),
(1235,1493,o),
(1120,1518,o),
(918,1518,cs),
(365,1518,o),
(117,1438,o),
(117,1370,cs),
(117,1243,o),
(190,1122,o),
(354,1061,c),
(381,1067,o),
(422,1083,o),
(422,1100,c),
(377,1139,o),
(360,1210,o),
(360,1280,cs),
(360,1325,o),
(580,1393,o),
(786,1393,cs),
(938,1393,o),
(1063,1386,o),
(1167,1376,c),
(721,655,l),
(631,512,o),
(545,403,o),
(483,322,c),
(236,211,ls)
);
},
{
closed = 0;
nodes = (
(2503,805,ls)
);
},
{
closed = 1;
nodes = (
(2845,1122,o),
(2849,1135,o),
(2849,1147,cs),
(2849,1186,o),
(2789,1249,o),
(2742,1249,c),
(2632,1243,o),
(2413,1079,o),
(2322,995,c),
(2345,940,l),
(2417,965,o),
(2587,1022,o),
(2742,1083,cs),
(2830,1118,l)
);
}
);
};
layerId = m001;
shapes = (
{
ref = Z;
},
{
pos = (631,678);
ref = acutecomb;
}
);
width = 1450;
}
);
unicode = 377;
},
